<svg xmlns="http://www.w3.org/2000/svg" xmlns:xlink="http://www.w3.org/1999/xlink" viewBox="0 0 1200 900"><defs><style>.cls-1{fill:#4c415a;}.cls-2{fill:url(#未命名漸層_4);}.cls-3{fill:#231815;}.cls-3,.cls-4{stroke:#231815;stroke-miterlimit:10;}.cls-4{fill:#fff;}</style><linearGradient id="未命名漸層_4" x1="703.77" y1="350.73" x2="785.22" y2="350.73" gradientUnits="userSpaceOnUse"><stop offset="0" stop-color="#4d445c"/><stop offset="1" stop-color="#a1618b"/></linearGradient></defs><g id="圖層_1" data-name="圖層 1"><image width="800" height="600" transform="scale(1.5)" xlink:href="image_processing20210426-10893-1ftqk5r.jpg"/></g><g id="eye"><path class="cls-1" d="M696.83,373.93c-2.92-4.48-2.49-9.53-1.94-16.05a58.87,58.87,0,0,1,8.23-25.08c4.1-6.88,8.61-14.45,17.71-19,12.39-6.22,25-2.73,29.56-1.46,15.58,4.32,30.82,17,35.29,34.7,2.73,10.79.56,19.94-.61,24.86-1.4,5.93-2.81,11.52-7.67,15.32-3.91,3.06-8.38,3.65-13.4,3.85-14.77.59-22.46-2.63-47-8.49C705.06,379.7,700,378.83,696.83,373.93Z" transform="translate(-45)"/><path class="cls-2" d="M705.51,370.78a17.7,17.7,0,0,1-1.71-9.28c.64-15.05,1-23.2,7-32.05a36.25,36.25,0,0,1,13.47-12.56c17-8.8,35,.72,37.56,2.1,15,8.19,19.92,22.41,20.86,25.31,1.18,3.61,6.19,19-2.09,32.16a27.29,27.29,0,0,1-10.62,10.09c-2.82,1.44-7.09,2.92-26.74.19-7.25-1-22.75-3.45-32.06-9.9A16.8,16.8,0,0,1,705.51,370.78Z" transform="translate(-45)"/><path class="cls-3" d="M741.46,326.07c-1.91,2.1,3.54,10.07,5.86,13.47a51.36,51.36,0,0,0,9.8,10.83c2.29,1.85,11.64,9.45,14,7.46,2.72-2.24-3.06-16.89-14.19-25.61C751.33,327.8,743.28,324.09,741.46,326.07Z" transform="translate(-45)"/><path class="cls-4" d="M733.71,337.05c-.7-2.33,2.24-5.34,4.83-6.59a8.82,8.82,0,0,1,7.31-.14c.33.15,4.06,2,3.95,4.53s-4.4,4.37-6.87,4.83C739.58,340.3,734.5,339.68,733.71,337.05Z" transform="translate(-45)"/><path class="cls-4" d="M750,322.12c0-.52,4.57-1.13,9.22,0a19.73,19.73,0,0,1,7.32,3.37c5.14,3.86,6.77,9.37,8.19,14.19,1.83,6.2,2.07,11.91,1.61,12s-1.11-3.84-3.95-11a41,41,0,0,0-4.68-9.08,17.66,17.66,0,0,0-3.43-3.93c-.56-.46-2.31-1.83-7.4-3.53C752.21,322.63,749.92,322.5,750,322.12Z" transform="translate(-45)"/></g></svg>