<?xml version="1.0" encoding="utf-8"?>
<!-- Generator: Adobe Illustrator 25.2.0, SVG Export Plug-In . SVG Version: 6.00 Build 0)  -->
<svg version="1.1" id="圖層_1" xmlns="http://www.w3.org/2000/svg" xmlns:xlink="http://www.w3.org/1999/xlink" x="0px" y="0px"
	 viewBox="0 0 1402 885" style="enable-background:new 0 0 1402 885;" xml:space="preserve">
<style type="text/css">
	.st0{clip-path:url(#SVGID_2_);}
	.st1{fill:#FFFFFF;}
	.st2{fill:#F9F7E5;}
	.st3{fill:#C69F8F;}
	.st4{fill:#BA9183;}
	.st5{fill:#7F425F;}
	.st6{fill:#ECDA9E;}
	.st7{fill:#F6E5AC;}
	.st8{fill:#DEA360;}
	.st9{fill:#EECB75;}
	.st10{fill:#EEEDDD;}
	.st11{fill:#F6E6AE;}
	.st12{fill:#EEDEA7;}
	.st13{fill:#F4B257;}
	.st14{fill:#D04457;}
	.st15{fill:#CA7421;}
	.st16{fill:#651226;}
	.st17{fill:#D53E51;}
	.st18{fill:#50224F;}
	.st19{fill:#851C42;}
	.st20{fill:#E69D70;}
	.st21{fill:#CF654F;}
	.st22{fill:none;stroke:#CF654F;stroke-miterlimit:10;}
	.st23{fill:none;stroke:#CF654F;stroke-width:3;stroke-miterlimit:10;}
	.st24{fill:#CE614B;}
	.st25{stroke:#000000;stroke-miterlimit:10;}
	.st26{fill:#F7BA69;}
	.st27{fill:#F7B973;}
	.st28{fill:#3F0E2E;}
	.st29{fill:#FFFFFF;stroke:#FFFFFF;stroke-miterlimit:10;}
	.st30{fill:#97587D;}
	.st31{fill:#D78536;}
	.st32{fill:#BB651F;}
	.st33{fill:#D7883C;}
	.st34{fill:#773657;}
	.st35{fill:#962750;}
	.st36{fill:#A43565;}
</style>
<g>
	<defs>
		<rect id="SVGID_1_" x="0" width="1402" height="885"/>
	</defs>
	<clipPath id="SVGID_2_">
		<use xlink:href="#SVGID_1_"  style="overflow:visible;"/>
	</clipPath>
	<g id="forest_1" class="st0">
		<rect x="0" class="st1" width="1402" height="885"/>
		<g id="background">
			<path id="Vector" class="st2" d="M1269.3-0.1c-165.5,200.4-289.9,257.5-346.7,276.8c-9.5,3.3-19.5,6.2-21.1,6.7
				c-65.4,19.9-245.5,67-322.4-4.9c-28.1-26.5-30.8-60.8-88.1-105.6c-48.8-38.1-76.8-47-105.4-67.9c-23.3-17.1-51.8-47.4-67.3-105.1
				C635.3-0.1,952.2-0.1,1269.3-0.1z"/>
			<path id="Vector_2" class="st1" d="M1008.7,287.1c-4.5,0.7-14.5,0.6-34.1,0.4c-43.5-0.4-178.5-2.4-178.5-2.4
				c-128.9-1.9-83.1,1.5-124.4-0.1c-19.7-0.7-47.1-2.2-48,1.5c-0.5,2.2,9.3,5.5,25.1,10.7c66.8,22,62.8,21.1,66.8,22.2
				c26.3,6.5,33.1,2.8,99.6,4.3c53.5,1.2,106.9-2.2,160.2-1.3c4,0,12,0.3,19.7-3.6c4.5-2.2,5.8-4.2,18.2-18
				c8.7-9.8,11.3-12.5,10.2-14.1C1022,284.4,1016,285.9,1008.7,287.1z"/>
			<g id="Group">
				<path id="Vector_3" class="st3" d="M0,615.2c2.7-0.6,6.7-1.6,11.7-2.5c73.6-13.4,140.1,16.5,192.3,47.6
					c0,0,85.6,41.5,162.5,70.2c111.1,41.6,213.8,23,320.4,7c449.6-67.6,686.9-41.3,713.6-131.7c3.8-13.2-2-11.1,0-97.8
					c1.8-83.5,7.8-107.6-9.7-120.3c-22.8-16.5-59.9,5.4-118.2,20.2c-73.6,18.7-108.8-0.9-241.1,3c-65.1,1.9-158.5,3.6-274.3,2.4
					c-108.9-45.2-197.8-70.5-259.6-85c-38.8-9.2-63.4-13.4-77.8-15.6c-26.8-4.2-85.3-12.2-198.8-10c-57.3,1-132.4,4.9-221,15.6
					C0,417,0,516,0,615.2z"/>
			</g>
			<path id="Vector_4" class="st4" d="M3,295.2c-0.5,4.5,0,9.1-0.2,13.5c0,0.3,0,1,0.5,1.5c0.7,0.6,1.7,0.4,5.5,0.1
				c0.8,0,1.5-0.1,2.3-0.1c4.8-0.6,13.2-0.1,13.2-0.1c10.2,0.6,20.3-0.1,30.5,0c26.8,0.1,85.3-1.8,126.9-2.1
				c21.3-0.1,51.8-0.1,89.3,1.2c8.8,0.1,20.8,0.3,35,0.4c37.5,0.3,51.1-0.1,75.1,0.9c18,0.7,35.6,2.7,35.6,2.7s11.3,1.2,21.3,2.5
				c30,4.3,69.4,20.7,93.3,30.3c0,0,35,14.3,85.3,33.9c33.3,12.9,50,19.5,58.5,22.2c43.5,14.1,77.8,14.9,174.2,16.1
				c71.3,0.9,106.7,1.3,112.6,1.2c72.4-1.5,199.8-2.5,441.1-1.2c0.2-7.7,0.3-18.4,0.3-31.1c0-14.4,0-21.7-0.3-23
				c-2.5-11.7-72.9-18.9-441.8,19.6c-46.6,0.9-93.3,1.8-139.9,2.7c-143-37.6-286.1-75.2-429.1-112.8c-48.6-0.7-97.1-1.3-145.7-2.1
				c-21.1,2.1-42.5,4.3-63.6,6.4c-59.9-1.8-119.7-3.4-179.7-5.2c0,2.8,0,6.8,0,9.7C3.2,295.2,3.2,295,3,295.2z"/>
			<path id="Vector_5" class="st5" d="M1400.7,610.3c-33-1.6-218.2-10.3-361.7,1.2c-43.6,3.4-84.6,8.9-126.7,31.4
				c-26.8,14.3-32.3,29.1-73.1,51.7c-41,22.7-69.3,28.8-76.3,30.2c-29,5.8-53.8,5.1-70.4,3.3c-230.5-1.2-461.1-2.4-691.6-3.4
				l-0.8,77l1401.8,21.7C1401.5,752.4,1401,681.3,1400.7,610.3z"/>
			<path id="Vector_6" class="st6" d="M1249.3,0c-6.3,22-10.8,40-13.8,52c-8.3,33.7-10.5,47.4-19.7,59.9
				c-7.8,10.6-16.5,14.9-16.5,14.9c-9.7,4.8-12.7,0.1-21.3,5.5c-8.8,5.5-14.3,15.8-17,21c-4.5,8.6-4.3,11.4-10.8,31.5
				c-6.5,19.6-8,20.4-18,49.5c-4.2,11.9-4.3,13.1-7.2,21.1c-15.7,45-25.1,53.8-24.3,62.1c1.3,13.1,28.8,23.8,143.6,12.5
				c33.1-0.1,66.1-0.4,99.2-0.6c19.6-2.2,39.3-4.6,58.9-6.8c0.3-107.5,0.8-215,1.2-322.3C1352,0,1300.6,0,1249.3,0z"/>
			<path id="Vector_7" class="st7" d="M1351,0c-2.3,4-4.7,8-7,12c-3,17.8-6.2,35.5-9.2,53.4c-3.8,11.7-7.8,23.5-11.7,35.2
				c-8.2,6.7-16.3,13.5-24.5,20.2c-11.2,3.4-22.5,6.8-33.6,10.3c-8.5,3-17,5.8-25.5,8.8c-8.5,16.8-17.2,33.4-25.7,50.2
				c-19.2,35.8-38.5,71.7-57.6,107.6c-1.8,2.4-4.7,6.1-8.7,10c-19.3,18.9-40,19.8-69.1,25c-19.5,3.4-33.3,5.9-49,11.3
				c-44.5,15.2-65.3,41-69.6,35.2c-5-6.7,24.3-36.7,55.5-102c22-46.2,34.8-89.1,65.6-116.6c4.8-4.3,11.5-12.6,22.5-17.1
				c9.3-3.9,13.8-2.2,23.8-5.6c0,0,12.7-4.3,25.1-15.9c16.8-15.8,18.5-34.9,31.5-67.2c5.3-13.5,14.2-32.9,28.2-54.6
				C1258.1,0,1304.6,0,1351,0z"/>
			<path id="Vector_8" class="st8" d="M0,273.7c-0.5,4.5,0,9.1-0.2,13.5c0,0.3,0,1,0.5,1.5c0.7,0.6,1.7,0.4,5.5,0.1
				c0.8,0,1.5-0.1,2.3-0.1c4.8-0.6,13.2-0.1,13.2-0.1c10.2,0.6,20.3-0.1,30.5,0c27,0.1,85.4-1.8,127.1-2.1c21.3-0.1,52-0.1,89.4,1.2
				c8.8,0.1,20.8,0.3,35.1,0.4c37.5,0.3,51.3-0.1,75.3,0.9c18.2,0.9,35.6,2.7,35.6,2.7s11.3,1.2,21.3,2.7
				c30.1,4.3,69.4,20.7,93.4,30.5c0,0,35,14.3,85.4,33.9c33.3,12.9,50,19.3,58.3,22.2c43.6,14.1,77.9,15,174.5,16.1
				c71.3,0.9,106.9,1.3,112.7,1.2c72.6-1.5,200.2-2.5,442-1.2c0.2-7.7,0.3-18.4,0.3-31.1c0-14.4,0-21.7-0.3-23.2
				c-2.5-11.7-73.1-18.9-442.6,19.8c-46.6,0.9-93.4,1.8-140,2.7C676.1,327.4,532.7,289.7,389.5,252c-48.6-0.7-97.3-1.3-145.9-2.1
				c-21.1,2.1-42.5,4.3-63.6,6.4c-59.9-1.8-119.9-3.4-179.9-5.2c0,2.8,0,6.8,0,9.7C0,273.7,0,273.4,0,273.7z"/>
			<path id="Vector_9" class="st7" d="M185.7,0c2.3,2.8,4.5,5.6,6.8,8.3c3,12.3,6,24.8,9,37.2c3.8,8.2,7.7,16.4,11.5,24.5
				c8,4.8,16,9.4,23.8,14.1c11,2.4,22,4.8,33,7.1c8.3,2.1,16.7,4,24.8,6.1c8.3,11.7,16.7,23.3,25.1,35.1
				c18.8,25,37.5,50.1,56.3,75.1c1.7,1.6,4.7,4.2,8.5,7c19,13.2,39,13.8,67.4,17.4c19,2.4,32.6,4.2,47.8,7.9
				c43.5,10.6,63.8,28.7,67.9,24.5c4.8-4.6-23.8-25.6-54.1-71.2c-21.5-32.3-34-62.1-64.1-81.3c-4.7-3-11.2-8.8-22-11.9
				c-9.2-2.7-13.5-1.5-23.3-3.9c0,0-12.3-3-24.5-11.1c-16.5-11-18.2-24.4-30.6-46.8c-5.3-9.4-13.8-22.9-27.5-38.1
				C276.4,0,231,0,185.7,0z"/>
			<path id="Vector_10" class="st6" d="M194,0c7.9,14.9,13.9,27.3,17.6,35.5c10.6,23,13.3,32.4,25,40.8c10,7.2,21,10.1,21,10.1
				c12.3,3.2,16.1,0.2,27,3.7c11.2,3.8,18.1,10.7,21.6,14.3c5.7,5.8,5.4,7.9,13.9,21.5c8.3,13.4,10.1,13.9,23,33.7
				c5.2,8.1,5.6,9,9.1,14.5c19.9,30.8,31.9,36.7,30.8,42.3c-1.7,9-36.7,16.1-182.3,8.5c-42.1-0.2-84.1-0.3-126.1-0.5
				c-25-1.5-49.8-3-74.9-4.7C-1,146.5-1.5,73.3-2,0C63.4,0,128.6,0,194,0z"/>
			<path id="Vector_11" class="st9" d="M1402,322.6v53.9c-111-1-200.6,0-263.9,1.2c-55.8,1-111.5,2.5-196,2.2
				c-93.4-0.4-71-2.5-132.7-2.2c-61.8,0.3-76.7,2.4-106.5-4c-14.3-3.1-19.5-5.5-97.5-37.7c-41.5-17.1-62.3-25.7-91.4-36.7
				c-36.5-13.8-63.2-23-99.2-26.9c-10.2-1.2-17.2-1.5-30.7-1.9c-59.2-2.4-105.7,0.9-111.5,1.2c-36.3,2.5-110.2,4.8-272.6,4.2v-63.3
				c84.4-1.2,156.4-2.2,223.2-3.4c0,0,38.2-0.6,131,1.8c33,0.9,51.7,1.6,75.9,5.8c41.3,7,71,18.9,88.7,26.2
				c172.2,70.1,172,70.1,175.7,71.3c35,10.8,46,8.3,214.4,7.6c88.9-0.4,177.7,0.6,266.4,0.6C1227.6,322,1305.8,322.2,1402,322.6z"/>
			<path id="Vector_12" class="st10" d="M498,167.2c0-4.8,2.3-9.1,5.2-14.2c3.2-5.8,5-8.8,8.6-11.4c3.4-2.4,8.2-4.2,27.9-3.3
				c15.3,0.6,22.8,1.1,26.2,2.6c13.6,6.2,18.8,21.7,24.5,39.1c5.2,15.8,3.9,20.6,10.7,27.4c6.4,6.4,17.8,12,26.7,9.1
				c6-1.8,4.9-5.5,11.7-8.9c2.9-1.4,6.2-2.3,30.5-0.6c13.1,0.9,14.1,1.4,15.4,2.1c8.4,4.8,6,14.1,14.6,18c4.7,2.1,6-0.3,13.1,1.7
				c9.9,2.7,15.8,10,18,12.9c5.5,7,2.9,8.2,9.1,16.4c2.5,3.3,10.2,13.6,17.4,12.6c2.2-0.3,4.4-1.8,6.5-0.8c0.8,0.5,1.5,1.1,2.7,3.6
				c2.9,6.1,2.5,8,4.9,10.6c2,2.1,3.4,2.3,3.4,2.9c-0.3,2.6-26.7-0.2-59.2-0.2c-21.1,0-48,1.1-63.9,0.6c-1,0-4.7-0.2-9.6-0.2
				c-10.7-0.2-14.6,0.3-17.8,0.3c-9.9-0.2-13.9-4.8-29.9-12.7c-15.3-7.7-16.8-6.1-25.7-10.9c-13.1-7-13.4-12.3-47-56.7
				c-6-7.9-10.2-16.7-16.3-24.5C501.5,176.9,498.2,172.9,498,167.2z"/>
			<path id="Vector_13" class="st4" d="M432.8,311.9c-0.2,26-0.3,51.9-0.3,77.9c-0.7,4.9,1.2,9.5,5,11.6c0.7,0.4,3.2,1.8,6.3,1.3
				c2.8-0.3,4.5-1.8,5.3-2.5c4.7-4,3.5-10.3,3.3-11.1c0.3-25.7,0.5-51.4,0.8-77.2"/>
			<path id="Vector_14" class="st4" d="M498.3,327.5c-0.2,15.3-0.3,30.6-0.3,45.9c-0.7,3,1.2,5.6,4.8,6.8c0.7,0.3,3.2,1,6.3,0.7
				c2.7-0.1,4.5-1,5.2-1.5c4.5-2.4,3.5-6.1,3.2-6.7c0.3-15.2,0.5-30.3,0.8-45.5"/>
			<path id="Vector_15" class="st4" d="M581.3,422.7c2.8,0,5-2.3,5-5.2c0-2.9-2.2-5.2-5-5.2c-2.8,0-5,2.3-5,5.2
				C576.4,420.3,578.6,422.7,581.3,422.7z"/>
			<path id="Vector_16" class="st4" d="M313.2,376.3c2.8,0,5-2.3,5-5.2c0-2.9-2.2-5.2-5-5.2c-2.8,0-5,2.3-5,5.2
				C308.2,373.9,310.5,376.3,313.2,376.3z"/>
			<path id="Vector_17" class="st4" d="M463.3,454c2.3,0,4.2-1.7,4.2-3.7c0-2.1-1.9-3.7-4.2-3.7c-2.3,0-4.2,1.7-4.2,3.7
				C459.1,452.4,461,454,463.3,454z"/>
			<path id="Vector_18" class="st4" d="M713.2,473.8c2.3,0,4.2-2.1,4.2-4.6c0-2.5-1.9-4.6-4.2-4.6c-2.3,0-4.2,2.1-4.2,4.6
				C709.1,471.7,710.9,473.8,713.2,473.8z"/>
			<path id="Vector_19" class="st4" d="M434.3,520c2.8,0,5-2.3,5-5.2c0-2.9-2.2-5.2-5-5.2s-5,2.3-5,5.2
				C429.3,517.7,431.5,520,434.3,520z"/>
			<path id="Vector_20" class="st4" d="M602,440.8c2.3,0,4.2-2.1,4.2-4.6c0-2.5-1.9-4.6-4.2-4.6c-2.3,0-4.2,2.1-4.2,4.6
				C597.8,438.7,599.7,440.8,602,440.8z"/>
			<path id="Vector_21" class="st4" d="M27.8,531.8c2.3,0,4.2-2.1,4.2-4.6c0-2.5-1.9-4.6-4.2-4.6c-2.3,0-4.2,2.1-4.2,4.6
				C23.6,529.7,25.5,531.8,27.8,531.8z"/>
			<path id="Vector_22" class="st4" d="M31.5,381.2c3.2,0,5.8-2.3,5.8-5.2c0-2.9-2.6-5.2-5.8-5.2s-5.8,2.3-5.8,5.2
				C25.6,378.8,28.3,381.2,31.5,381.2z"/>
			<path id="Vector_23" class="st4" d="M874.4,458.6c2.3,0,4.2-2.1,4.2-4.6c0-2.5-1.9-4.6-4.2-4.6c-2.3,0-4.2,2.1-4.2,4.6
				C870.3,456.6,872.1,458.6,874.4,458.6z"/>
			<path id="Vector_24" class="st4" d="M582,435.1c1.9,0,3.5-1.4,3.5-3.1s-1.6-3.1-3.5-3.1c-1.9,0-3.5,1.4-3.5,3.1
				S580.1,435.1,582,435.1z"/>
			<path id="Vector_25" class="st4" d="M870.3,497.6c4.3,0,7.8-3.1,7.8-7c0-3.9-3.5-7-7.8-7c-4.3,0-7.8,3.1-7.8,7
				C862.4,494.5,866,497.6,870.3,497.6z"/>
		</g>
		<g id="sunOutside">
			<path id="Vector_26" class="st11" d="M749.4,127c-12.2,8.9-27,9.2-36.6,9.5c-8.5,0.1-29.8,0.7-44.8-12
				c-9.8-8.3-12.2-18.1-13-22.3c-0.7-3.3-5.3-26.3,13-39.2c11.2-7.9,24.5-7.7,41-7.6c14.8,0.1,32.1,0.4,44,10.7
				c8.8,7.7,10.3,17.2,11,22.6C764.5,92.3,767.7,113.6,749.4,127z"/>
		</g>
		<g id="sunInside">
			<path id="Vector_27" class="st12" d="M739.2,120.4c-9,7-20.2,7.3-27.1,7.4c-6.3,0.1-22.1,0.6-33.3-9.5c-7.3-6.5-9-14.3-9.7-17.5
				c-0.5-2.5-4-20.7,9.7-30.9c8.3-6.2,18.3-6.1,30.5-5.9c11,0.1,23.8,0.3,32.8,8.5c6.7,6.1,7.7,13.7,8.2,17.8
				C750.4,93.1,752.7,109.9,739.2,120.4z"/>
		</g>
		<g id="tree1">
			<path id="Vector_28" class="st13" d="M215.7,526.9c-1.3-1.5-3.2-3.7-4.8-6.4c-1.3-2.1-6.2-9.8-6.5-20.8
				c-0.2-6.2-0.5-17.1,7.5-26.8c5.7-6.7,13-10.1,16.8-11.9c7-3.3,9.8-1.5,14-4.6c6.5-4.9,2.8-10.6,8.8-15.6
				c6.3-5.4,12.8-1.3,18.2-6.4c5.7-5.2,0.2-11.2,5-18.3c6.8-10.1,25.6-10.1,29.8-10.1c6.2,0,16.5,0,23.6,6.7c1.5,1.3,7.5,7,7.5,14.3
				c0,2.4-0.7,3.7,0.3,5.5c2,3.4,7.8,2.2,13,4c2.3,0.9,19.2,6.8,22.1,17.7c2.2,8.2-5.2,12.5-1.7,18c3.2,4.9,9.7,2.4,17.5,7.3
				c9.8,6.2,13.7,19,11.7,29c-0.5,2.7-1.7,8.5-7.2,13.7c-5,4.8-10.7,6.4-13.3,7C324.1,528.2,269.8,527.6,215.7,526.9z"/>
			<path id="Vector_29" class="st14" d="M318.4,611.8c0.2,21.7,0.3,43.3,0.3,65l-41.6-22l2.8-95.4c-1.3,0-3.3-0.1-5.7-0.6
				c-4-0.7-7.5-2.2-12.5-5.6c-8.3-5.6-13.7-9.1-16.5-15.8c-1.7-4-2-7.7-1.8-10.1h17.3c0,2.2,0.2,5.8,2.3,9.4c4,7,13.2,11.7,16.2,9.8
				c1.3-0.7,1-2.2,1.3-11c0.2-3.4,0.3-6.2,0.5-8.2c12.5,0.3,25.1,0.6,37.6,0.9l-1,70.9c1.7,0.1,4.5,0.1,7.7-1
				c1.2-0.4,5.3-1.9,7.7-5.5c1.8-2.7,1-4,2.8-5.4c1.5-1,3.5-1,7.7-0.9c5,0.1,7.5,0.1,8.3,1.3c1.3,1.8-0.3,4.6-2.5,8.3
				c-2.3,4-4.3,7.4-8.8,10.4c-4.8,3.3-9.7,4.2-13.3,4.8c-3.8,0.7-7.2,0.7-9.5,0.6"/>
			<path id="Vector_30" class="st13" d="M315.2,585.9c-2.5-1.9-2.7-5.4-2.7-8c0-2.7,0-8,3.8-10.9c4.5-3.3,10.2,0,14.2-3.6
				c2-1.8,1-2.8,3.3-5.7c0.7-0.7,3.8-4.6,9.3-5.6c6.5-1.3,13.7,1.6,16.3,6.1c0.5,0.7,0.7,1.5,0.7,1.5c0.7,1.9,0.3,2.7,0.8,3.6
				c0.8,1.5,3.2,1.6,4.3,1.9c5.3,0.9,10.2,4.8,11.8,7.3c3.2,4.8-0.2,11.4-1.3,13.4c-17.8,1-31.8,1.3-39.3,1.3
				c-6.3,0-5.2-0.3-10.8-0.3C319.2,586.9,317.2,587.4,315.2,585.9z"/>
			<path id="Vector_31" class="st15" d="M299.7,437.8c6.4-3.3,10.1-8.2,8.3-11c-1.8-2.8-8.4-2.4-14.8,0.9c-6.4,3.3-10.1,8.2-8.3,11
				C286.7,441.5,293.3,441.1,299.7,437.8z"/>
			<path id="Vector_32" class="st15" d="M246.5,510.4c2.5,0,4.5-1.8,4.5-4c0-2.2-2-4-4.5-4c-2.5,0-4.5,1.8-4.5,4
				C242,508.6,244,510.4,246.5,510.4z"/>
			<path id="Vector_33" class="st8" d="M338.9,469.6c2.5,0,4.5-1.8,4.5-4c0-2.2-2-4-4.5-4c-2.5,0-4.5,1.8-4.5,4
				C334.4,467.8,336.4,469.6,338.9,469.6z"/>
			<path id="Vector_34" class="st15" d="M345.8,515.2c4.8-2.5,7.2-6.7,5.4-9.5c-1.8-2.8-7.1-3-11.9-0.6c-4.8,2.5-7.2,6.7-5.4,9.5
				C335.7,517.5,341,517.7,345.8,515.2z"/>
			<path id="Vector_35" class="st15" d="M340.1,581.9c2.4-1.2,3.6-3.4,2.7-4.8c-0.9-1.4-3.6-1.6-6-0.3c-2.4,1.2-3.6,3.4-2.7,4.8
				C335,582.9,337.7,583.1,340.1,581.9z"/>
		</g>
		<g id="tree2">
			<g id="Group_2">
				<path id="Vector_36" class="st14" d="M154.2,603.7l-41.1-9.4l-1-83.6l-1.2-0.7c-0.3,0-0.7,0-0.7,0c-0.5,0-10,0.1-24.3-8.3
					c-4.5-2.7-10.8-6.5-17-13.5c-4.2-4.6-12.5-14-9.3-18.4c2.5-3.3,11.3-3.3,17,0c5.3,3.1,4.7,7.3,9,13.4
					c6.5,8.9,19.5,15.9,25.5,13.1c4.3-1.9,4-8.5,3.7-25.3c-0.5-24.8-0.5-37.3-0.5-38.4c1-15.6,0.2-31.4,2-47
					c0.2-1.9,0.7-4.9-1.3-6.7c-3.2-3-9-0.1-19.6-4.2c0,0-0.5-0.1-0.8-0.3C79.9,368.7,70.8,358,70.8,358c-1.7-1.9-7-8.5-8.3-17.1
					c-0.3-1.6-0.3-3.3,0.7-4.8c2.7-3.4,11.8-3.1,15.8,0.6c1.8,1.8,1.3,3,3.7,8c0,0,1.8,3.9,4.7,7.7c4.7,6.2,23.6,15,28.6,10.4
					c1-0.9,0.8-1.9,0-11.9c-0.8-8.9-1-13.4,0-15.3c4.3-8,24.8-11.3,31.8-4.6c3.7,3.4,1.7,7.6,1.3,23.9c-0.2,8,0.3,5.1,0.8,21.9
					c0.7,23.9,1,36,0.5,46.8c-0.5,12.6-1.7,22,2.5,23.3c1.3,0.4,3.7-0.6,8-2.7c5.2-2.5,9.5-4.6,13.3-8.6c3.2-3.3,6-6.2,7.8-10.9
					c0.5-1.3,1-3,2.7-3.9c0.7-0.4,2-1,8-0.4c4.5,0.4,6.7,0.7,7.5,1.6c2.7,2.7-1.7,9.2-3.2,12c-5.3,10-14.7,15.2-19.3,18
					c-7.2,4.5-10.7,6.7-16,7.1c-4.7,0.4-8.2-0.6-10.2,1.5c-1.7,1.6-0.8,4-0.3,7.7c0.5,3.7-0.3,1.5-0.2,14.1
					c0,30.8,1.5,71.4,1.5,71.4C152.9,564.9,153.5,582,154.2,603.7z"/>
				<path id="Vector_37" class="st13" d="M0.3,279.2c4.5-6.4,9.2-8.8,12.7-9.8c4.5-1.3,8.8-0.7,10.7-3.4c1.5-2.1,0.5-4.9,0-6.2
					c0,0-3.2-9.4-0.8-24.8c1.7-11,10.8-18.3,15.8-22.2c5-4,14.8-11.7,27.5-11.7c6.5,0,12.3,2.1,15.2-0.9c1.8-1.9,1.2-4.6,1-6.7
					c-1-12.5,14.2-23.8,16.7-25.4c14.7-10.9,31.8-9.7,35.6-9.4c3.8,0.3,21.6,2.4,33,15.6c2.8,3.4,8,9.4,8.3,17.7
					c0.3,5.9-2.2,9.1,0,11.3c3.3,3.6,11.7-1.6,22.5-1.3c16.5,0.4,30.1,13.5,36.3,23.5c7.3,11.9,7,24.4,6.8,27.7
					c-0.3,6.5-4.5,12.2-1.2,15.6c2.2,2.2,5.2,1.5,10,2.4c11.3,2.1,18.5,10.9,21.6,14.9c3,3.7,9,12.3,9,24.4c0,13.7-7.5,23-10,25.9
					c-90.1,0-180.3-0.1-270.4-0.1C0.3,317.1,0.3,298.1,0.3,279.2z"/>
				<path id="Vector_38" class="st13" d="M122.1,469.5c1.2-2.1,5.2-10.4,2-20.5c-0.3-1.3-5-14.9-16.3-17.8c-4.2-1-8-0.4-10-3
					c-1.8-2.2-0.7-4.5-0.8-7.4c-0.5-7.6-9.7-14.3-17.8-16.9c-11-3.4-20.5,0.3-23.5,1.8c-2.2,1-11,5.1-14,13.2
					c-1.8,5.1,0,8.3-3.2,10.7c-3.2,2.5-6.7,0.4-12,1.8c-8.7,2.2-13,11-13.8,12.8c-6.2,12.9,3.2,25.6,3.8,26.6
					C51.6,470.1,86.9,469.8,122.1,469.5z"/>
				<path id="Vector_39" class="st13" d="M148.5,417.2c-2.5-4.5-2.5-9.4-2.5-9.4c-0.2-4.8,2.3-10.3,7-13.2c7-4.5,14.5-0.9,17.5-5.1
					c2.2-3-1-5.2,0.7-9.8c2.7-6.8,12.7-9.4,14.8-10c2.7-0.7,12.5-3.1,19,1.3c6.8,4.6,3.7,12.2,11.5,16.8c3.5,2.1,4.5,0.6,9.5,2.8
					c2.3,1,12.7,5.9,14.2,15.5c1,6.1-2.2,11.1-3.7,13.1c-4.5,0.4-10.7,0.9-18,1.3c-13.8,0.7-16,0.1-36.5,0.4
					C166,421,151,421.5,148.5,417.2z"/>
			</g>
			<path id="Vector_40" class="st8" d="M63.7,249.6c5.7-2.9,8.9-7.3,7.3-9.8c-1.6-2.5-7.5-2.1-13.2,0.8c-5.7,2.9-8.9,7.3-7.3,9.8
				C52.2,252.9,58.1,252.5,63.7,249.6z"/>
			<path id="Vector_41" class="st15" d="M45.5,318.7c5.7-2.9,8.9-7.3,7.3-9.8c-1.6-2.5-7.5-2.1-13.2,0.8c-5.7,2.9-8.9,7.3-7.3,9.8
				C34,321.9,39.9,321.6,45.5,318.7z"/>
			<path id="Vector_42" class="st15" d="M235.7,309.6c1.7-2.4-1.3-6.9-6.8-10.1c-5.5-3.2-11.3-3.8-13.1-1.4
				c-1.7,2.4,1.3,6.9,6.8,10.1C228.1,311.4,234,312,235.7,309.6z"/>
			<path id="Vector_43" class="st8" d="M180.6,290.4c3.3-1.7,4.6-5.1,3-7.6c-1.6-2.5-5.6-3.1-8.8-1.5c-3.3,1.7-4.6,5.1-3,7.6
				C173.3,291.4,177.3,292,180.6,290.4z"/>
			<path id="Vector_44" class="st15" d="M107.7,213.9c1.7-0.9,2.4-2.5,1.6-3.7c-0.8-1.2-2.8-1.5-4.4-0.6c-1.7,0.9-2.4,2.5-1.6,3.8
				C104,214.5,106,214.8,107.7,213.9z"/>
			<path id="Vector_45" class="st15" d="M179.8,220.9c2.1-1.1,2.9-3.3,1.8-4.9c-1.1-1.6-3.6-2.1-5.7-1c-2.1,1.1-2.9,3.3-1.8,4.9
				C175.2,221.5,177.7,222,179.8,220.9z"/>
			<path id="Vector_46" class="st8" d="M76.8,316.3c1.7-0.9,2.4-2.5,1.6-3.7c-0.8-1.2-2.8-1.5-4.4-0.6s-2.4,2.5-1.6,3.8
				C73.2,316.9,75.1,317.1,76.8,316.3z"/>
			<path id="Vector_47" class="st15" d="M218.7,279.8c1.7-0.9,2.4-2.5,1.6-3.8c-0.8-1.2-2.8-1.5-4.4-0.6c-1.7,0.9-2.4,2.5-1.6,3.7
				C215,280.3,217,280.6,218.7,279.8z"/>
			<path id="Vector_48" class="st15" d="M50.1,286.7c1.8-0.9,2.6-2.9,1.7-4.3c-0.9-1.4-3.2-1.8-5-0.9c-1.8,0.9-2.6,2.9-1.7,4.3
				C46.1,287.2,48.3,287.6,50.1,286.7z"/>
			<path id="Vector_49" class="st15" d="M193.8,407.6c3.5-0.3,6.1-2.4,5.9-4.6c-0.2-2.3-3.2-3.9-6.7-3.7c-3.5,0.3-6.1,2.4-5.9,4.6
				C187.3,406.3,190.3,407.9,193.8,407.6z"/>
			<path id="Vector_50" class="st15" d="M201.2,381.4c1.7-0.9,2.4-2.5,1.6-3.8c-0.8-1.2-2.8-1.5-4.4-0.6c-1.7,0.9-2.4,2.5-1.6,3.8
				C197.6,382,199.6,382.3,201.2,381.4z"/>
			<path id="Vector_51" class="st15" d="M38.4,457.5c1.3-0.7,1.8-1.9,1.2-2.9c-0.6-0.9-2.1-1.1-3.4-0.5c-1.3,0.7-1.8,1.9-1.2,2.9
				C35.6,457.9,37.1,458.1,38.4,457.5z"/>
			<path id="Vector_52" class="st15" d="M85.3,434.9c2.2-1.1,2.6-4.3,0.9-7c-1.7-2.7-5-4-7.2-2.8c-2.2,1.2-2.6,4.3-0.9,7
				C79.8,434.8,83,436.1,85.3,434.9z"/>
		</g>
		<g id="tree3">
			<path id="Vector_53" class="st16" d="M1119.1,667.5l70.8-13.5l1.7-120.4l2-1c0.5-0.1,1,0,1.2,0c0.8,0.1,17.1,0.1,42-12
				c7.7-3.9,18.7-9.4,29.5-19.5c7-6.5,21.5-20.2,16-26.5c-4.2-4.8-19.5-4.8-29.3,0c-9.2,4.5-8,10.6-15.5,19.3
				c-11.2,12.8-33.6,22.9-44,18.7c-7.3-2.8-7-12.2-6.5-36.4c0.8-35.8,1-53.7,0.8-55.3c-1.7-22.4-0.3-45.2-3.3-67.6
				c-0.3-2.7-1-7,2.5-9.7c5.5-4.3,15.5-0.1,34-5.9c0.2,0,0.8-0.3,1.5-0.4c25-8.3,40.8-23.8,40.8-23.8c3-2.8,12-12.2,14.3-24.5
				c0.5-2.4,0.7-4.8-1.3-6.8c-4.7-4.9-20.3-4.6-27.3,0.7c-3.2,2.5-2.2,4.3-6.3,11.6c0,0-3,5.5-8,11.2c-8,9.1-40.8,21.6-49.3,15
				c-1.8-1.3-1.5-2.8,0.2-17.2c1.3-12.8,1.8-19.3-0.2-22.2c-7.5-11.6-42.8-16.2-54.8-6.5c-6.3,5.1-2.7,11-2.3,34.5
				c0.2,11.6-0.7,7.3-1.5,31.5c-1.2,34.5-1.7,51.7-0.8,67.3c1,18.1,2.8,31.7-4.3,33.6c-2.5,0.7-6.2-0.7-13.7-3.9
				c-8.8-3.6-16.3-6.5-23-12.5c-5.3-4.8-10.5-9.1-13.5-15.8c-0.8-1.9-1.7-4.2-4.7-5.6c-1.2-0.6-3.5-1.5-13.8-0.6
				c-7.7,0.7-11.5,1-12.8,2.2c-4.5,3.9,2.7,13.2,5.3,17.4c9.2,14.4,25.1,21.9,33.1,26c12.3,6.4,18.5,9.5,27.5,10.3
				c7.8,0.6,14.2-0.9,17.5,2.1c2.7,2.4,1.5,5.8,0.7,11.1c-0.8,5.4,0.5,2.2,0.5,20.4c-0.2,44.3-2.5,102.7-2.5,102.7
				C1121.2,611.6,1120.2,636.4,1119.1,667.5z"/>
			<path id="Vector_54" class="st17" d="M1403,195.6c-8-10.1-16.3-14.1-22.8-15.8c-8.2-2.1-15.8-1.2-19.3-5.5c-2.7-3.4-0.8-7.9,0-10
				c0,0,5.7-14.9,1.3-39.7c-3-17.5-19.6-29.3-28.5-35.5c-9.2-6.4-26.6-18.9-49.5-18.9c-11.7,0-22,3.3-27.1-1.3
				c-3.3-3.1-2-7.4-1.8-10.9c1.8-19.9-25.7-38.1-29.8-40.9c-26.3-17.2-57.1-15.3-63.9-14.9c-6.8,0.6-39,3.9-59.1,25.1
				c-5.2,5.4-14.3,15-14.8,28.2c-0.5,9.7,3.8,14.6,0,18.1c-6.2,5.8-21-2.5-40.3-2.1c-29.5,0.7-54.3,21.7-65.3,37.6
				c-13.2,19-12.5,39.2-12.3,44.3c0.5,10.6,8.2,19.6,2.2,25.1c-3.8,3.6-9.3,2.4-18,3.9c-20.5,3.4-33.1,17.4-39,23.8
				c-5.3,5.9-16.2,19.8-16.2,39.1c-0.2,22,13.5,37,18,41.5c162.2-0.1,324.2-0.3,486.4-0.3C1403,256.3,1403,226,1403,195.6z"/>
			<path id="Vector_55" class="st17" d="M952.7,416.9c-1.7-2.7-8-12.9-3-25.6c0.7-1.6,7.5-18.6,24.6-22.2c6.3-1.3,12-0.4,15.3-3.7
				c2.7-2.7,1-5.5,1.2-9.2c0.8-9.4,14.7-17.8,27.1-21.1c16.7-4.3,31.1,0.4,35.8,2.2c3.2,1.2,16.6,6.2,21.1,16.4
				c2.8,6.4,0.2,10.4,4.7,13.4c4.7,3.1,10,0.4,18.3,2.2c13.2,2.7,19.6,13.5,21,15.9c9.5,16.1-4.8,31.8-6,33
				C1059.3,417.6,1006,417.2,952.7,416.9z"/>
			<path id="Vector_56" class="st18" d="M1179.1,71.7c6.1-3.1,9.1-8.6,6.7-12.2c-2.4-3.6-9.2-4-15.2-0.9c-6,3.1-9.1,8.6-6.7,12.2
				C1166.2,74.4,1173,74.8,1179.1,71.7z"/>
			<path id="Vector_57" class="st19" d="M981.1,233.7c5.7-2.9,8.9-7.3,7.3-9.8c-1.6-2.5-7.5-2.1-13.2,0.8c-5.7,2.9-8.9,7.3-7.3,9.8
				C969.5,237,975.4,236.6,981.1,233.7z"/>
			<path id="Vector_58" class="st19" d="M1366.1,265.6c1.8-2.4-1.3-6.9-6.8-10.1c-5.5-3.2-11.4-3.8-13.1-1.4
				c-1.7,2.4,1.3,6.9,6.8,10.1C1358.4,267.5,1364.3,268.1,1366.1,265.6z"/>
			<path id="Vector_59" class="st19" d="M1192.6,245.2c3.3-1.7,4.6-5.1,3-7.6c-1.6-2.5-5.6-3.1-8.8-1.5c-3.3,1.7-4.6,5.1-3,7.6
				C1185.3,246.3,1189.3,246.9,1192.6,245.2z"/>
			<path id="Vector_60" class="st18" d="M1297,129.7c1.7-0.9,2.4-2.5,1.6-3.8c-0.8-1.2-2.8-1.5-4.4-0.6c-1.7,0.9-2.4,2.5-1.6,3.7
				C1293.3,130.3,1295.3,130.6,1297,129.7z"/>
			<path id="Vector_61" class="st19" d="M1191.9,126.6c2.1-1.1,2.9-3.3,1.8-4.9c-1.1-1.6-3.6-2.1-5.7-1c-2.1,1.1-2.9,3.3-1.8,4.9
				C1187.3,127.2,1189.9,127.7,1191.9,126.6z"/>
			<path id="Vector_62" class="st19" d="M1012.2,222.1c1.7-0.9,2.4-2.5,1.6-3.8c-0.8-1.2-2.8-1.5-4.5-0.6s-2.4,2.5-1.6,3.8
				C1008.5,222.7,1010.5,223,1012.2,222.1z"/>
			<path id="Vector_63" class="st16" d="M1111.4,172.5c1.7-0.9,2.4-2.5,1.6-3.8c-0.8-1.2-2.8-1.5-4.4-0.6s-2.4,2.5-1.6,3.7
				C1107.8,173.1,1109.8,173.4,1111.4,172.5z"/>
			<path id="Vector_64" class="st18" d="M1111.9,259.6c3.1-3,0.4-9.7-5.9-14.8c-6.3-5.1-14-6.8-17.1-3.7c-3.1,3.1-0.4,9.7,5.9,14.8
				C1101.2,261,1108.8,262.7,1111.9,259.6z"/>
			<path id="Vector_65" class="st19" d="M1031,141c3.3-1.7,4.6-5.1,3-7.6c-1.6-2.5-5.6-3.1-8.8-1.5c-3.3,1.7-4.6,5.1-3,7.6
				S1027.8,142.7,1031,141z"/>
			<path id="Vector_66" class="st19" d="M1337,153.3c2.1-2.9-1.1-8.1-7.1-11.5c-6-3.5-12.6-3.9-14.7-1.1c-2.1,2.9,1.1,8.1,7.1,11.5
				C1328.3,155.7,1334.9,156.2,1337,153.3z"/>
			<path id="Vector_67" class="st19" d="M1003.6,397.2c3.3-1.7,4.6-5.1,3-7.6c-1.6-2.5-5.6-3.1-8.8-1.5c-3.3,1.7-4.6,5.1-3,7.6
				C996.4,398.3,1000.3,398.9,1003.6,397.2z"/>
			<path id="Vector_68" class="st19" d="M1055.8,361.2c1.7-0.9,2.4-2.5,1.6-3.7c-0.8-1.2-2.8-1.5-4.4-0.6c-1.7,0.9-2.4,2.5-1.6,3.8
				C1052.2,361.8,1054.2,362.1,1055.8,361.2z"/>
		</g>
		<g id="sittingCat_1">
			<g id="head">
				<path id="Vector_69" class="st20" d="M853.1,568.4c-2.1,6-5.3,9.8-6,10.8c-1.6,1.9-5.5,5.4-12.3,9.2
					c-23.8,13.4-54.6,10.7-69.5,9.5c-18.9-1.6-25.9-5.3-30.8-9.1c-2.1-1.7-5.7-5.3-9.2-10.2c-4.4-6.2-6.7-11.6-7.2-13
					c-1.7-4.4-6-15.3-3.2-28.2c1.3-5.8,3.2-13.4,9-19.2c2-2,5.5-4.6,6.8-9.3c0.7-2.6,0.5-4.9,0.2-6.6c0.3-3.2,0.8-8,2.7-13.7
					c1.1-3.5,1.8-4.7,6-13.6c5.7-12.5,5.7-13.3,7.9-16.6c3.9-5.7,8.1-11.9,11.8-11.2c3.6,0.6,3.8,7.1,9.9,24.3
					c5,14.3,7.4,16.8,10.2,18.1c2.7,1.2,3.4,0.2,14.9,0.8c9,0.5,9.2,1.1,11.3,0.4c4.1-1.2,5-3.9,12.9-14.2c5.7-7.4,4.8-5.5,9.7-12
					c7.7-10.2,9.3-13.8,11.7-13.5c1,0.1,2.5,1,6.2,12.1c3.6,10.6,3.4,8.7,4.6,15.9c1.9,11.5,3.5,23.9-1.8,35
					c-1.6,3.3-2.5,3.8-2.9,6.4c-1.1,6.2,3.1,9.8,6.2,16.4C857.1,548.2,855.8,560.6,853.1,568.4z"/>
				<g id="Group_3">
					<path id="Vector_2_2" class="st21" d="M739.8,535.2c1.4,6.2,2.2,9.3,2.4,9.2c0.2-0.1-0.2-3.1-1.1-9.3"/>
					<path id="Vector_3_2" class="st21" d="M739.8,535.2c0.6,1.5,1.1,3,1.6,4.5c0.2,0.8,0.4,1.5,0.7,2.3l0.3,1.1l0.1,0.6l0.1,0.3
						c0,0.1,0.1,0.2,0,0.1c0,0-0.1-0.1-0.1-0.1c0,0-0.1-0.1-0.1-0.1c-0.1,0-0.1-0.1-0.2-0.1c-0.1,0-0.3,0.1-0.4,0.1
						c-0.1,0.1-0.1,0.1-0.1,0.1v0.1c0,0,0,0.1-0.1,0.1c0,0.1,0,0.1,0,0.1c0,0.1,0,0,0,0c0-0.1,0-0.1,0-0.3v-0.6l-0.1-1.2
						c-0.1-0.8-0.1-1.6-0.2-2.4c-0.1-1.6-0.2-3.2-0.1-4.8c0.6,1.5,0.9,3,1.3,4.6c0.1,0.8,0.3,1.6,0.4,2.4c0.1,0.4,0.1,0.8,0.1,1.2
						c0,0.2,0.1,0.4,0.1,0.6c0,0.1,0,0.2,0,0.3c0,0.1,0,0.1,0,0.3c0,0.1,0,0.1,0,0.1c0,0.1-0.1,0.1-0.1,0.1l-0.1,0.1
						c0,0-0.1,0.1-0.1,0.1c-0.1,0.1-0.3,0.1-0.4,0.1c-0.1,0-0.1,0-0.3-0.1c-0.1,0-0.1-0.1-0.1-0.1c-0.1-0.1-0.1-0.1-0.2-0.2
						c-0.1-0.3-0.1-0.3-0.2-0.4l-0.1-0.3l-0.1-0.6c-0.1-0.4-0.2-0.8-0.3-1.2c-0.1-0.8-0.3-1.5-0.4-2.4
						C740.1,538.3,739.8,536.7,739.8,535.2z"/>
				</g>
				<g id="Group_2_2">
					<path id="Vector_4_2" class="st21" d="M734.9,542.4c-0.1,0.5-0.4,1.5-0.2,2.6c0.1,1.1,0.6,1.9,0.9,2.4"/>
					<path id="Vector_5_2" class="st21" d="M734.9,542.4c0.1,0.5,0.2,0.9,0.3,1.3l0.2,1.2l0.1,1.2c0.1,0.4,0.1,0.8,0.1,1.3
						c-0.5-0.2-0.8-0.6-1.1-1c-0.3-0.4-0.4-0.9-0.5-1.3c-0.1-0.5-0.1-1,0.1-1.5C734.2,543.2,734.4,542.8,734.9,542.4z"/>
				</g>
				<g id="Group_3_2">
					<path id="Vector_6_2" class="st21" d="M730.8,547.6c0.6,1,1.2,2.1,1.8,3.1L730.8,547.6z"/>
					<path id="Vector_7_2" class="st21" d="M730.8,547.6c0.4,0.1,0.7,0.3,0.9,0.6c0.2,0.2,0.4,0.5,0.6,0.7c0.1,0.3,0.3,0.6,0.3,0.8
						c0.1,0.3,0.1,0.6-0.1,1c-0.4-0.1-0.7-0.3-0.9-0.6c-0.2-0.2-0.4-0.5-0.6-0.7c-0.1-0.3-0.3-0.6-0.3-0.8
						C730.7,548.3,730.7,548,730.8,547.6z"/>
				</g>
				<g id="Group_4">
					<path id="Vector_8_2" class="st21" d="M729.5,550.2c0.8,0.6,1.7,1.3,2.6,1.9L729.5,550.2z"/>
					<path id="Vector_9_2" class="st21" d="M729.5,550.2c0.4-0.1,0.7,0,1,0.1c0.3,0.1,0.5,0.2,0.7,0.3c0.2,0.1,0.4,0.3,0.6,0.6
						c0.1,0.3,0.3,0.6,0.3,0.9c-0.4,0.1-0.7,0-1-0.1c-0.3-0.1-0.5-0.2-0.7-0.3c-0.2-0.1-0.4-0.3-0.6-0.6
						C729.7,550.9,729.6,550.6,729.5,550.2z"/>
				</g>
				<g id="Group_5">
					<path id="Vector_10_2" class="st21" d="M726.4,552.3c0.6,1.5,1.2,2.9,1.8,4.4L726.4,552.3z"/>
					<path id="Vector_11_2" class="st21" d="M726.4,552.3c0.4,0.3,0.7,0.6,1,0.9c0.2,0.3,0.4,0.7,0.6,1c0.1,0.3,0.3,0.8,0.3,1.2
						c0.1,0.4,0.1,0.8-0.1,1.3c-0.4-0.3-0.7-0.6-1-0.9c-0.2-0.3-0.4-0.7-0.6-1c-0.1-0.3-0.3-0.8-0.3-1.2
						C726.2,553.2,726.2,552.7,726.4,552.3z"/>
				</g>
				<g id="Group_6">
					<path id="Vector_12_2" class="st21" d="M724,557.9c0.6,1.3,1.2,2.6,1.8,3.9L724,557.9z"/>
					<path id="Vector_13_2" class="st21" d="M724,557.9c0.4,0.2,0.7,0.5,0.9,0.8c0.2,0.3,0.4,0.6,0.6,0.9c0.1,0.3,0.3,0.7,0.3,1
						c0.1,0.3,0.1,0.8-0.1,1.2c-0.4-0.2-0.7-0.5-0.9-0.8c-0.2-0.3-0.4-0.6-0.6-0.9c-0.1-0.3-0.3-0.7-0.3-1
						C723.9,558.8,723.9,558.3,724,557.9z"/>
				</g>
				<g id="Group_7">
					<path id="Vector_14_2" class="st21" d="M839.4,527.3c0-0.3-0.1-1.1-0.7-1.9c-0.7-0.8-1.5-1.1-1.8-1.2"/>
					<path id="Vector_15_2" class="st21" d="M839.4,527.3c-0.3-0.3-0.5-0.6-0.8-0.8l-0.6-0.7l-0.6-0.7c-0.2-0.3-0.4-0.6-0.7-0.9
						c0.4-0.2,0.9-0.1,1.3,0c0.4,0.1,0.8,0.4,1.1,0.8C839.7,525.6,839.9,526.6,839.4,527.3z"/>
				</g>
				<g id="Group_8">
					<path id="Vector_16_2" class="st21" d="M836.8,520.8c1,0.6,2.2,1.5,3.5,2.8c1.4,1.4,2.3,2.8,2.9,3.9"/>
					<path id="Vector_17_2" class="st21" d="M836.8,520.8c0.8,0.1,1.5,0.5,2.2,0.9c0.7,0.4,1.3,0.9,1.9,1.5c0.6,0.6,1.1,1.2,1.5,1.9
						c0.4,0.7,0.7,1.5,0.8,2.3c-0.6-0.6-1.2-1-1.8-1.6l-1.6-1.6l-1.5-1.6C837.9,521.9,837.3,521.4,836.8,520.8z"/>
				</g>
				<g id="Group_9">
					<path id="Vector_18_2" class="st21" d="M837.7,518.4c1.1,0.8,2.5,2,3.8,3.7c0.9,1.2,1.5,2.3,2,3.3"/>
					<path id="Vector_19_2" class="st21" d="M837.7,518.4c0.8,0.2,1.5,0.6,2.2,1c0.6,0.5,1.3,1,1.8,1.6c0.5,0.6,1,1.2,1.3,1.9
						c0.4,0.7,0.6,1.5,0.7,2.3c-0.6-0.6-1.1-1.1-1.6-1.7l-1.5-1.7l-1.4-1.7C838.7,519.7,838.2,519.1,837.7,518.4z"/>
				</g>
				<g id="Group_10">
					<path id="Vector_20_2" class="st21" d="M778,497.2c0.8,1.7,1.6,3.4,2.5,5.1L778,497.2z"/>
					<path id="Vector_21_2" class="st21" d="M778.1,497.1c0.3,0.3,0.6,0.8,0.8,1.2c0.3,0.4,0.6,0.8,0.8,1.2c0.3,0.4,0.6,0.8,0.8,1.2
						c0.1,0.5,0.2,1,0.1,1.5l-0.1,0.1c-0.6-0.3-0.9-0.6-1.2-1c-0.3-0.3-0.4-0.9-0.5-1.3c-0.1-0.4-0.3-0.9-0.4-1.4
						c-0.1-0.5-0.3-0.9-0.4-1.4L778.1,497.1z"/>
				</g>
				<g id="Group_11">
					<path id="Vector_22_2" class="st21" d="M776.9,499.4c-0.2,0.9-0.5,2.5-0.1,4.4c0.3,2,1.3,3.4,1.8,4.2"/>
					<path id="Vector_23_2" class="st21" d="M777,499.4c-0.1,1.5,0,3,0.4,4.4c0.2,0.7,0.6,1.3,0.8,2c0.2,0.7,0.4,1.4,0.5,2.2
						l-0.1,0.1c-0.8-0.4-1.3-1-1.7-1.7c-0.4-0.7-0.5-1.5-0.6-2.4c-0.1-0.8-0.1-1.6,0-2.4c0.1-0.8,0.3-1.5,0.6-2.2H777z"/>
				</g>
				<g id="Group_12">
					<path id="Vector_24_2" class="st21" d="M776.2,507c-0.1,0.3-0.6,1.2-0.2,2.4c0.6,1.7,2.3,2.3,2.5,2.4"/>
					<path id="Vector_25_2" class="st21" d="M776.3,507c-0.1,0.5-0.1,1-0.1,1.5c0.1,0.4,0.2,0.8,0.5,1.2c0.2,0.3,0.6,0.6,0.9,0.8
						c0.3,0.3,0.6,0.7,0.9,1.2l-0.1,0.1c-0.6,0.2-1.3,0.1-1.8-0.2c-0.3-0.1-0.5-0.3-0.6-0.6c-0.1-0.3-0.3-0.6-0.3-0.8
						c-0.2-0.6-0.3-1.2-0.1-1.7C775.7,507.8,775.9,507.3,776.3,507L776.3,507z"/>
				</g>
				<g id="Group_13">
					<path id="Vector_26_2" class="st21" d="M774,508.4c0,0.6,0,2.4,1.3,4.1c0.8,1.1,1.8,1.7,2.4,2"/>
					<path id="Vector_27_2" class="st21" d="M774,508.4c0.1,0.6,0.2,1.2,0.5,1.7c0.2,0.6,0.5,1,0.8,1.5c0.4,0.5,0.8,0.8,1.1,1.2
						c0.3,0.5,0.7,0.9,1.1,1.5l-0.1,0.1c-0.8,0.1-1.4-0.2-2-0.6c-0.6-0.4-0.9-1-1.2-1.7c-0.3-0.6-0.5-1.2-0.6-1.9
						c-0.1-0.6-0.1-1.3,0.1-1.9H774z"/>
				</g>
				<g id="Group_14">
					<path id="Vector_28_2" class="st21" d="M775.2,514.5c-0.3,0.8-0.1,1.7,0.4,2.4c0.6,0.7,1.5,0.7,1.6,0.7"/>
					<path id="Vector_29_2" class="st21" d="M775.2,514.5c0,0.3,0,0.7,0.1,1c0.1,0.3,0.3,0.6,0.5,0.8c0.2,0.2,0.5,0.2,0.6,0.4
						c0.2,0.2,0.4,0.4,0.7,0.8v0.1c-0.4,0.3-0.9,0.4-1.4,0.3c-0.5-0.1-0.8-0.6-1-1c-0.2-0.4-0.3-0.8-0.2-1.2
						c0.1-0.4,0.2-0.8,0.4-1.1H775.2z"/>
				</g>
				<g id="Group_15">
					<path id="Vector_30_2" class="st21" d="M792.7,503.7c2.5,7.3,2.7,8.9,2.6,9c-0.3,0.1-2.6-5.3-3.2-5.1c-0.4,0.1,0.4,3,1.3,8.9
						c0.1,1,0.2,1.9,0.3,2.6"/>
					<path id="Vector_31_2" class="st21" d="M792.7,503.7c1,2.1,1.8,4.2,2.6,6.3c0.2,0.6,0.3,1.1,0.5,1.7c0,0.1,0.1,0.3,0.1,0.4
						c0,0.1,0,0.1,0.1,0.3c0,0.1,0,0.2,0,0.3c0,0.1,0,0.1-0.1,0.2c0,0-0.1,0.1-0.1,0.2c-0.1,0.1-0.2,0.1-0.3,0.2
						c-0.1,0.1-0.2,0.1-0.4,0.1c-0.1,0-0.1,0-0.1-0.1h-0.1c-0.1,0-0.1-0.1-0.2-0.1c-0.1-0.1-0.2-0.2-0.2-0.3
						c-0.1-0.1-0.2-0.3-0.3-0.4c-0.6-1-1.1-2-1.6-3c-0.1-0.3-0.3-0.5-0.4-0.7c-0.1-0.2-0.3-0.5-0.4-0.6c0.1,0.1,0.1,0.1,0.4,0.1
						c0.1,0,0.2-0.1,0.3-0.1c0.1-0.1,0.1-0.1,0.1-0.1c0.1-0.1,0.1-0.1,0.1-0.1s0,0.1,0,0.3c0,0.2,0.1,0.5,0.1,0.8
						c0.1,1.1,0.4,2.2,0.5,3.3c0.3,2.2,0.4,4.5,0.4,6.8c-0.6-2.2-1-4.4-1.5-6.6c-0.3-1.1-0.5-2.2-0.7-3.3c-0.1-0.3-0.1-0.6-0.1-0.9
						c0-0.1-0.1-0.3,0-0.6c0-0.1,0.1-0.2,0.1-0.3c0.1-0.1,0.1-0.1,0.2-0.3c0.1-0.1,0.3-0.1,0.3-0.1c0.3,0,0.3,0.1,0.6,0.1
						c0.1,0.1,0.1,0.1,0.2,0.1c0.4,0.3,0.5,0.6,0.6,0.8c0.1,0.3,0.3,0.5,0.4,0.8c0.6,1,1.1,2.1,1.5,3c0.1,0.1,0.1,0.2,0.2,0.3
						c0,0.1,0.1,0.1,0.1,0.1l-0.1-0.1c-0.1,0-0.1,0-0.1-0.1c-0.1,0-0.2,0-0.3,0.1c-0.1,0-0.1,0.1-0.2,0.1c-0.1,0.1-0.1,0.2-0.1,0.1
						v0.1c0,0.1,0,0,0-0.1c0-0.1,0-0.1,0-0.1c0-0.1-0.1-0.3-0.1-0.4c-0.1-0.6-0.2-1.1-0.3-1.6C793.7,508.2,793.2,506,792.7,503.7z"
						/>
				</g>
				<g id="Group_16">
					<path id="Vector_32_2" class="st21" d="M787.1,502.4c-0.1,0.7-0.1,1.5-0.1,2.4c0,1.1,0.1,2,0.3,2.8"/>
					<path id="Vector_33_2" class="st21" d="M787.1,502.4c0.2,0.5,0.3,0.9,0.4,1.3c0.1,0.4,0.1,0.8,0.1,1.2c0,0.4,0,0.8-0.1,1.3
						c-0.1,0.4-0.1,0.9-0.4,1.4c-0.4-0.3-0.6-0.8-0.8-1.2c-0.1-0.4-0.2-0.9-0.3-1.4c0-0.5,0-0.9,0.1-1.4
						C786.6,503.2,786.7,502.7,787.1,502.4z"/>
				</g>
				<g id="Group_17">
					<path id="Vector_34_2" class="st21" d="M799,495.6c0.8,0.4,2.5,1.5,3.7,3.7c0.8,1.6,1,3,1.1,3.9"/>
					<path id="Vector_35_2" class="st21" d="M799,495.6c0.8,0.1,1.6,0.5,2.2,1c0.7,0.5,1.3,1.1,1.7,1.9c0.4,0.7,0.8,1.5,0.9,2.4
						c0.1,0.8,0.1,1.7-0.1,2.4c-0.4-0.8-0.6-1.5-0.9-2.1c-0.3-0.7-0.6-1.3-1.1-1.9c-0.4-0.6-0.8-1.2-1.3-1.8
						C800,496.8,799.5,496.3,799,495.6z"/>
				</g>
				<g id="Group_18">
					<path id="Vector_36_2" class="st21" d="M800.1,500.8c0.8,0.6,2.1,1.8,3.1,3.7c0.8,1.5,1,3,1.1,3.9"/>
					<path id="Vector_37_2" class="st21" d="M800.1,500.8c0.8,0.2,1.5,0.7,2,1.2c0.6,0.6,1.1,1.2,1.5,1.9c0.3,0.7,0.6,1.5,0.8,2.2
						c0.1,0.8,0.1,1.6-0.1,2.4c-0.3-0.7-0.6-1.4-0.9-2c-0.3-0.6-0.6-1.2-0.9-1.9c-0.4-0.6-0.7-1.2-1.1-1.8
						C801,502.1,800.5,501.5,800.1,500.8z"/>
				</g>
				<g id="Group_19">
					<path id="Vector_38_2" class="st21" d="M800.5,506.6c0.1,0,0.9,0.2,1.3,0.9c0.4,0.7,0.3,1.6-0.3,2.2"/>
					<path id="Vector_39_2" class="st21" d="M800.5,506.6c0.4-0.2,0.8-0.2,1.3,0c0.4,0.2,0.8,0.6,0.9,1c0.3,0.9-0.2,1.9-1.1,2.1
						c0-0.4,0-0.8-0.1-1c-0.1-0.3-0.1-0.5-0.1-0.7C801.2,507.6,801.1,507.3,800.5,506.6z"/>
				</g>
				<g id="Group_20">
					<path id="Vector_40_2" class="st21" d="M806.6,498.9c0.2,1,0.4,2,0.6,3L806.6,498.9z"/>
					<path id="Vector_41_2" class="st21" d="M806.6,498.9c0.3,0.2,0.6,0.4,0.7,0.6c0.1,0.2,0.3,0.5,0.3,0.8c0.1,0.3,0.1,0.5,0,0.8
						c-0.1,0.3-0.1,0.6-0.4,0.9c-0.4-0.2-0.6-0.4-0.7-0.6c-0.1-0.2-0.3-0.5-0.3-0.8c-0.1-0.3-0.1-0.5,0-0.8
						C806.3,499.4,806.4,499.2,806.6,498.9z"/>
				</g>
				<g id="Group_21">
					<path id="Vector_42_2" class="st21" d="M809.9,501.9c-0.2,1.2-0.4,2.4-0.6,3.5L809.9,501.9z"/>
					<path id="Vector_43_2" class="st21" d="M809.9,501.9c0.2,0.3,0.4,0.7,0.4,1c0.1,0.3,0.1,0.6,0,0.9c-0.1,0.3-0.1,0.6-0.3,0.8
						c-0.1,0.3-0.4,0.6-0.7,0.8c-0.2-0.3-0.3-0.7-0.4-1c-0.1-0.3-0.1-0.6,0-0.9c0.1-0.3,0.1-0.6,0.3-0.8
						C809.3,502.4,809.5,502.1,809.9,501.9z"/>
				</g>
				<g id="Group_22">
					<path id="Vector_44_2" class="st21" d="M811.2,505c0,1-0.1,2.1-0.1,3.1L811.2,505z"/>
					<path id="Vector_45_2" class="st21" d="M811.2,505c0.3,0.3,0.4,0.6,0.5,0.8c0.1,0.3,0.1,0.6,0.1,0.8c0,0.3-0.1,0.6-0.1,0.8
						c-0.1,0.3-0.3,0.5-0.6,0.8c-0.3-0.3-0.4-0.6-0.5-0.8c-0.1-0.3-0.1-0.6-0.1-0.8c0-0.3,0.1-0.6,0.2-0.8
						C810.7,505.5,810.9,505.2,811.2,505z"/>
				</g>
				<g id="Group_23">
					<path id="Vector_46_2" class="st21" d="M814.3,507.9c0,0.6,0,1.5-0.4,2.4c-0.4,1.2-1.1,1.9-1.5,2.4"/>
					<path id="Vector_47_2" class="st21" d="M814.3,507.9c0.3,0.4,0.4,0.9,0.4,1.4c0,0.5-0.1,1-0.3,1.5c-0.2,0.5-0.5,0.9-0.8,1.2
						c-0.4,0.3-0.8,0.6-1.3,0.7c0.1-0.5,0.3-0.9,0.4-1.3c0.1-0.4,0.3-0.8,0.4-1.1s0.3-0.7,0.5-1.1
						C813.9,508.7,814.1,508.3,814.3,507.9z"/>
				</g>
				<g id="Vector_48_2">
					<path id="Vector_70" class="st21" d="M837.6,534.5c0.1,0.1,0.8,1,0.7,2.2c-0.1,1.2-1,1.8-1.1,1.9"/>
					<path id="Vector_71" class="st22" d="M837.6,534.5c0.1,0.1,0.8,1,0.7,2.2c-0.1,1.2-1,1.8-1.1,1.9"/>
				</g>
				<g id="Vector_49_2">
					<path id="Vector_72" class="st21" d="M839.6,535.7c0.2,0.3,0.8,0.9,0.8,1.8c0.1,1.2-0.6,2.4-1.8,3.1"/>
					<path id="Vector_73" class="st22" d="M839.6,535.7c0.2,0.3,0.8,0.9,0.8,1.8c0.1,1.2-0.6,2.4-1.8,3.1"/>
				</g>
				<g id="Vector_50_2">
					<path id="Vector_74" class="st21" d="M842.2,537.8c0.4,0.6,1.2,1.9,1.3,3.7c0.1,1.9-0.4,3.3-0.7,3.9"/>
					<path id="Vector_75" class="st22" d="M842.2,537.8c0.4,0.6,1.2,1.9,1.3,3.7c0.1,1.9-0.4,3.3-0.7,3.9"/>
				</g>
				<g id="Vector_51_2">
					<path id="Vector_76" class="st21" d="M845,545.5c0.4,0.1,0.8,0.5,0.8,0.9c0.1,0.6-0.3,1.1-0.9,1.3"/>
					<path id="Vector_77" class="st22" d="M845,545.5c0.4,0.1,0.8,0.5,0.8,0.9c0.1,0.6-0.3,1.1-0.9,1.3"/>
				</g>
				<g id="Vector_52_2">
					<path id="Vector_78" class="st21" d="M848.2,548.1c0.1,0.1,0.6,0.7,0.5,1.4c-0.1,0.8-0.8,1.5-1.8,1.6"/>
					<path id="Vector_79" class="st22" d="M848.2,548.1c0.1,0.1,0.6,0.7,0.5,1.4c-0.1,0.8-0.8,1.5-1.8,1.6"/>
				</g>
				<g id="Vector_53_2">
					<path id="Vector_80" class="st21" d="M849.4,552.3c0,0.3,0,0.8-0.2,1.4c-0.5,1.2-1.7,1.7-2,1.8"/>
					<path id="Vector_81" class="st22" d="M849.4,552.3c0,0.3,0,0.8-0.2,1.4c-0.5,1.2-1.7,1.7-2,1.8"/>
				</g>
				<g id="Vector_54_2">
					<path id="Vector_82" class="st21" d="M851.2,555.4c0,0.4-0.1,1.9-1.1,3.1c-1,1.2-2.2,1.6-2.7,1.7"/>
					<path id="Vector_83" class="st22" d="M851.2,555.4c0,0.4-0.1,1.9-1.1,3.1c-1,1.2-2.2,1.6-2.7,1.7"/>
				</g>
				<g id="Group_24">
					<path id="Vector_55_2" class="st21" d="M840.7,570c0.2,0,2,0,3.1,1.4c0.8,1,0.8,2.1,0.7,2.4"/>
					<path id="Vector_56_2" class="st21" d="M840.7,570c0.5-0.3,1.1-0.3,1.7-0.2c0.6,0.1,1.1,0.4,1.6,0.8c0.9,0.8,1.2,2.3,0.5,3.3
						c-0.5-1-0.9-1.7-1.5-2.3C842.4,570.9,841.7,570.5,840.7,570z"/>
				</g>
				<g id="Group_25">
					<path id="Vector_57_2" class="st21" d="M839.6,571c0.1,0.8,0.4,1.7,0.8,2.6c0.3,0.6,0.6,1.2,0.8,1.7"/>
					<path id="Vector_58_2" class="st21" d="M839.6,571c0.4,0.3,0.6,0.6,0.8,1c0.2,0.3,0.4,0.7,0.5,1c0.3,0.7,0.5,1.4,0.3,2.4
						c-0.4-0.2-0.7-0.5-1-0.8c-0.3-0.3-0.5-0.7-0.6-1c-0.1-0.3-0.2-0.8-0.2-1.2C839.4,571.8,839.4,571.4,839.6,571z"/>
				</g>
				<g id="Vector_59_2">
					<path id="Vector_84" class="st21" d="M758.5,577.4c2,1.8,2.7,2.1,2.9,1.9c0.3-0.2-0.3-1.1,0-1.4c0.4-0.3,1.4,0.4,2.7,0.8
						c0.8,0.2,2,0.4,3.8-0.1"/>
					<path id="Vector_85" class="st22" d="M758.5,577.4c2,1.8,2.7,2.1,2.9,1.9c0.3-0.2-0.3-1.1,0-1.4c0.4-0.3,1.4,0.4,2.7,0.8
						c0.8,0.2,2,0.4,3.8-0.1"/>
				</g>
			</g>
			<g id="body">
				<path id="Vector_60_2" class="st20" d="M917.9,700.4c-2.2,11.1-4.4,22.1-6.6,33.2c-7.6,1.5-15.1,3-22.7,4.6
					c-6.6,1.9-14.5,3.7-23.5,4.8c-7.9,1-15.1,1.2-21.3,1.1c-10.2-0.1-22.2-1.1-35.7-3.7c-13.1-2.5-24.5-5.9-33.8-9.3
					c-4.4-1-9.7-2.7-15.3-5.5c-9.6-4.7-16.4-10.6-20.7-15c0.8-12.2-1.7-20.8-4.1-26.4c-3.8-8.7-7.6-10.5-11.2-21.5
					c-2.5-7.6-3.4-15-4.9-14.9c-1.3,0.1-1.7,5.3-2.5,5.3c-1.2-0.1-2.5-9.2-2.5-19.3c0.1-8.4,0.2-25.1,8.5-43.7
					c2.7-6,3.9-10.2,5-12.7c2.2,3.5,5.3,7.1,9.2,10.2c4.8,3.7,11.8,7.4,30.8,9.1c14.9,1.3,45.8,3.9,69.5-9.5
					c1.5,0.2,3.8,0.5,6.5,0.8c13.3,1.8,20,2.7,22.1,3.2c4.3,1,12.1,2.8,20,8.4c7.4,5.3,11.6,11.6,13.9,15.9
					c3.2,3.1,7.8,8.7,11.2,16.6c2.9,6.8,3.7,12.9,3.9,17c2,7,3.8,15.7,4.6,25.8C919.2,684.7,918.8,693.4,917.9,700.4z"/>
				<g id="Group_26">
					<path id="Vector_61_2" class="st21" d="M834.2,588c1.2,0.6,2.5,1.2,3.6,1.8c0.6,0.3,1.3,0.6,1.8,1c0.6,0.3,1.1,0.8,1.6,1.3
						l-0.1,0.1c-0.7-0.2-1.3-0.4-1.9-0.8c-0.6-0.3-1.1-0.7-1.8-1C836.5,589.6,835.3,588.9,834.2,588z"/>
				</g>
				<g id="Group_27">
					<path id="Vector_62_2" class="st21" d="M833.7,590.9c1.5,0.7,2.9,1.6,4.3,2.6c1.4,1,2.7,1.9,3.9,3.1c-1.5-0.7-2.9-1.6-4.3-2.6
						C836.3,593.1,835,592,833.7,590.9z"/>
				</g>
				<g id="Group_28">
					<path id="Vector_63_2" class="st21" d="M846.6,592c1.2,0.1,2.4,0.4,3.5,0.8c1.1,0.3,2.2,0.8,3.3,1.4c1.1,0.6,2,1.2,3,1.9
						s1.9,1.5,2.7,2.4c-1.1-0.4-2.2-0.9-3.2-1.5c-1-0.5-2.1-1-3.1-1.5c-1.1-0.6-2-1-3.1-1.6C848.6,593.2,847.6,592.7,846.6,592z"/>
				</g>
				<g id="Group_29">
					<path id="Vector_64_2" class="st21" d="M850.4,595.7c2.1,0.6,4.1,1.5,6.1,2.5c1,0.5,2,1,2.8,1.7c0.8,0.7,1.7,1.5,2.4,2.3
						l-0.1,0.1c-1-0.6-1.8-1.2-2.7-1.8c-0.9-0.6-1.8-1.2-2.7-1.8C854.3,597.6,852.3,596.6,850.4,595.7z"/>
				</g>
				<g id="Group_30">
					<path id="Vector_65_2" class="st21" d="M853.6,600.8c1.9,1.2,3.8,2.6,5.7,3.9c0.9,0.6,1.9,1.2,2.8,2c0.9,0.7,1.8,1.5,2.6,2.3
						l-0.1,0.1c-1.1-0.6-2-1.2-2.9-1.8c-1-0.6-1.8-1.4-2.7-2.1C857.1,603.7,855.3,602.4,853.6,600.8z"/>
				</g>
				<g id="Group_31">
					<path id="Vector_66_2" class="st21" d="M838.7,599.9c1.8,1,3.5,2.4,5,3.8c1.5,1.5,2.8,3.1,3.9,4.9c1.1,1.8,2,3.7,2.7,5.7
						c0.7,1.9,1.2,4,1.3,6.1c-0.7-1.9-1.5-3.9-2.3-5.7c-0.8-1.9-1.8-3.6-2.9-5.3c-1.1-1.7-2.2-3.3-3.6-4.9
						C841.5,602.9,840.1,601.4,838.7,599.9z"/>
				</g>
				<g id="Group_32">
					<path id="Vector_67_2" class="st21" d="M845.4,611.3c1.2,0.7,2.2,1.7,3.1,2.7c0.9,1,1.7,2.2,2.2,3.5c0.6,1.2,1.1,2.6,1.3,3.9
						c0.3,1.3,0.4,2.7,0.2,4.1c-0.4-1.3-0.8-2.6-1.3-3.8c-0.4-1.2-1-2.4-1.5-3.6c-0.6-1.2-1.2-2.3-1.9-3.5
						C846.9,613.5,846.2,612.4,845.4,611.3z"/>
				</g>
				<g id="Group_33">
					<path id="Vector_68_2" class="st21" d="M845.9,618.8c1,1.1,1.8,2.3,2.6,3.5c0.7,1.2,1.4,2.6,1.9,3.9c0.5,1.4,1.1,2.8,1.1,4.3
						c0.1,1.5,0.1,3-0.3,4.4h-0.1c-0.4-1.5-0.6-2.8-0.9-4.2c-0.3-1.4-0.4-2.8-0.8-4.2c-0.4-1.4-0.8-2.7-1.5-4
						c-0.6-1.3-1.3-2.6-2-3.7H845.9z"/>
				</g>
				<g id="Group_34">
					<path id="Vector_69_2" class="st21" d="M844.8,629.1c1.2,1,2.2,2.2,3,3.5c0.8,1.3,1.5,2.7,2,4.2c0.5,1.5,0.8,3,0.9,4.5
						c0.1,1.5,0,3-0.4,4.6c-0.5-1.5-0.8-2.9-1.3-4.3c-0.4-1.4-0.8-2.8-1.3-4.2c-0.4-1.4-0.9-2.7-1.4-4.1
						C845.8,631.9,845.2,630.5,844.8,629.1z"/>
				</g>
				<g id="Group_35">
					<path id="Vector_70_2" class="st21" d="M845.1,640.2c1.1,0.9,2,2,2.9,3.2c0.8,1.2,1.5,2.5,2,3.8c0.5,1.3,0.8,2.8,1,4.2
						c0.1,1.4,0.1,2.8-0.1,4.2c-0.4-1.4-0.6-2.7-1-4c-0.3-1.3-0.8-2.6-1.3-3.9c-0.5-1.2-1-2.5-1.6-3.7
						C846.4,642.7,845.7,641.5,845.1,640.2z"/>
				</g>
				<g id="Group_36">
					<path id="Vector_71_2" class="st21" d="M844.5,650.9c1.1,1.1,2.1,2.5,2.8,3.9c0.7,1.5,1.3,3,1.5,4.6c0.3,1.6,0.4,3.3,0.2,4.8
						c-0.1,1.6-0.6,3.2-1.2,4.6c0.1-1.6,0.1-3.1,0.1-4.6c-0.1-1.5-0.2-3-0.5-4.6c-0.3-1.5-0.7-3-1.2-4.4
						C845.8,653.8,845.2,652.4,844.5,650.9z"/>
				</g>
				<g id="Group_37">
					<path id="Vector_72_2" class="st21" d="M870.5,652c-2.8,0.9-5.3,2-7.5,3.5c-1.1,0.8-2,1.6-2.8,2.6c-0.8,1-1.5,1.9-2,3.1
						c-0.6,1.2-1.1,2.4-1.6,3.7c-0.6,1.2-1.1,2.5-1.5,3.8c-0.9,2.6-1.8,5.3-2.6,8c-0.6-2.8-0.5-5.8-0.1-8.7c0.2-1.5,0.6-2.9,1.1-4.3
						c0.4-1.4,0.9-2.7,1.6-4.1c0.7-1.4,1.6-2.8,2.7-3.9c1.1-1.1,2.5-2,3.9-2.7C864.5,651.8,867.6,651.5,870.5,652z"/>
				</g>
				<g id="Group_38">
					<path id="Vector_73_2" class="st21" d="M827.9,650.3c0.6,0.6,0.8,1.3,0.9,2.1c0.1,0.8,0,1.5-0.2,2.2c-0.2,0.7-0.6,1.4-1.1,1.9
						c-0.5,0.6-1.1,1-1.9,1.2c0.1-0.8,0.4-1.4,0.5-2c0.2-0.6,0.3-1.2,0.6-1.7l0.6-1.7C827.4,651.7,827.7,651.1,827.9,650.3z"/>
				</g>
				<g id="Group_39">
					<path id="Vector_74_2" class="st21" d="M833.3,644c0.4,0.6,0.6,1.1,0.7,1.6c0.1,0.6,0.1,1,0.1,1.6s-0.1,1-0.3,1.5
						c-0.2,0.5-0.5,1-0.9,1.5c-0.4-0.6-0.6-1.1-0.7-1.6c-0.1-0.6-0.1-1-0.1-1.6c0.1-0.6,0.1-1,0.4-1.5
						C832.6,645,832.8,644.4,833.3,644z"/>
				</g>
				<g id="Group_40">
					<path id="Vector_75_2" class="st21" d="M821.8,653.9c0.1,1-0.1,2-0.4,3c-0.3,1-0.8,1.9-1.4,2.6c-0.6,0.8-1.3,1.5-2.2,2.1
						c-0.2,0.1-0.4,0.3-0.6,0.4c-0.2,0.1-0.5,0.2-0.7,0.3c-0.5,0.2-1,0.3-1.5,0.5c0.3-0.5,0.6-0.9,0.8-1.2c0.1-0.2,0.3-0.3,0.4-0.6
						c0.1-0.2,0.3-0.3,0.4-0.6l1.6-2.1l1.6-2.1C820.5,655.4,821.1,654.7,821.8,653.9z"/>
				</g>
				<g id="Group_41">
					<path id="Vector_76_2" class="st21" d="M843.7,672.1c0.1,1.5,0.1,3,0.3,4.4c0.1,1.5,0.3,3,0.4,4.4c0.1,1.5,0.5,2.9,0.5,4.4
						c0,1.5-0.1,3-0.4,4.5h-0.2c-0.8-1.4-1.2-2.9-1.5-4.4c-0.3-1.5-0.1-3-0.1-4.5c0-1.5,0.1-3,0.2-4.5s0.3-3,0.6-4.5L843.7,672.1z"
						/>
				</g>
				<g id="Group_42">
					<path id="Vector_77_2" class="st21" d="M850.1,681.7c-0.1,1-0.1,2.1-0.1,3.2c0,1,0.1,2.1,0.2,3.1c0.1,1,0.4,2,0.4,3
						c0,0.5,0,1-0.1,1.6c-0.1,0.6-0.1,1.1-0.3,1.7l-0.2,0.1c-0.4-0.4-0.7-0.9-1-1.5c-0.3-0.5-0.4-1-0.6-1.6c-0.3-1-0.1-2.2,0-3.3
						c0.1-1.1,0.2-2.1,0.4-3.3c0.3-1,0.5-2.1,0.9-3.1H850.1z"/>
				</g>
				<g id="Group_43">
					<path id="Vector_78_2" class="st21" d="M843.5,701.8c0.5,0.8,0.9,1.7,1.3,2.6c0.4,0.9,0.8,1.8,1.1,2.7c0.3,0.9,0.8,1.8,0.8,2.8
						c0,0.5,0,1-0.1,1.5c-0.1,0.5-0.2,1-0.5,1.5h-0.2c-0.7-0.9-1-1.7-1.3-2.6c-0.3-0.9-0.2-1.8-0.4-2.8c-0.1-0.9-0.3-1.8-0.4-2.8
						c-0.1-0.9-0.3-1.9-0.6-2.8H843.5z"/>
				</g>
				<g id="Group_44">
					<path id="Vector_79_2" class="st21" d="M844.2,711.9c0.6,1.2,1.2,2.4,1.7,3.6c0.5,1.2,0.9,2.6,1.2,3.8c0.3,1.3,0.8,2.5,1.1,3.7
						c0.2,1.2,0.5,2.5,0.3,3.9l-0.2,0.1c-0.5-0.5-0.9-1-1.3-1.7c-0.4-0.6-0.7-1.2-0.9-1.8c-0.2-0.6-0.4-1.3-0.5-2
						c-0.1-0.7-0.1-1.3-0.2-2c-0.1-1.3-0.4-2.6-0.6-3.9c-0.2-1.3-0.6-2.6-0.8-3.8H844.2z"/>
				</g>
				<g id="Group_45">
					<path id="Vector_80_2" class="st21" d="M848.7,702.4c-0.2,1.7-0.3,3.5,0,5.2c0.2,1.7,0.7,3.3,1.3,5c0.6,1.7,1.4,3.3,1.9,4.8
						c0.5,1.6,1.3,3,2.1,4.7l-0.1,0.1c-0.8-0.4-1.5-1-2.2-1.7c-0.3-0.3-0.6-0.7-0.9-1.1c-0.3-0.4-0.5-0.8-0.7-1.2
						c-0.8-1.7-1.1-3.5-1.6-5.2c-0.2-0.8-0.4-1.7-0.6-2.6c-0.1-0.9-0.2-1.8-0.2-2.8c0.1-1.8,0.4-3.6,0.8-5.3L848.7,702.4z"/>
				</g>
				<path id="Vector_81_2" class="st23" d="M802.8,694.3c0.5,1.2,0.9,2.5,1.4,3.8"/>
				<g id="Group_46">
					<path id="Vector_82_2" class="st21" d="M803.8,691.2c0.4,0.8,0.8,1.5,1.1,2.3c0.1,0.4,0.3,0.8,0.4,1.2c0.1,0.4,0.3,0.8,0.4,1.2
						c0.1,0.4,0.3,0.8,0.3,1.3l0.1,0.3v0.2c0,0.1,0,0.1,0,0.1l-0.1-0.1l-0.1-0.1c-0.1-0.1-0.1-0.1-0.2-0.3c-0.1-0.1-0.1-0.1-0.1-0.1
						c-0.1-0.1-0.2-0.1-0.4-0.2c-0.3-0.1-0.4-0.1-0.7-0.1c-0.1,0-0.2,0.1-0.3,0.1c-0.1,0-0.1,0-0.1,0.1c-0.1,0.1-0.1,0.1-0.2,0.1
						c-0.1,0.1-0.1,0.1-0.1,0.1s0,0,0.1,0s0.1-0.1,0.2-0.1c0.1-0.1,0.3-0.3,0.4-0.4c0.4-0.3,0.7-0.6,1.2-0.8l0.3,0.1
						c0.2,0.5,0.4,1,0.4,1.5c0,0.2,0,0.5-0.1,0.7c0,0.1-0.1,0.3-0.1,0.4c-0.1,0.1-0.1,0.1-0.1,0.3c-0.1,0.1-0.1,0.2-0.3,0.4
						c-0.1,0.1-0.1,0.1-0.3,0.2c-0.1,0-0.1,0.1-0.1,0.1c-0.1,0.1-0.2,0.1-0.3,0.1c-0.3,0-0.5,0-0.8-0.1c-0.1-0.1-0.3-0.1-0.3-0.2
						c-0.1-0.1-0.1-0.1-0.2-0.2c-0.1-0.1-0.1-0.2-0.2-0.3c-0.1-0.1-0.1-0.1-0.1-0.2c-0.1-0.1-0.1-0.2-0.1-0.3
						c-0.1-0.3-0.1-0.4-0.1-0.6s0-0.3,0-0.3l0.1-0.3c0.1-0.3,0.2-0.7,0.2-1.1c0.1-0.8,0.1-1.6,0.1-2.4v-2.5H803.8z"/>
				</g>
				<g id="Group_47">
					<path id="Vector_83_2" class="st21" d="M809.4,687.7c0.2,0.8,0.4,1.7,0.6,2.5c0.1,0.8,0.4,1.7,0.4,2.5c0.1,0.8,0.5,1.7,0.3,2.5
						c-0.1,0.4-0.2,0.8-0.4,1.2c-0.2,0.4-0.4,0.8-0.8,1.2h-0.3c-0.4-0.4-0.6-0.8-0.8-1.2c-0.2-0.4-0.3-0.8-0.4-1.2
						c-0.2-0.8,0.1-1.7,0.3-2.5c0.1-0.8,0.2-1.7,0.4-2.5c0.1-0.8,0.4-1.7,0.6-2.5H809.4z"/>
				</g>
				<g id="Group_48">
					<path id="Vector_84_2" class="st21" d="M812.6,695.4c-0.1-0.6-0.3-1.2-0.4-1.8c-0.1-0.6-0.2-1.2-0.2-1.8
						c-0.1-0.6-0.4-1.2-0.1-1.7c0.1-0.3,0.3-0.6,0.5-0.8c0.2-0.3,0.5-0.6,0.9-0.8h0.3c0.3,0.3,0.6,0.6,0.8,1
						c0.1,0.3,0.3,0.6,0.3,0.9c0.1,0.6-0.3,1.1-0.5,1.7c-0.2,0.6-0.4,1.1-0.6,1.7c-0.2,0.6-0.5,1.1-0.8,1.7L812.6,695.4z"/>
				</g>
				<g id="Group_49">
					<path id="Vector_85_2" class="st21" d="M813.3,691.8c0.4,0,0.7,0.1,1.1,0.1c0.3,0,0.7-0.1,0.8-0.1c0-0.1-0.2,0-0.3,0.1
						c-0.1,0.1-0.1,0-0.1-0.1c-0.1-0.2-0.3-0.6-0.5-0.9c-0.1-0.3-0.4-0.8-0.5-1.2c-0.1-0.4-0.1-0.9,0-1.3c0.1-0.4,0.4-0.8,0.6-1.2
						c0.3-0.3,0.7-0.6,1.2-0.8l0.3,0.1c0.2,0.5,0.4,0.8,0.4,1.2c0.1,0.3,0.2,0.6,0.3,0.9c0.1,0.3,0.1,0.5,0,0.8
						c-0.1,0.3-0.1,0.6-0.1,0.9c0,0.3,0.1,0.6,0.1,1c0,0.2,0.1,0.5-0.1,0.9c-0.1,0.2-0.2,0.5-0.4,0.6c-0.2,0.1-0.4,0.2-0.6,0.3
						c-0.4,0.1-0.6,0-0.8-0.1c-0.2-0.1-0.4-0.1-0.6-0.3c-0.4-0.2-0.6-0.4-1-0.6L813.3,691.8z"/>
				</g>
				<g id="Group_50">
					<path id="Vector_86" class="st21" d="M820.9,686.8c0.2,0.1,0.4,0.3,0.6,0.5c0.1,0.1,0.3,0.3,0.4,0.5s0.5,0.3,0.3,0.5
						c-0.1,0.1-0.2,0.1-0.4,0.2c-0.2,0.1-0.4,0.1-0.8,0.2h-0.3c-0.4-0.1-0.6-0.2-0.8-0.3c-0.2-0.1-0.4-0.2-0.4-0.3
						c-0.2-0.1,0.1-0.3,0.3-0.5c0.1-0.1,0.3-0.3,0.4-0.5c0.2-0.1,0.4-0.3,0.6-0.5L820.9,686.8z"/>
				</g>
				<g id="Group_51">
					<path id="Vector_87" class="st21" d="M823.3,689.4c0.3,0.2,0.5,0.4,0.7,0.7c0.2,0.2,0.4,0.5,0.6,0.7c0.1,0.2,0.6,0.4,0.4,0.8
						c-0.1,0.1-0.1,0.3-0.4,0.5c-0.1,0.1-0.3,0.3-0.8,0.6l-0.3,0.1c-0.4-0.1-0.7-0.1-0.9-0.2c-0.2-0.1-0.3-0.2-0.5-0.3
						c-0.3-0.2,0.1-0.6,0.1-0.8c0.1-0.3,0.1-0.6,0.2-0.9c0.1-0.3,0.2-0.6,0.4-0.9L823.3,689.4z"/>
				</g>
				<g id="Group_52">
					<path id="Vector_88" class="st21" d="M816.6,721.9c0.5,0,1-0.1,1.4-0.3c0.3-0.2,0.7-0.5,0.8-0.8c0.1-0.1,0.1-0.3,0.1-0.5
						c0-0.1,0.1-0.3,0.1-0.4c0.2-0.3,0.4-0.6,0.8-1.2l0.2-0.1c0.8,0.3,1.1,1,1.1,1.7c0,0.3-0.1,0.7-0.4,1c-0.2,0.3-0.5,0.5-0.8,0.7
						c-0.6,0.4-1.2,0.6-1.8,0.6c-0.6,0-1.2-0.2-1.6-0.6V721.9z"/>
				</g>
				<g id="Group_53">
					<path id="Vector_89" class="st21" d="M822,720.7c0.1-0.3,0.3-0.6,0.4-0.8c0.1-0.3,0.3-0.5,0.5-0.7c0.1-0.2,0.2-0.6,0.6-0.6
						c0.1,0,0.3,0,0.5,0c0.2,0.1,0.4,0.1,0.7,0.3l0.1,0.1c0.1,0.3,0.1,0.6,0.1,0.8c0,0.2-0.1,0.3-0.1,0.5c-0.1,0.3-0.5,0.2-0.8,0.3
						c-0.3,0.1-0.6,0.1-0.8,0.2c-0.3,0.1-0.6,0.1-0.9,0.1L822,720.7z"/>
				</g>
				<g id="Group_54">
					<path id="Vector_90" class="st21" d="M827.2,716.1c0.2,0.2,0.4,0.5,0.6,0.7c0.1,0.2,0.3,0.5,0.4,0.7c0.1,0.2,0.4,0.4,0.3,0.7
						c-0.1,0.1-0.1,0.3-0.3,0.4c-0.1,0.1-0.3,0.3-0.6,0.5h-0.2c-0.4-0.1-0.5-0.1-0.7-0.3c-0.1-0.1-0.3-0.2-0.4-0.3
						c-0.2-0.2,0.1-0.5,0.1-0.8c0.1-0.3,0.1-0.6,0.2-0.8c0.1-0.3,0.1-0.6,0.3-0.8H827.2z"/>
				</g>
				<g id="Group_55">
					<path id="Vector_91" class="st21" d="M830,716.1c0.2,0.2,0.4,0.4,0.6,0.7c0.1,0.2,0.4,0.5,0.5,0.7c0.1,0.2,0.5,0.4,0.4,0.7
						c-0.1,0.1-0.1,0.3-0.2,0.4c-0.1,0.1-0.3,0.3-0.6,0.5l-0.2,0.1c-0.4-0.1-0.6-0.1-0.7-0.3c-0.2-0.1-0.3-0.2-0.3-0.3
						c-0.2-0.2,0-0.6,0.1-0.8c0-0.3,0.1-0.6,0.1-0.8c0.1-0.3,0.1-0.6,0.3-0.8L830,716.1z"/>
				</g>
				<g id="Group_56">
					<path id="Vector_92" class="st21" d="M832.3,715c0.1,0.3,0.3,0.6,0.4,0.8c0.1,0.3,0.2,0.6,0.4,0.8c0.1,0.3,0.3,0.6,0.2,0.8
						c-0.1,0.1-0.1,0.3-0.3,0.4s-0.3,0.3-0.6,0.4h-0.2c-0.3-0.1-0.5-0.3-0.6-0.4c-0.1-0.1-0.3-0.3-0.4-0.4c-0.1-0.3,0.1-0.6,0.2-0.8
						c0.1-0.3,0.2-0.6,0.3-0.8c0.1-0.3,0.2-0.6,0.4-0.8L832.3,715z"/>
				</g>
				<g id="Group_57">
					<path id="Vector_93" class="st21" d="M869.2,670.2c-0.9,1.7-1.7,3.2-2.4,4.8c-0.4,0.8-0.6,1.6-0.9,2.4
						c-0.1,0.4-0.3,0.8-0.4,1.2c-0.1,0.2-0.1,0.3-0.1,0.4v-0.1v-0.1v-0.1c0,0,0-0.1-0.1-0.1c-0.1-0.1-0.1-0.1-0.2-0.2
						c-0.1,0-0.1-0.1-0.1-0.1s-0.1-0.1-0.2-0.1s-0.1,0-0.2-0.1c-0.1,0-0.1,0-0.1,0c-0.1,0-0.2,0-0.2,0c-0.1,0-0.1,0.1-0.1,0.1
						c0.3-0.2,0.6-0.6,1-0.8c0.3-0.3,0.7-0.6,1.1-0.8c0.4-0.3,0.7-0.5,1.3-0.8c0.1-0.1,0.3-0.2,0.7-0.2c0.2,0,0.5,0.1,0.7,0.2
						c0.2,0.1,0.4,0.3,0.4,0.5c0.1,0.3,0.1,0.5,0.1,0.7c0,0.1,0,0.3-0.1,0.4c-0.1,1-0.4,1.7-0.5,2.6c-0.1,0.9-0.1,1.7-0.2,2.7
						c-0.4-0.8-0.7-1.7-0.8-2.7c-0.1-0.9-0.1-1.9-0.1-2.8c0-0.1,0-0.2,0-0.3c0-0.1-0.1-0.1,0,0c0,0.1,0.1,0.1,0.2,0.3
						c0.1,0.1,0.3,0.1,0.4,0.1c0.2,0,0.1,0,0.1,0l-1,0.8l-1.1,0.9c-0.4,0.3-0.6,0.6-1.1,0.9c-0.1,0.1-0.1,0.1-0.3,0.1
						c-0.1,0-0.1,0.1-0.3,0.1c0,0-0.2,0.1-0.3,0.1c-0.1,0-0.1,0-0.1,0c-0.1,0-0.1,0-0.2-0.1c-0.1,0-0.1-0.1-0.2-0.1
						c-0.1,0-0.1-0.1-0.1-0.1c-0.1-0.1-0.2-0.2-0.3-0.3c0-0.1-0.1-0.1-0.1-0.1v-0.1c0-0.1,0-0.1-0.1-0.1c0-0.1,0-0.1,0-0.1
						c0-0.1,0-0.1,0-0.1V679c0-0.4,0.1-0.6,0.1-0.9c0.1-0.5,0.3-1,0.5-1.4c0.4-0.9,0.8-1.7,1.3-2.5
						C866.4,672.7,867.7,671.3,869.2,670.2z"/>
				</g>
				<g id="Group_58">
					<path id="Vector_94" class="st21" d="M870.8,675.6c0.8,0.7,1.2,1.6,1.5,2.5c0.3,0.9,0.4,2,0.3,2.8c-0.1,0.8-0.1,1.6,0,2.4
						c0.1,0.8,0.2,1.7,0.3,2.7c-0.8-0.6-1.5-1.4-1.9-2.3c-0.4-0.9-0.6-1.9-0.5-2.9s0.1-1.7,0.2-2.5
						C870.8,677.5,870.8,676.5,870.8,675.6z"/>
				</g>
				<g id="Group_59">
					<path id="Vector_95" class="st21" d="M874.4,677.6c0.7,0.6,1.1,1.5,1.4,2.4c0.2,0.9,0.2,1.9-0.1,2.8c-0.3,0.9-0.6,1.3-0.6,2.1
						c-0.1,0.7-0.1,1.5-0.1,2.4c-0.8-0.5-1.3-1.4-1.5-2.3c-0.1-0.5-0.1-1-0.1-1.5c0.1-0.5,0.2-0.9,0.4-1.2c0.2-0.7,0.3-1.3,0.5-2.1
						C874.3,679.3,874.3,678.5,874.4,677.6z"/>
				</g>
				<g id="Group_60">
					<path id="Vector_96" class="st21" d="M878,683.7c0.5,0.1,0.8,0.2,1.1,0.4c0.3,0.2,0.5,0.4,0.6,0.7c0.1,0.3,0.2,0.6,0.2,0.9
						c0,0.3-0.1,0.7-0.4,1.2c-0.6-0.1-0.8-0.2-1.1-0.4c-0.3-0.2-0.5-0.4-0.6-0.7c-0.1-0.3-0.2-0.6-0.2-0.9S877.8,684.2,878,683.7z"
						/>
				</g>
				<g id="Group_61">
					<path id="Vector_97" class="st21" d="M881.5,684.4c0.6,0.1,0.8,0.3,1.1,0.6c0.3,0.2,0.5,0.5,0.6,0.8c0.1,0.3,0.2,0.6,0.2,1
						c0,0.3-0.1,0.8-0.4,1.2c-0.6-0.1-0.8-0.3-1.1-0.6c-0.3-0.2-0.5-0.5-0.6-0.8c-0.1-0.3-0.2-0.6-0.2-1S881.3,684.9,881.5,684.4z"
						/>
				</g>
				<g id="Group_62">
					<path id="Vector_98" class="st21" d="M883.9,684.7c0.6,0.8,1.1,1.7,1.6,2.4c0.5,0.7,1,1.4,1.6,2c0.6,0.6,1.3,1.3,1.8,2.1
						c0.6,0.8,1.1,1.5,1.5,2.5c-1-0.3-1.9-0.8-2.7-1.3c-0.8-0.6-1.5-1.1-2.2-1.9c-0.7-0.8-1.3-1.7-1.5-2.7
						C883.6,686.7,883.6,685.7,883.9,684.7z"/>
				</g>
				<g id="Group_63">
					<path id="Vector_99" class="st21" d="M854.5,709.3c0.1,0.8,0.3,1.6,0.4,2.4c0.2,0.8,0.4,1.6,0.6,2.3c0.3,0.8,0.6,1.5,0.8,2.2
						c0.2,0.8,0.4,1.5,0.4,2.4l-0.1,0.1c-0.7-0.6-1.2-1.2-1.6-2c-0.4-0.8-0.5-1.6-0.6-2.4c-0.1-0.8-0.2-1.7-0.3-2.5
						c0-0.8,0-1.7,0.1-2.5H854.5z"/>
				</g>
				<g id="Group_64">
					<path id="Vector_100" class="st21" d="M858.7,711.1c0.2,0.2,0.3,0.4,0.6,0.6c0.2,0.2,0.4,0.4,0.5,0.6c0.1,0.2,0.4,0.3,0.4,0.6
						c0,0.3,0,0.6-0.3,1l-0.1,0.1c-0.5-0.1-0.7-0.3-0.9-0.5c-0.2-0.2-0.1-0.5-0.2-0.8c-0.1-0.3-0.1-0.6-0.1-0.8
						c0-0.3-0.1-0.6-0.1-0.8L858.7,711.1z"/>
				</g>
				<g id="Group_65">
					<path id="Vector_101" class="st21" d="M864,715.7c0.1,0.3,0.3,0.8,0.5,1.1c0.1,0.3,0.3,0.8,0.4,1.1c0.1,0.3,0.4,0.7,0.4,1.1
						c0,0.4-0.1,0.8-0.4,1.2h-0.1c-0.4-0.3-0.6-0.7-0.8-1c-0.1-0.3-0.1-0.8-0.1-1.2c0-0.4,0-0.8,0-1.2
						C863.8,716.4,863.9,716.1,864,715.7L864,715.7z"/>
				</g>
				<g id="Group_66">
					<path id="Vector_102" class="st21" d="M897.8,710.4c0.6,1,1.1,2.1,1.7,3c0.1,0.2,0.3,0.5,0.5,0.6c0,0.1,0.1,0.1,0.1,0.1
						c-0.1,0-0.1,0-0.1-0.1c-0.1,0-0.1,0-0.2,0.1c-0.1,0.1-0.1,0.1-0.1,0.1s0,0.1,0,0c0,0,0-0.1,0-0.3c-0.1-0.6-0.2-1.1-0.4-1.7
						l-0.4-1.7c-0.1-0.3-0.1-0.6-0.1-1c0-0.1,0-0.1,0-0.2v-0.1c0-0.1,0.1-0.2,0.1-0.3c0.1-0.1,0.3-0.3,0.6-0.3c0.1,0,0.2,0,0.3,0
						c0.1,0,0.2,0.1,0.2,0.1c0.1,0.1,0.2,0.2,0.3,0.2c0.2,0.2,0.2,0.3,0.3,0.5c0.3,0.6,0.4,1.2,0.6,1.7c0.1,0.6,0.2,1.2,0.3,1.8
						l-0.1,0.1c-0.8-0.9-1.3-2-1.9-2.9c-0.1-0.1-0.1-0.2-0.1-0.2l0.1,0.1c0,0,0.1,0.1,0.1,0.1s0.2,0,0.3,0c0.1,0,0.4-0.1,0.5-0.3
						c0.1-0.1,0.1-0.1,0.1-0.1c0,0.2,0,0.5,0.1,0.8c0,0.6,0.1,1.1,0.1,1.7c0.1,0.6,0.1,1.2,0.1,1.8c0,0.1,0,0.3-0.1,0.6
						c0,0,0,0.1-0.1,0.1c0,0.1-0.1,0.1-0.1,0.2c-0.1,0.1-0.2,0.1-0.4,0.1c-0.1,0-0.1,0-0.2-0.1c-0.1-0.1-0.2-0.2-0.3-0.3
						c-0.2-0.3-0.3-0.6-0.5-0.8C898.4,712.5,898.1,711.4,897.8,710.4L897.8,710.4z"/>
				</g>
				<g id="Group_67">
					<path id="Vector_103" class="st21" d="M900.3,706c0.3,0.6,0.6,1.3,0.8,1.9c0.3,0.6,0.5,1.3,0.8,2c0.2,0.7,0.6,1.3,0.7,2
						c0.1,0.7,0.1,1.4-0.1,2.2l-0.1,0.1c-0.6-0.6-0.9-1.2-1.1-1.9c-0.3-0.6-0.3-1.4-0.4-2.1c-0.1-0.7-0.2-1.4-0.4-2.1
						c-0.1-0.7-0.2-1.4-0.3-2.1L900.3,706z"/>
				</g>
				<g id="Group_68">
					<path id="Vector_104" class="st21" d="M904.5,707.8c0.3,0.6,0.5,1.2,0.7,1.7c0.2,0.6,0.4,1.2,0.6,1.8c0.2,0.6,0.6,1.2,0.6,1.8
						c0.1,0.6,0.1,1.2-0.2,1.9H906c-0.5-0.6-0.8-1.1-1.1-1.7c-0.3-0.6-0.2-1.2-0.3-1.9c-0.1-0.6-0.1-1.2-0.2-1.9
						c-0.1-0.6-0.1-1.2-0.1-1.9H904.5z"/>
				</g>
				<g id="Group_69">
					<path id="Vector_105" class="st21" d="M907.9,705.4c0.4,0.8,0.7,1.5,0.9,2.4c0.3,0.8,0.4,1.7,0.6,2.5c0.1,0.8,0.3,1.7,0.1,2.6
						c-0.1,0.8-0.4,1.7-1,2.4h-0.1c-0.2-0.9-0.2-1.7-0.3-2.5c-0.1-0.8,0.1-1.6,0.1-2.4c0-0.8,0-1.6-0.1-2.4
						c-0.1-0.8-0.2-1.7-0.3-2.4L907.9,705.4z"/>
				</g>
				<g id="Group_70">
					<path id="Vector_106" class="st21" d="M913.3,707.6c0.4,0.6,0.7,1.3,0.9,2c0.2,0.7,0.4,1.5,0.4,2.3c0,0.8,0,1.6-0.4,2.3
						c-0.4,0.7-0.8,1.4-1.5,1.7l-0.1-0.1c0.1-0.8,0.2-1.5,0.4-2.1c0.1-0.6,0.4-1.2,0.6-1.9c0.1-0.7,0.1-1.4,0.1-2.1
						c0-0.7-0.2-1.4-0.3-2.1H913.3z"/>
				</g>
				<g id="Group_71">
					<path id="Vector_107" class="st21" d="M916.3,706.2c0.1,1,0.3,1.9,0.4,2.9c0.1,1,0.2,1.9,0.3,2.9c0.1,1,0.3,1.9,0.1,2.9
						c-0.1,1-0.3,1.9-0.7,2.9h-0.1c-0.4-1-0.5-1.9-0.6-2.9c-0.1-1,0.1-1.9,0.1-2.8c0.1-1,0.1-1.9,0.1-2.9l0.1-2.9L916.3,706.2z"/>
				</g>
				<g id="Group_72">
					<path id="Vector_108" class="st21" d="M903.8,661.3c0.3,0.4,0.6,0.8,0.8,1.3c0.3,0.4,0.5,0.9,0.8,1.3c0.2,0.4,0.6,0.8,0.6,1.4
						c0,0.3,0,0.6-0.1,0.8c-0.1,0.3-0.1,0.6-0.4,0.9l-0.2,0.1c-0.4-0.1-0.6-0.3-0.8-0.5c-0.2-0.2-0.4-0.4-0.6-0.6
						c-0.3-0.4-0.2-1-0.3-1.5c-0.1-0.5-0.1-1-0.1-1.5c0-0.5-0.1-1-0.1-1.5L903.8,661.3z"/>
				</g>
				<g id="Group_73">
					<path id="Vector_109" class="st21" d="M907.1,656.7c0.4,0.8,0.6,1.5,1,2.3c0.3,0.8,0.6,1.5,0.8,2.3c0.3,0.8,0.7,1.5,0.8,2.3
						c0,0.4,0,0.8,0,1.2c-0.1,0.4-0.1,0.8-0.3,1.3l-0.2,0.1c-0.4-0.3-0.6-0.7-0.9-1c-0.2-0.3-0.4-0.8-0.6-1.1
						c-0.4-0.8-0.3-1.6-0.4-2.4s-0.2-1.6-0.3-2.4c-0.1-0.8-0.1-1.7-0.1-2.4L907.1,656.7z"/>
				</g>
				<g id="Group_74">
					<path id="Vector_110" class="st21" d="M907.1,646.2c0.8,1.2,1.5,2.5,2.2,3.8c0.6,1.3,1.2,2.7,1.7,4.1c0.5,1.4,1.1,2.8,1.2,4.3
						c0.1,0.8,0.1,1.5,0,2.2c-0.1,0.8-0.2,1.5-0.4,2.2h-0.2c-0.6-1.4-1.1-2.8-1.4-4.2c-0.3-1.4-0.4-2.8-0.7-4.2
						c-0.3-1.4-0.6-2.8-1.1-4.2C908,648.9,907.5,647.6,907.1,646.2L907.1,646.2z"/>
				</g>
				<g id="Group_75">
					<path id="Vector_111" class="st21" d="M909.9,641.7c1.7,1.7,3.1,3.7,4.3,6c0.6,1.1,1.1,2.2,1.5,3.4c0.4,1.1,0.8,2.4,1.1,3.6
						c0.3,1.2,0.4,2.5,0.3,3.8s-0.4,2.5-0.6,3.6c-0.5,2.3-0.8,4.6-1.2,7h-0.2c-0.8-2.4-0.9-4.8-0.7-7.3c0.1-1.2,0.4-2.4,0.6-3.5
						c0.2-1.1,0.2-2.2,0.1-3.4c-0.1-1.1-0.3-2.3-0.7-3.4c-0.3-1.2-0.7-2.3-1.1-3.3c-0.9-2.2-2.1-4.3-3.5-6.2L909.9,641.7z"/>
				</g>
				<g id="Group_76">
					<path id="Vector_112" class="st21" d="M887.8,621.4c0.5,0.2,1,0.4,1.5,0.6c0.5,0.2,1,0.4,1.4,0.5c0.1,0,0.2,0,0.2,0
						s-0.1,0-0.1,0.1c-0.1,0.1-0.1,0.1-0.1,0.1c0,0.1,0,0-0.1-0.1c0-0.1-0.1-0.2-0.1-0.3c-0.2-0.4-0.4-0.9-0.7-1.3
						c-0.1-0.2-0.2-0.5-0.3-0.7c-0.1-0.1-0.1-0.3-0.2-0.5v-0.1c0-0.1,0-0.1,0-0.1c0-0.1,0-0.1,0-0.1c0-0.1,0-0.1,0.1-0.2
						c0.1-0.3,0.4-0.3,0.6-0.3c0.3,0,0.4,0.1,0.4,0.1c0.1,0.1,0.1,0.1,0.1,0.1c0.3,0.3,0.4,0.4,0.6,0.6c0.2,0.2,0.3,0.4,0.5,0.6
						c0.6,0.9,1.1,1.8,1.6,2.8c-0.9-0.6-1.7-1.4-2.4-2.1l-0.6-0.6c-0.2-0.1-0.4-0.3-0.5-0.4c0,0,0,0.1,0.3,0.1
						c0.2,0,0.4-0.1,0.6-0.3c0.1-0.1,0.1-0.1,0.1-0.2c0-0.1,0-0.1,0-0.1v-0.1c0,0,0.1,0.1,0.1,0.3l0.4,0.7c0.2,0.5,0.5,1,0.7,1.5
						c0.1,0.1,0.1,0.3,0.1,0.5c0,0.2,0.1,0.3,0,0.7c0,0.1-0.1,0.3-0.4,0.5c-0.2,0.1-0.3,0.1-0.5,0.1c-0.3,0-0.4-0.1-0.6-0.1
						c-0.6-0.3-1-0.6-1.4-1C888.5,622.2,888.1,621.8,887.8,621.4z"/>
				</g>
				<g id="Group_77">
					<path id="Vector_113" class="st21" d="M888,615.9c0.7,0.4,1.3,0.9,1.9,1.5c0.6,0.6,1.1,1.1,1.6,1.7c0.5,0.6,1,1.2,1.4,1.9
						c0.4,0.7,0.8,1.3,1.1,2.1c-0.7-0.4-1.3-0.9-1.9-1.5c-0.6-0.6-1.1-1.1-1.6-1.7c-0.5-0.6-1-1.2-1.4-1.9
						C888.6,617.4,888.2,616.7,888,615.9z"/>
				</g>
				<g id="Group_78">
					<path id="Vector_114" class="st21" d="M887.8,612.4c1.2,0.1,2.2,0.6,3.3,1.2c1.1,0.6,2,1.3,2.8,2.1c1.6,1.7,2.7,3.9,2.7,6.3
						c-0.6-1-1.1-1.9-1.8-2.8c-0.6-0.9-1.3-1.7-2-2.5c-0.7-0.8-1.5-1.5-2.4-2.2C889.6,613.7,888.7,613.1,887.8,612.4z"/>
				</g>
				<g id="Group_79">
					<path id="Vector_115" class="st21" d="M889.6,611.4c1.3,0.1,2.5,0.6,3.6,1.2c1.1,0.6,2.2,1.5,3.1,2.4c1.8,2,2.7,4.6,2.5,7.1
						c-0.4-1.2-0.9-2.3-1.5-3.3c-0.6-1-1.3-2-2-2.9c-0.8-0.9-1.6-1.7-2.6-2.4C891.7,612.7,890.7,612,889.6,611.4z"/>
				</g>
				<g id="Group_80">
					<path id="Vector_116" class="st21" d="M893.1,610.3c1.3,0.5,2.4,1.2,3.4,2.1c1,0.9,1.9,1.9,2.7,3c0.8,1.1,1.3,2.4,1.8,3.6
						c0.4,1.2,0.7,2.6,0.6,3.9c-0.6-1.2-1.1-2.4-1.7-3.5c-0.6-1.1-1.2-2.2-1.9-3.3c-0.7-1-1.5-2.1-2.2-3
						C894.9,612.3,894,611.4,893.1,610.3z"/>
				</g>
				<g id="Group_81">
					<path id="Vector_117" class="st21" d="M872.1,602.4c0.6-0.4,1.3-0.6,2-0.6c0.7-0.1,1.5,0.1,2.1,0.3c1.3,0.5,2.5,1.5,2.9,2.9
						c-0.6-0.3-1.2-0.6-1.8-0.9c-0.6-0.3-1.1-0.5-1.7-0.7c-0.6-0.2-1.1-0.3-1.8-0.6L872.1,602.4z"/>
				</g>
				<g id="Group_82">
					<path id="Vector_118" class="st21" d="M874.8,600.2c0.6-0.4,1.2-0.6,1.9-0.6s1.3,0.1,2,0.5c1.2,0.6,2.1,1.9,2,3.2
						c-0.5-0.4-0.9-0.8-1.4-1.1c-0.4-0.3-0.8-0.6-1.3-0.8c-0.4-0.3-0.9-0.5-1.5-0.6C876,600.6,875.4,600.4,874.8,600.2z"/>
				</g>
				<g id="Group_83">
					<path id="Vector_119" class="st21" d="M872.7,596.9c0.8-0.3,1.8-0.3,2.7-0.3c0.9,0.1,1.8,0.3,2.7,0.7c0.8,0.4,1.6,0.9,2.3,1.6
						c0.6,0.6,1.2,1.4,1.5,2.3c-0.8-0.5-1.5-1-2.2-1.4c-0.7-0.4-1.5-0.8-2.2-1.2c-0.8-0.3-1.5-0.6-2.3-0.9
						C874.4,597.4,873.6,597.2,872.7,596.9z"/>
				</g>
				<path id="Vector_120" class="st1" d="M729.1,578.2c-1.3,0-2.3,3.2-3.9,7.5c-4,11.6-4.1,9.3-6,16.2c-0.9,3.2-2.4,8.9-3.3,16.2
					c-1.8,14.2-0.8,27.6,0.6,27.7c0.8,0.1,1.5-4.8,2.3-4.7c0.8,0.1,0.9,5.1,1,6.1c0.5,16.3,17,36.5,19,35.5c0.6-0.3-0.4-1.9,0.4-2.4
					c2.9-2.1,20.8,18.4,22.7,16.9c0.7-0.6-1.6-3.6-0.8-4.4c2.6-2.7,29.9,24,37.4,18.9c1.1-0.8,2-2.4-0.3-26.3
					c-1.4-14.6-1.6-13.1-1.5-15.2c0.7-14.4,9.2-26.6,16.1-36.3c5.2-7.3,8.6-10.6,9.2-17.2c0.6-7.2-2.7-13.3-1.9-13.6
					c1.1-0.5,6.9,10.2,6.9,10.2s-7.1-11.8-6.3-12.5c0.6-0.4,5,5.9,5.7,5.4c0.9-0.6-2-10.2-7.9-11.6c-2.2-0.5-4.1,0.3-4.6,0.6
					c-6.7,2.8-17.4,2.8-33.8,2.8c0,0-25.8,0.1-41.7-9.5c-1.8-1-2.9-2-2.9-2C730.9,582.7,730.7,578.3,729.1,578.2z"/>
			</g>
			<g id="mouse">
				<path id="Vector_121" class="st24" d="M784.6,547.5c-0.1-1.2,4-3,8.1-2.6c3.6,0.5,6.6,2.7,6.4,3.7c-0.2,0.9-2.9,0.4-4.2,2.4
					c-0.5,0.8-0.4,1.3-1.1,1.9c-0.7,0.6-1.9,1-2.8,0.6c-1-0.4-0.8-1.5-1.5-2.8C787.9,548.2,784.7,548.6,784.6,547.5z"/>
				<path id="Vector_122" class="st25" d="M795.8,551.3c0.5-0.6,0.8-1.2,0.7-1.3c-0.1-0.1-0.6,0.3-1.2,0.9c-0.5,0.6-0.8,1.2-0.7,1.3
					C794.8,552.3,795.3,551.9,795.8,551.3z"/>
				<g id="Group_84">
					<path id="Vector_123" class="st21" d="M767.2,558.1c-0.1,0.9,0,2.1,0.4,3.6c0.6,2.1,1.8,3.5,2,3.9c2.3,2.8,5.4,3.5,6.4,3.7
						c2.5,0.5,4.5,0.1,6.1-0.3c2.9-0.7,7.9-2.7,8.5-5.6c0.1-0.3,0.1-1,0.4-1c0.3-0.1,0.5,1.6,1.5,3c0.8,1,1.6,1.6,3,2.4
						c1.3,0.8,2.6,1.5,4.5,1.7c0.8,0.1,2.9,0.3,5.2-0.7c3.2-1.5,4.3-4.4,4.6-5.1"/>
					<path id="Vector_124" class="st21" d="M767.3,558.1c0.3,2.4,1.1,4.6,2.5,6.4c0.3,0.4,0.7,0.8,1.1,1.2c0.4,0.3,0.8,0.7,1.3,1
						c0.9,0.6,1.9,1.1,3,1.5c1.1,0.3,2.2,0.6,3.3,0.7c1.1,0.1,2.3-0.1,3.5-0.3c1.2-0.3,2.3-0.6,3.4-1.2c1.1-0.5,2.1-1.1,2.9-1.9
						c0.4-0.3,0.8-0.8,1.1-1.2c0.1-0.2,0.2-0.4,0.3-0.7c0.1-0.1,0.1-0.2,0.1-0.3c0-0.1,0.1-0.2,0.1-0.4c0-0.1,0.1-0.3,0.1-0.6
						c0-0.1,0.1-0.2,0.2-0.4c0.1-0.1,0.1-0.2,0.4-0.3c0.2-0.1,0.6-0.1,0.9,0c0.4,0.2,0.5,0.4,0.6,0.6s0.1,0.2,0.1,0.3l0.2,0.5
						c0.2,0.6,0.4,1,0.7,1.5c0.6,0.9,1.2,1.5,2.2,2l1.5,0.8c0.5,0.3,1,0.5,1.5,0.7c0.5,0.2,1,0.3,1.5,0.5c0.6,0.1,1.1,0.2,1.6,0.2
						c1.1,0.1,2.2-0.1,3.2-0.4c2.1-0.7,3.9-2.4,5-4.4l0.2,0.1c-0.5,2.4-2.1,4.6-4.6,5.9c-1.2,0.6-2.5,0.9-3.9,1c-0.7,0-1.3,0-2-0.1
						c-0.7-0.1-1.3-0.3-2-0.5c-0.6-0.2-1.2-0.6-1.8-0.8c-0.6-0.3-1.1-0.6-1.6-1c-0.6-0.3-1.1-0.7-1.6-1.2c-0.5-0.5-0.9-1.1-1.3-1.7
						c-0.3-0.6-0.6-1.2-0.7-1.8l-0.1-0.4l-0.1-0.1c0-0.1,0,0.1,0.3,0.2c0.2,0.1,0.5,0.1,0.7,0c0.1-0.1,0.2-0.2,0.2-0.2
						c0.1-0.1,0-0.1,0,0c0,0.1-0.1,0.2-0.1,0.3c0,0.1-0.1,0.3-0.1,0.5c-0.1,0.2-0.1,0.3-0.2,0.6c-0.1,0.3-0.3,0.6-0.6,0.9
						c-0.4,0.6-1,1-1.5,1.3c-1.1,0.7-2.2,1.2-3.4,1.7c-1.1,0.5-2.3,0.8-3.5,1.2c-1.2,0.3-2.4,0.7-3.6,0.8c-1.3,0.1-2.6,0.1-3.9-0.2
						c-2.5-0.6-4.8-2.2-6.2-4.4c-1.3-2.2-1.9-4.8-1.3-7.3L767.3,558.1z"/>
				</g>
				<path id="Vector_125" class="st1" d="M789,552.5c-1.5-1.5-1.4-2.2-2.4-3.3c-2-2.2-5.3-2.4-7.6-2.5c-2.5-0.1-4,0.4-6.2,1.2
					c-0.4,0.1-1.4,0.5-1.4,0.8c0.1,0.6,2.7,0.5,2.8,1c0.1,0.6-2.5,0.7-4.4,2.4c-1.9,1.7-2.3,3.9-2.5,4.6c-0.7,3.6,1.1,6.4,1.5,7.1
					c0.4,0.6,1.8,2.6,4.3,3.7c2.9,1.2,5.5,0.7,7.9,0.1c1.4-0.3,7.8-1.8,8.8-5.5c0.2-0.7,0.2-1.7,0.5-1.7c0.4-0.1,0.6,1.6,1.4,3.1
					c1.5,2.8,4.6,3.8,5.5,4.2c1.1,0.4,3.2,1.2,5.6,0.5c2.5-0.7,4.1-2.4,4.4-2.8c1.7-2,1.7-3.9,2.8-4.1c1-0.1,1.5,1.6,2,1.4
					c0.8-0.2,0.8-4.2-1.1-7.6c-1.6-2.8-4.1-4.2-5-4.6c-1.3-0.7-3.2-1.6-5.4-1.3c-1.1,0.1-2.7,0.7-4.1,1.9c-0.8,0.7-1.1,1.2-2.2,2.1
					c-0.9,0.7-1.4,1-2.1,1.1C791,554.6,790,553.5,789,552.5z"/>
				<path id="Vector_126" class="st25" d="M790,552.2c0.1-0.1-0.2-0.7-0.7-1.3c-0.5-0.6-1-1-1.1-0.9c-0.1,0.1,0.2,0.7,0.7,1.3
					C789.3,551.9,789.8,552.3,790,552.2z"/>
			</g>
			<g id="eyes">
				<path id="Vector_127" class="st26" d="M775.9,529.6c0,8.2-6.9,15.5-15.2,15.3c-7.3-0.1-13.1-6-14.2-12.6
					c-1.5-8.5,5.2-17.9,14.2-18.1C768.9,514.1,775.9,521.3,775.9,529.6z"/>
				<path id="Vector_128" class="st27" d="M829.9,530.7c-0.1,3.4-2,6-2.9,7.2c-0.8,1.2-5.3,7-11.8,7.1c-7.1,0.1-14.6-6.3-14.6-14.7
					c0-7.8,6.5-14.7,14.6-14.7C824.3,515.4,830.2,524.1,829.9,530.7z"/>
				<path id="Vector_129" class="st25" d="M762,538.6c4.5,0,8.2-3.7,8.2-8.3c0-4.6-3.7-8.3-8.2-8.3c-4.5,0-8.2,3.7-8.2,8.3
					C753.8,534.9,757.5,538.6,762,538.6z"/>
				<path id="Vector_130" class="st25" d="M813.6,538.6c4.5,0,8.2-3.7,8.2-8.3c0-4.6-3.7-8.3-8.2-8.3c-4.5,0-8.2,3.7-8.2,8.3
					C805.4,534.9,809.1,538.6,813.6,538.6z"/>
				<path id="Vector_131" class="st1" d="M762.5,532.6c0.8-1.7,3.4-2,5-1.5c2.5,0.7,3.4,3.1,4.1,5.1c0.4,1.1,0.8,1.9,0.3,2.6
					c-0.8,1.3-3.7,0.7-4.2,0.6c-0.7-0.1-2.2-0.5-3.5-1.7C764,537.4,761.4,534.7,762.5,532.6z"/>
				<path id="Vector_132" class="st1" d="M759.3,525.2c0.1,0.1,1,1.2,0.4,2.4c-0.6,1.2-2.5,1.7-3.6,1c-0.8-0.5-1.1-1.5-1-2.3
					c0.1-0.9,0.9-1.7,2-1.9"/>
				<path id="Vector_133" class="st1" d="M820.6,532c0.4,0.2,1.4,0.6,2.1,1.5c0.4,0.6,0.6,1,0.9,1.9c0.6,1.5,0.8,2.4,0.6,2.8
					c-0.6,0.9-2.4,0.8-3.4,0.6c-2.5-0.6-4.1-2.6-4.7-4.4c-0.3-0.8-0.6-1.7-0.1-2.4C816.8,530.9,819.2,531.5,820.6,532z"/>
				<path id="Vector_134" class="st1" d="M808.5,524.7c1.5-0.6,2.9-0.4,3.6,0.4c0.4,0.5,0.4,1.1,0.4,1.3c0,1.2-0.9,1.9-1,2
					c-0.3,0.2-1.1,0.8-2,0.6c-0.6-0.1-0.9-0.4-1.1-0.6c-0.8-0.8-0.6-2-0.6-2.1"/>
				<path id="Vector_135" class="st28" d="M775,525.9c-0.3,0.2-2.7-5.3-8.6-7.6c-1.1-0.4-5-1.9-9.3-0.6c-7.3,2.1-9.9,10-10.4,11.4
					c-0.5,1.5-0.6,2.4-0.6,2.4s-0.4-8.7,4.6-13.8c3.2-3.2,8.7-5.3,14.1-3.7C773.1,516.5,775.4,525.7,775,525.9z"/>
				<path id="Vector_136" class="st28" d="M829.2,530.1c-1.3,0.2-1.5-7.9-7.4-11.1c-4.1-2.3-9-0.9-9.9-0.6c-7.7,2.1-10.4,10-11,11.4
					c-0.6,1.5-0.6,2.4-0.6,2.4c-0.1,0-0.4-8.7,4.9-13.8c3.3-3.2,9.3-5.3,14.9-3.7c4.8,1.4,8.7,5.1,9.7,9.5
					C830.5,527.1,830,530,829.2,530.1z"/>
				<path id="Vector_137" class="st28" d="M772.6,539.2c-0.1-0.1-0.8,0.7-2.9,1.9c-1.6,1-2.8,1.6-4.3,2c-0.1,0.1-0.4,0.1-0.7,0.2
					c-1.1,0.3-2.5,0.4-6.4,0.1c-2.3-0.1-2.6-0.3-2.9-0.4c-0.9-0.4-1.2-1-2.6-1.7c-0.3-0.2-1.6-0.8-1.8-0.6c-0.2,0.3,1.3,1.7,2.4,2.6
					c2.8,2.1,7.1,3,10.9,2C769.6,544,772.8,539.3,772.6,539.2z"/>
				<path id="Vector_138" class="st28" d="M824.6,540.3c-0.3-0.8-2.4-0.6-2.5-0.6c-1.7,0.1-2.5,1-3.9,1.8c-2,1-4,1-6,0.9
					c-3.9-0.1-6.2-1.6-6.4-1.2c-0.2,0.4,2,2.4,4.8,3.5c1.1,0.4,3.8,1.4,7,0.7C821.6,544.6,825.1,541.5,824.6,540.3z"/>
			</g>
			<g id="bow">
				<path id="Vector_139" class="st29" d="M790.7,564.6c-0.2,0-0.2,0.7-0.7,1.2c-0.3,0.3-0.5,0.3-1,0.6c-0.9,0.5-1,0.6-1.8,1
					c-0.8,0.4-1.7,0.8-3.1,1.3c-1,0.3-2.5,0.8-5.6,1.6c-2.8,0.7-3.7,0.8-3.9,1.4c-0.1,0.8,1.5,1.1,2.2,2.6c0.6,1.4-0.1,3-0.7,4.2
					c-0.5,0.8-1.3,1.9-2.5,3c-4.3,4.2-8.4,3.1-18.7,4.2c-7.2,0.8-11.9,1.9-12.3,0.2c-0.3-1.4,2.3-3.5,1.9-4.3
					c-0.4-0.7-2.6,0.8-5.9,1.7c-4.6,1.2-6.9,0.2-7.1,1c-0.4,1.6,9.2,7.5,20.5,11.2c8,2.6,14.5,3.5,21.3,4.2c3.9,0.4,9.3,1,16.3,0.9
					c3.9-0.1,5.8-0.1,7.9-0.4c4.1-0.8,5.2-1.8,15.2-6.4c6-2.7,8-3.5,11.5-6c2.3-1.7,6.4-4.9,6-6c-0.5-1.5-9.6,2.2-9.7,1.7
					c-0.1-0.5,8.6-4.4,8.5-5c-0.1-0.4-5.3,1.9-11.1,0.3c-2.1-0.6-2.2-1.1-2.2-1.3c0-1.4,6.7-2.6,6.6-3c0-0.3-2.3,0.4-5.4-0.1
					c-1.2-0.2-2.1-0.3-3.1-0.8c-0.4-0.1-0.6-0.3-0.9-0.5c-2.5-1.5-2.9-2.3-4-2.4c-0.7,0-0.6,0.3-2.2,0.8c0,0-1.5,0.4-3.1,0.5
					c-1.6,0-2.9-0.5-5-1.3c0,0-2.2-0.8-5-2.8c-0.6-0.4-1.2-0.8-1.5-1.5c-0.1-0.1-0.1-0.1-0.4-0.8
					C790.9,564.7,790.8,564.6,790.7,564.6z"/>
				<g id="Group_85">
					<path id="Vector_140" class="st1" d="M758.8,467.1c2,4.4,3.9,9.1,5.7,14.1c1.3,3.5,2.3,6.8,3.3,10"/>
					<path id="Vector_141" class="st1" d="M758.8,467.1c1,1.9,1.9,3.9,2.8,5.8c0.9,1.9,1.8,3.9,2.6,6s1.7,4,2.2,6.1
						c0.6,2.1,1.1,4.2,1.4,6.3l-0.1,0.1c-1.1-1.9-1.8-3.9-2.6-5.9c-0.8-2-1.3-4.1-2-6.1c-0.7-2-1.4-4-2.2-6c-0.7-2-1.5-4-2.3-6
						L758.8,467.1z"/>
				</g>
				<g id="Group_86">
					<path id="Vector_142" class="st1" d="M753.3,474c2.9,2,6.7,5.2,10.2,9.8c2.4,3.2,4.1,6.2,5.2,8.7"/>
					<path id="Vector_143" class="st1" d="M753.3,473.9c1.8,1,3.4,2.2,5,3.5c1.6,1.3,3.1,2.8,4.5,4.3c1.4,1.5,2.9,3,3.8,4.9
						c1,1.8,1.8,3.8,2.1,5.9l-0.2,0.1c-1.3-1.6-2.5-3.3-3.6-4.8c-1.2-1.6-2.1-3.3-3.3-5c-1.2-1.6-2.5-3.1-3.9-4.6
						c-1.4-1.5-2.9-2.8-4.5-4.2L753.3,473.9z"/>
				</g>
				<g id="Group_87">
					<path id="Vector_144" class="st1" d="M753.7,482.8c2.1,1.1,4.4,2.5,6.8,4.2c2.4,1.7,4.4,3.4,6.2,5"/>
					<path id="Vector_145" class="st1" d="M753.8,482.7c1.3,0.6,2.5,1.1,3.6,1.7c1.2,0.6,2.3,1.3,3.5,2.1c1.1,0.8,2.3,1.4,3.3,2.4
						c1,0.9,1.9,1.9,2.6,3.1l-0.1,0.1c-1.3-0.6-2.3-1.4-3.4-2.1c-1.1-0.8-2-1.7-3.1-2.5c-1-0.8-2.1-1.6-3.2-2.4
						c-1.1-0.8-2.2-1.5-3.3-2.2V482.7z"/>
				</g>
				<g id="Group_88">
					<path id="Vector_146" class="st1" d="M749.6,485.9c2,0.4,4.6,1.2,7.4,2.6c2.8,1.3,5,2.8,6.6,4.1"/>
					<path id="Vector_147" class="st1" d="M749.6,485.9c1.3,0.2,2.6,0.5,3.9,0.8c1.3,0.3,2.5,0.8,3.7,1.3c1.2,0.5,2.5,1,3.5,1.8
						c1.1,0.8,2,1.7,2.8,2.8l-0.1,0.1c-1.3-0.5-2.4-1.1-3.5-1.7c-1.1-0.6-2.2-1.3-3.3-1.9c-1.1-0.6-2.2-1.2-3.4-1.7
						c-1.2-0.5-2.4-0.9-3.6-1.3L749.6,485.9z"/>
				</g>
				<g id="Group_89">
					<path id="Vector_148" class="st1" d="M747.9,490.6c2.1,0.1,4.7,0.6,7.6,1.6c1.8,0.6,3.4,1.3,4.7,2"/>
					<path id="Vector_149" class="st1" d="M747.9,490.6c1.1,0,2.2,0.1,3.2,0.1c1.1,0.1,2.2,0.3,3.2,0.6c1.1,0.3,2.2,0.4,3.2,1
						c1,0.5,1.9,1.1,2.7,1.9l-0.1,0.1c-1.1-0.1-2.1-0.5-3.2-0.8c-1-0.3-2-0.8-2.9-1.2c-1-0.3-2-0.7-3-1c-1.1-0.3-2.1-0.5-3.2-0.7
						L747.9,490.6z"/>
				</g>
				<g id="Group_90">
					<path id="Vector_150" class="st1" d="M823.4,492.2c2.2-1.9,5.5-4.4,9.7-6.5c3.6-1.7,6.9-2.7,9.5-3.3"/>
					<path id="Vector_151" class="st1" d="M823.4,492.2c1.3-1.3,2.7-2.5,4.1-3.6s3-2.1,4.6-3c1.6-0.9,3.2-1.8,5-2.3
						c1.8-0.6,3.6-0.9,5.5-0.9v0.1c-1.7,0.8-3.4,1.4-5,2.1c-1.7,0.7-3.4,1.2-5,2c-1.6,0.8-3.2,1.6-4.8,2.6c-1.5,1-3,2-4.4,3.1
						L823.4,492.2z"/>
				</g>
				<g id="Group_91">
					<path id="Vector_152" class="st1" d="M821.7,493.5c2.4-0.1,5.2-0.4,8.3-1.1c3.3-0.8,6.2-1.7,8.4-2.8"/>
					<path id="Vector_153" class="st1" d="M821.7,493.4c1.4-0.2,2.9-0.3,4.3-0.7c1.4-0.3,2.8-0.6,4.1-1c1.4-0.3,2.7-0.9,4.1-1.2
						c1.4-0.3,2.7-0.7,4.2-0.9l0.1,0.1c-1.2,0.9-2.5,1.6-3.9,2.1c-1.3,0.6-2.8,0.8-4.3,1c-1.4,0.3-2.9,0.5-4.3,0.6
						c-1.5,0.1-2.9,0.1-4.3,0.1L821.7,493.4z"/>
				</g>
				<g id="Group_92">
					<path id="Vector_154" class="st1" d="M820.3,498.2c2.2-0.8,4.7-1.7,7.6-2.4c2.5-0.6,4.9-1,7.1-1.3"/>
					<path id="Vector_155" class="st1" d="M820.3,498.1c1.1-0.6,2.3-1,3.5-1.5c1.2-0.5,2.4-0.9,3.6-1.2c1.2-0.3,2.5-0.8,3.7-1
						c1.3-0.1,2.5-0.2,3.9,0v0.1c-1.2,0.6-2.4,0.9-3.6,1.2c-1.2,0.3-2.5,0.4-3.7,0.7c-1.3,0.3-2.5,0.6-3.6,0.8
						c-1.2,0.3-2.5,0.6-3.6,1V498.1z"/>
				</g>
				<g id="Group_93">
					<path id="Vector_156" class="st1" d="M823.4,499.5c1.2-0.7,3-1.5,5.4-1.8c1.2-0.2,2.2-0.2,3.2-0.1"/>
					<path id="Vector_157" class="st1" d="M823.3,499.4c0.6-0.5,1.3-0.8,1.9-1.2c0.7-0.3,1.4-0.6,2.1-0.9c0.7-0.2,1.5-0.6,2.2-0.5
						c0.8,0,1.5,0.1,2.3,0.6v0.1c-0.8,0.3-1.5,0.5-2.2,0.7c-0.7,0.1-1.4,0.1-2.1,0.2s-1.4,0.3-2.1,0.4c-0.7,0.2-1.4,0.4-2.1,0.7
						L823.3,499.4z"/>
				</g>
				<g id="Group_94">
					<path id="Vector_158" class="st1" d="M837.9,472.5c-1.1,1.9-2.2,3.7-3.5,5.5c-1.3,1.8-2.6,3.5-4,5.2c-1.4,1.7-2.8,3.4-4.4,4.8
						c-1.6,1.5-3.4,2.8-5.3,3.9l-0.1-0.1c1.4-1.7,2.9-3.3,4.4-4.8c1.5-1.6,3.1-3,4.6-4.6c1.5-1.6,2.9-3.2,4.3-4.9
						c1.4-1.7,2.7-3.4,3.9-5.2L837.9,472.5z"/>
				</g>
			</g>
		</g>
		<g id="grassLeft">
			<path id="Vector_159" class="st30" d="M0,564.2c18.5-1.5,44-2.4,74.3-0.1c8.5,0.6,31.5,2.2,53.6,6.8c29.8,6.1,52,16.1,162.5,80.3
				c36.8,21.4,37.5,22.2,48.8,28.1c45.8,24.2,85.6,39.2,112.4,48.2H0C0,673,0,618.6,0,564.2z"/>
			<g id="Group_95">
				<path id="Vector_160" class="st31" d="M1,751.8c55.3-4.9,99.1-2.5,127.9,0.4c49.6,4.9,135.4,19.5,165.5,24.5
					c39.6,6.7,81.1,14.1,87.9,2.7c3.7-6.1-3.7-16.2-4-16.5c-5.3-7.3-16.5-12.3-27-12.8c-6-0.3-9.3,1-13-1.2
					c-4.7-2.8-5.2-8.5-5.5-11.1c-2.5-17.8-21.6-37.3-39.3-44c-10.5-4-21-5.8-21-5.8c-8-1.3-11.2-0.9-15.5-3
					c-7.8-3.7-10.5-10.9-12.2-14.1c-8.7-18.3-37.6-33.2-59.6-36.3c-27-4.3-46,0.1-46,0.1c-4.2,1-15.2,4-21.1-0.6
					c-2.2-1.6-2.8-3.6-3.2-4.3c-3.5-8.9-28.1-38.8-61.8-45c-6.8-1.3-25.3-3.7-49.5,6.4L1,751.8z"/>
				<path id="Vector_161" class="st32" d="M0.3,758.6c48-4.2,85.9-2.1,110.9,0.3c43.1,4.2,117.4,16.4,143.5,20.5
					c34.3,5.6,70.3,11.9,76.1,2.2c3.2-5.2-3.2-13.5-3.5-14c-4.7-6.1-14.3-10.4-23.3-10.7c-5.2-0.3-8.2,0.9-11.3-1
					c-4.2-2.4-4.5-7.1-4.8-9.4c-2.2-15-18.7-31.4-34.1-37c-9.2-3.4-18.2-4.8-18.2-4.8c-6.8-1-9.7-0.7-13.5-2.5
					c-6.8-3.1-9.2-9.2-10.5-11.9c-7.5-15.3-32.6-27.8-51.6-30.5c-23.5-3.3-40,0.4-40,0.4c-3.7,0.9-13.2,3.3-18.3-0.4
					c-1.8-1.3-2.5-3-2.7-3.6c-3-7.4-24.5-32.6-53.6-37.9c-6-1-22-3.1-42.8,5.4L0.3,758.6z"/>
				<path id="Vector_162" class="st33" d="M58.8,714.5c2.4-2.7,0.8-7.4-3.6-10.5s-9.9-3.5-12.3-0.8c-2.4,2.7-0.8,7.4,3.6,10.5
					S56.3,717.2,58.8,714.5z"/>
				<path id="Vector_163" class="st33" d="M232.5,737.8c2.4-2.7,0.8-7.4-3.6-10.5c-4.4-3.1-9.9-3.5-12.3-0.8
					c-2.4,2.7-0.8,7.4,3.6,10.5C224.6,740.1,230.1,740.5,232.5,737.8z"/>
				<path id="Vector_164" class="st33" d="M47.5,650.8c3.1-2.2,4.2-5.5,2.5-7.5c-1.7-1.9-5.6-1.7-8.7,0.5c-3.1,2.2-4.2,5.5-2.5,7.5
					C40.5,653.2,44.4,653,47.5,650.8z"/>
				<path id="Vector_165" class="st33" d="M169.4,695.5c3-2.3,4.2-5.4,2.8-6.9c-1.4-1.5-5-0.8-8,1.5c-3,2.3-4.2,5.4-2.8,6.9
					C162.9,698.4,166.5,697.8,169.4,695.5z"/>
			</g>
		</g>
		<g id="grassRight1">
			<path id="Vector_166" class="st9" d="M864.1,699.3c-4.8-9.5,3.5-26,11.3-34.9c3.5-4,12.2-13.8,24.5-15c3.5-0.3,5.8,0.1,8.2-1.8
				c4.7-4,0.2-11.7,1.7-21.4c1.7-10.7,9.3-17.7,15.8-23.3c4.3-4,15.8-14.3,31.3-14.9c5.7-0.1,8.2,1,10.7-1
				c5.7-4.6-2.3-14.6,0.7-27.7c3-13.5,17-26,30.6-28.8c10.8-2.2,16.8,2.4,21.5-2.1c5-4.8,0.2-12.2,1.8-23.3
				c2.8-19.5,23-31.2,25.8-32.9c16.2-9.5,22.8-1.8,47.8-8.2c26.8-7,22.8-16.6,49.1-23.5c23-5.9,31.8,0,54.6-9.5
				c13.5-5.6,12.5-8.6,22.7-12.3c24-8.8,34.8,5.9,67.8,7.6c30,1.6,46-9.2,83.9-8.6c11.2,0.1,25.5,1.3,27.5,7.6
				c0.3,0.9,0.2,1.6,0.2,1.8c-1,16.9,1.2,33.9-0.2,50.8c0,0.7-0.3,16.4-0.7,47.6c-0.3,29.3-0.5,44.3-0.5,63.6
				c0,37.3,0.8,35.7,0.2,37.6c-11.2,37.8-104.2,29.6-263.8,52c-55.5,7.7-111.2,12.5-166.7,21C918.7,707.3,872.6,715.7,864.1,699.3z"
				/>
			<g id="Vector_167">
				<image style="overflow:visible;" width="561" height="334" xlink:href="F7E8B20E.png"  transform="matrix(1 0 0 1 878 423)">
				</image>
			</g>
			<path id="Vector_168" class="st9" d="M1039.9,706.4c3.6-2,3.8-7.6,0.3-12.6c-3.4-5-9.1-7.4-12.7-5.4c-3.6,2-3.8,7.6-0.3,12.6
				C1030.6,705.9,1036.3,708.4,1039.9,706.4z"/>
			<path id="Vector_169" class="st9" d="M1191.9,560.4c5.8-0.6,10.2-4.2,9.7-8c-0.5-3.8-5.6-6.5-11.5-5.9s-10.2,4.2-9.7,8
				C1180.9,558.3,1186.1,561,1191.9,560.4z"/>
			<path id="Vector_170" class="st9" d="M1165.4,666.8c2.7-1.9,2.3-6.3-0.8-9.8s-7.8-4.9-10.5-3.1c-2.7,1.9-2.3,6.3,0.8,9.8
				C1158.1,667.3,1162.8,668.7,1165.4,666.8z"/>
			<path id="Vector_171" class="st9" d="M1342.7,503.1c3.3,0,6-2.7,6-5.9s-2.7-5.9-6-5.9c-3.3,0-6,2.7-6,5.9
				S1339.4,503.1,1342.7,503.1z"/>
			<path id="Vector_172" class="st9" d="M1210.5,566c3.3,0,6-2.7,6-5.9c0-3.3-2.7-5.9-6-5.9c-3.3,0-6,2.7-6,5.9
				C1204.5,563.3,1207.2,566,1210.5,566z"/>
			<path id="Vector_173" class="st9" d="M1352.7,633.2c4.2-3,5.8-7.4,3.6-9.8c-2.2-2.4-7.3-2-11.5,1c-4.2,3-5.8,7.4-3.6,9.8
				C1343.3,636.6,1348.5,636.1,1352.7,633.2z"/>
			<path id="Vector_174" class="st9" d="M1087.8,591.5c2.3,0,4.2-1.8,4.2-4c0-2.2-1.9-4-4.2-4s-4.2,1.8-4.2,4
				C1083.6,589.7,1085.5,591.5,1087.8,591.5z"/>
		</g>
		<g id="foreground">
			<path id="Vector_175" class="st34" d="M1402,680.6c-29-20.7-130.9-87.3-242.3-35.7c-30.1,14-54.8,33.7-74.1,53.2
				c-21.3,15.3-53.1,32.4-91.1,29.6c-12.8-0.9-16.2-3.4-60.6-19.3C849,678.1,827.1,674.9,807.3,690c-11.8,8.9-7.7,12.8-23.3,29.6
				c-40.3,43.3-99.9,52.8-143.2,25c-19-12.2-13.2-17.5-32.6-31.7C541.9,665,479.3,731,404,715.5c-6-1.2-19.2-4.5-35.1,1.3
				c-19.5,7.1-28,22.2-43.8,36.4c-2.8,2.5-30.5,26.8-63.3,28.2c-38,1.8-69.1-27.4-94.6-51.1c-23.8-22.3-18-24.7-33.1-35.1
				c-33.6-23-71.8-18-105.2-13.5c-12.3,1.8-22.1,3.9-28.8,5.5V885h1402V680.6z"/>
			<path id="Vector_176" class="st34" d="M829.8,679.8c-5.3-4.9-7.8-13.1-4.8-15.2c2.7-1.9,11,0.7,14.2,5.6c1.7,2.7,1.3,5.2,3,5.7
				c2.2,0.6,3.7-3,8.8-5.2c4.3-1.8,10.2-2.2,11.2-0.4c1.3,2.1-4,6.5-4.8,7.4c-2.3,2.1-9.3,8.2-18.5,6.5
				C833.8,683.3,830.8,680.6,829.8,679.8z"/>
			<path id="Vector_177" class="st30" d="M54.8,561.2c-5.3-4.9-7.8-13.1-4.8-15.2c2.7-1.9,11,0.7,14.2,5.6c1.7,2.7,1.3,5.2,3,5.6
				c2.2,0.6,3.7-3,8.8-5.2c4.3-1.8,10.2-2.2,11.2-0.4c1.3,2.1-4,6.5-4.8,7.4c-2.3,2.1-9.3,8.2-18.5,6.5
				C58.6,564.8,55.6,562.1,54.8,561.2z"/>
			<path id="Vector_178" class="st34" d="M378.5,712.3c-5.3-4.9-7.8-13.1-4.8-15.2c2.7-1.9,11,0.7,14.2,5.6c1.7,2.7,1.3,5.2,3,5.7
				c2.2,0.6,3.7-3,8.8-5.2c4.3-1.8,10.2-2.2,11.2-0.4c1.3,2.1-4,6.5-4.8,7.4c-2.3,2.1-9.3,8.2-18.5,6.5
				C382.5,715.7,379.5,713.1,378.5,712.3z"/>
		</g>
		<g id="grassRight0">
			<g id="Group_96">
				<path id="Vector_179" class="st17" d="M1401.5,886.6c0-106.3,0-212.4,0-318.7c-9.7-0.1-23.5,1-39,7.1
					c-18.5,7.3-30.1,18.1-37,24.5c-9.5,8.9-14.2,13.5-18,21.7c-6.8,15.2-3.2,27.4-9.3,30c-4.3,1.9-7.7-3.1-18.5-7.1
					c-10.7-4-19.8-3.6-25.2-3.4c-5.8,0.1-28,0.9-44.1,18.3c-3.3,3.6-10.3,11.1-13.3,22.9c-2.8,11.4,0.8,16.7-3.3,21.7
					c-4.8,5.9-12.3,2.1-29.8,4c-3,0.3-19.7,2.2-37.3,11.4c-13.3,7-22,15.3-24.7,18c-7.7,7.9-21.3,21.6-23.5,40.9
					c-0.7,5.6,0.2,7-1.3,9.7c-5.2,8.8-19.2,3.4-41.5,9.4c-6.5,1.8-15.8,4.3-25.5,11.7c-10,7.7-15.7,16.8-17.7,20.2
					c-3.2,5.4-6.2,10.4-8,18c-1.3,5.8-0.7,7.4-2.5,9.2c-4.5,4-12-3.4-26.5-4c-4.2-0.1-12.2,0.1-20.7,4.3c-3,1.5-10.2,5.1-15.8,13.1
					c-4.7,6.7-6.2,13.2-6.7,16.8h488.9V886.6z"/>
				<path id="Vector_180" class="st35" d="M1401,886.6c0-97.4,0-194.8,0-292.3c-8.5-0.1-20.8,1-34.3,6.5
					c-16.3,6.7-26.6,16.5-32.6,22.6c-8.3,8.2-12.5,12.3-15.8,19.9c-6,13.8-2.8,25-8.3,27.5c-3.8,1.6-6.8-3-16.3-6.5
					s-17.5-3.3-22.2-3.1c-5.2,0.1-24.6,0.9-39,16.8c-3,3.3-9.2,10.3-11.7,21c-2.5,10.4,0.7,15.3-3,19.9c-4.3,5.5-11,1.9-26.3,3.7
					c-2.7,0.3-17.3,2.1-33,10.6c-11.8,6.4-19.3,14.1-21.7,16.5c-6.8,7.1-18.8,19.8-20.7,37.5c-0.5,5.2,0.2,6.4-1.2,8.9
					c-4.7,8-16.8,3.1-36.6,8.6c-5.8,1.6-14,4-22.5,10.7c-8.8,7-13.8,15.5-15.6,18.6c-2.8,4.9-5.5,9.5-7,16.5
					c-1.2,5.2-0.7,6.8-2.2,8.3c-3.8,3.7-10.7-3.1-23.3-3.7c-3.7-0.1-10.7,0.1-18.3,3.9c-2.7,1.3-9,4.6-13.8,12
					c-4,6.1-5.3,12.2-5.8,15.5H1401V886.6z"/>
				<path id="Vector_181" class="st36" d="M1313.1,724.4c5.8-0.9,9.9-5,9.1-9.2c-0.8-4.2-6.2-6.9-12-6c-5.8,0.9-9.8,5-9.1,9.2
					C1301.9,722.6,1307.3,725.3,1313.1,724.4z"/>
				<path id="Vector_182" class="st36" d="M1190.3,802.6c2.7-3.3,1-8.6-3.9-11.8c-4.9-3.2-11.1-3.1-13.8,0.2
					c-2.7,3.3-1,8.6,3.9,11.8C1181.4,806,1187.6,805.9,1190.3,802.6z"/>
				<path id="Vector_183" class="st36" d="M1377.1,722.1c2.9-0.4,4.9-2.5,4.5-4.6c-0.4-2.1-3.1-3.5-6-3s-4.9,2.5-4.5,4.6
					C1371.5,721.2,1374.2,722.6,1377.1,722.1z"/>
				<path id="Vector_184" class="st36" d="M1326.7,798.2c3.2-0.5,5.3-2.9,4.8-5.4c-0.5-2.4-3.5-3.9-6.7-3.4
					c-3.2,0.5-5.3,2.9-4.8,5.4C1320.5,797.2,1323.5,798.8,1326.7,798.2z"/>
				<path id="Vector_185" class="st36" d="M1254.1,773.3c2.9-0.4,4.9-2.5,4.5-4.6c-0.4-2.1-3.1-3.5-6-3c-2.9,0.4-4.9,2.5-4.5,4.6
					C1248.5,772.4,1251.2,773.7,1254.1,773.3z"/>
			</g>
		</g>
	</g>
</g>
</svg>
