<svg width="1402" height="259" viewBox="0 0 1402 259" fill="none" xmlns="http://www.w3.org/2000/svg">
<g id="forest 2" clip-path="url(#clip0_8_2)">
<g id="foreground">
<path id="Vector" d="M1402 54.5862C1373.02 33.9219 1271.11 -32.6799 1159.7 18.9067C1129.56 32.8812 1104.91 52.6536 1085.6 72.1287C1064.28 87.4411 1032.47 104.538 994.506 101.713C981.683 100.821 978.352 98.2936 933.889 82.3865C848.96 52.059 827.145 48.937 807.328 63.9521C795.505 72.872 799.668 76.7373 784.014 93.5364C743.714 136.798 684.097 146.312 640.8 118.512C621.816 106.322 627.644 100.97 608.161 86.8465C541.882 38.9765 479.268 104.984 403.997 89.5224C398.002 88.3331 384.846 85.0625 368.86 90.8604C349.376 97.9963 340.883 113.011 325.063 127.283C322.232 129.811 294.588 154.043 261.782 155.53C223.814 157.313 192.673 128.175 167.194 104.389C143.381 82.0892 149.209 79.7106 134.055 69.3041C100.416 46.2611 62.2815 51.3156 28.8094 55.7756C16.4863 57.5596 6.66112 59.6408 0 61.2761V259H1402V54.5862Z" fill="#773657"/>
<path id="Vector_2" d="M829.809 53.843C824.481 48.937 821.983 40.7605 824.98 38.6792C827.645 36.7466 835.971 39.4225 839.135 44.3284C840.8 47.0044 840.467 49.5317 842.133 49.9777C844.297 50.5724 845.796 47.0044 850.958 44.7745C855.288 42.9905 861.117 42.5445 862.116 44.3284C863.448 46.4097 858.119 50.8697 857.287 51.7617C854.955 53.843 847.961 59.9382 838.802 58.3029C833.806 57.2622 830.809 54.5863 829.809 53.843Z" fill="#773657"/>
<path id="Vector_3" d="M378.518 86.2519C373.19 81.346 370.692 73.1694 373.689 71.0881C376.354 69.1554 384.68 71.8314 387.844 76.7374C389.509 79.4133 389.176 81.9406 390.841 82.3866C393.006 82.9813 394.505 79.4133 399.667 77.1833C403.997 75.3994 409.826 74.9534 410.825 76.7374C412.157 78.8187 406.828 83.2786 405.996 84.1706C403.664 86.2519 396.67 92.3471 387.511 90.7118C382.515 89.6712 379.518 87.1439 378.518 86.2519Z" fill="#773657"/>
</g>
</g>
<defs>
<clipPath id="clip0_8_2">
<rect width="1402" height="259" fill="white"/>
</clipPath>
</defs>
</svg>
