<?xml version="1.0" encoding="utf-8"?>
<!-- Generator: Adobe Illustrator 25.2.0, SVG Export Plug-In . SVG Version: 6.00 Build 0)  -->
<svg version="1.1" id="圖層_1" xmlns="http://www.w3.org/2000/svg" xmlns:xlink="http://www.w3.org/1999/xlink" x="0px" y="0px"
	 viewBox="0 0 1328 858" style="enable-background:new 0 0 1328 858;" xml:space="preserve">
<style type="text/css">
	.st0{clip-path:url(#SVGID_2_);}
	.st1{fill:#FFFFFF;}
	.st2{fill:#F9F7E5;}
	.st3{fill:#C69F8F;}
	.st4{fill:#BA9183;}
	.st5{fill:#7F425F;}
	.st6{fill:#ECDA9E;}
	.st7{fill:#F6E5AC;}
	.st8{fill:#DEA360;}
	.st9{fill:#EECB75;}
	.st10{fill:#EEEDDD;}
	.st11{fill:#97587D;}
	.st12{fill:#D78536;}
	.st13{fill:#BB651F;}
	.st14{fill:#D7883C;}
</style>
<g>
	<defs>
		<rect id="SVGID_1_" width="1328" height="858"/>
	</defs>
	<clipPath id="SVGID_2_">
		<use xlink:href="#SVGID_1_"  style="overflow:visible;"/>
	</clipPath>
	<g id="forest_1" class="st0">
		<rect class="st1" width="1328" height="858"/>
		<g id="background">
			<path id="Vector" class="st2" d="M1202.3-0.1c-57.6,203-130.7,276.6-200.7,291.9c-42.5,9.2-46.3-11.1-138.9-17.1
				c-161.2-10.4-252.3,39.7-297.5-4.8c-26-25.7-28.4-58.9-81.2-102.3c-41.8-34.3-73.8-51.4-97.3-65.9C358.1,84.1,321,54.2,285.4,0
				c159.3-0.1,318.7-0.1,478-0.2C909.7-0.2,1056-0.2,1202.3-0.1z"/>
			<path id="Vector_2" class="st1" d="M955.4,278.3c-4.3,0.7-13.7,0.6-32.3,0.4c-41.2-0.4-169.1-2.3-169.1-2.3
				c-122.1-1.9-78.7,1.4-117.8-0.1c-18.6-0.7-44.6-2.2-45.4,1.4c-0.5,2.2,8.8,5.3,23.8,10.4c63.3,21.3,59.5,20.5,63.3,21.5
				c24.9,6.3,31.4,2.7,94.3,4.2c50.6,1.2,101.3-2.2,151.7-1.3c3.8,0,11.4,0.3,18.6-3.5c4.3-2.2,5.5-4,17.2-17.4
				c8.2-9.5,10.7-12.1,9.6-13.7C968,275.7,962.4,277.2,955.4,278.3z"/>
			<g id="Group">
				<path id="Vector_3" class="st3" d="M0,596.4c2.5-0.6,6.3-1.6,11-2.5c69.7-13,132.7,16,182.2,46.1c0,0,81.1,40.2,154,68
					c105.2,40.4,202.5,22.3,303.5,6.8c425.9-65.6,650.7-40.1,675.9-127.7c0.5-1.9,0.9-3.4,1.1-4.9c1.3-10.6-0.2-19-0.7-21.3
					c-2.4-11.5,0.6-17.7,1.1-68.7c0.2-18.4-0.2-14.1,0-26.6c0.7-34.3,3.4-43.4,0-60.8c-2.7-13.9-4.5-23-10.6-29.1
					c-20.5-20.7-75,10-112,19.6c-69.7,18.2-103-0.9-228.4,2.9c-61.7,1.9-150.2,3.5-259.8,2.3c-103.2-43.8-187.4-68.3-245.9-82.4
					c-36.8-8.9-60.1-13-73.7-15.1c-3.9-0.6-8.5-1.3-13.9-2.1c-80.9-11.2-174.3-7.6-174.4-7.6c0,0,0,0,0,0
					c-63,0-132.7-4.5-209.3-13.6c0,1.9,0,4.2,0,6.8c0,2.6,0,4.5,0,4.6C-0.1,294.8-0.1,387,0,596.4z"/>
			</g>
			<path id="Vector_4" class="st4" d="M0.2,286.6c-0.5,4.3,0,8.8-0.2,13.1c0,0.3,0,1,0.5,1.4c0.6,0.6,1.6,0.4,5.2,0.1
				c0.8,0,1.4-0.1,2.2-0.1c4.6-0.6,12.5-0.1,12.5-0.1c9.6,0.6,19.3-0.1,28.9,0c25.4,0.1,80.9-1.7,120.4-2
				c20.2-0.1,49.2-0.1,84.7,1.1c8.4,0.1,19.8,0.3,33.2,0.4c35.6,0.3,48.5-0.1,71.3,0.9c17.1,0.7,33.8,2.6,33.8,2.6
				s10.7,1.1,20.2,2.4c28.4,4.2,65.9,20,88.5,29.3c0,0,33.2,13.8,80.9,32.8c31.6,12.5,47.4,18.8,55.5,21.4
				c41.3,13.6,73.8,14.4,165.3,15.5c67.6,0.9,101.3,1.3,106.8,1.1c68.8-1.4,189.7-2.4,418.7-1.1c0.2-7.5,0.3-17.8,0.3-30
				c0-13.9,0-21-0.3-22.3c-2.4-11.3-69.2-18.2-419.3,19c-44.3,0.9-88.5,1.7-132.8,2.6C641,338.4,505.2,302,369.4,265.7
				c-46.1-0.7-92.1-1.3-138.3-2c-20.1,2-40.3,4.2-60.4,6.2c-56.9-1.7-113.6-3.3-170.5-5c0,2.7,0,6.6,0,9.3
				C0.4,286.6,0.4,286.3,0.2,286.6z"/>
			<path id="Vector_5" class="st5" d="M1328.7,495.2c-31.3-2.9-206.9-18.4-343.1,2.1c-41.4,6.1-80.2,16-120.2,56.3
				c-25.4,25.6-30.6,52.3-69.3,92.9c-38.9,40.8-65.7,51.8-72.4,54.2c-27.5,10.4-51,9.1-66.8,5.9c-109.3-1.1-218.7-2.1-328-3.2
				c-109.9-1.1-219.8-2.1-329.7-3.2C-0.6,752.7-0.3,805.4,0,858c443.3,6.5,886.5,13,1329.8,19.5
				C1329.5,750.2,1329,622.7,1328.7,495.2z"/>
			<path id="Vector_6" class="st6" d="M1183.3,0c-6,21.3-10.2,38.8-13.1,50.4c-7.9,32.7-9.9,46-18.6,58.1
				c-7.4,10.2-15.6,14.4-15.6,14.4c-9.2,4.6-12,0.1-20.2,5.3c-8.4,5.3-13.6,15.3-16.1,20.3c-4.3,8.4-4.1,11.1-10.2,30.6
				c-6.2,19-7.6,19.7-17,48c-3.9,11.5-4.1,12.7-6.8,20.5c-14.8,43.7-23.8,52.2-23,60.2c1.3,12.7,27.3,23.1,136,12.1
				c31.4-0.1,62.6-0.4,94-0.6c18.6-2.2,37.2-4.5,55.8-6.6c0.3-104.2,0.8-208.4,1.1-312.5C1280.7,0,1231.9,0,1183.3,0z"/>
			<path id="Vector_7" class="st7" d="M1279.7,0c-2.2,3.9-4.4,7.8-6.6,11.7c-2.8,17.3-5.8,34.4-8.7,51.7c-3.6,11.4-7.4,22.8-11,34.2
				c-7.7,6.5-15.5,13.1-23.2,19.6c-10.6,3.3-21.3,6.6-31.9,9.9c-8,2.9-16.1,5.6-24.1,8.5c-8,16.3-16.2,32.4-24.3,48.7
				c-18.1,34.7-36.4,69.5-54.6,104.3c-1.7,2.3-4.4,5.9-8.2,9.7c-18.3,18.3-37.8,19.2-65.5,24.2c-18.5,3.3-31.5,5.8-46.4,11
				c-42.1,14.7-61.8,39.8-65.9,34.2c-4.7-6.5,23-35.6,52.5-98.9c20.8-44.8,33-86.3,62.2-113c4.6-4.2,10.9-12.3,21.3-16.6
				c8.8-3.7,13.1-2.2,22.6-5.5c0,0,12-4.2,23.8-15.4c15.9-15.3,17.5-33.9,29.8-65.1c5-13.1,13.4-31.9,26.7-52.9
				C1191.7,0,1235.7,0,1279.7,0z"/>
			<path id="Vector_8" class="st8" d="M0,265.3c-0.5,4.3,0,8.8-0.2,13.1c0,0.3,0,1,0.5,1.4c0.6,0.6,1.6,0.4,5.2,0.1
				c0.8,0,1.4-0.1,2.2-0.1c4.6-0.6,12.5-0.1,12.5-0.1c9.6,0.6,19.2-0.1,28.9,0c25.6,0.1,80.9-1.7,120.4-2
				c20.2-0.1,49.2-0.1,84.7,1.2c8.4,0.1,19.7,0.3,33.3,0.4c35.5,0.3,48.6-0.1,71.3,0.9c17.2,0.9,33.8,2.6,33.8,2.6
				s10.7,1.2,20.2,2.6c28.5,4.2,65.8,20,88.5,29.5c0,0,33.1,13.8,80.9,32.9c31.5,12.5,47.3,18.7,55.2,21.5
				c41.3,13.7,73.8,14.6,165.3,15.6c67.5,0.9,101.3,1.3,106.8,1.2c68.8-1.4,189.6-2.4,418.6-1.2c0.2-7.5,0.3-17.9,0.3-30.1
				c0-14,0-21-0.3-22.5c-2.4-11.4-69.2-18.3-419.3,19.2c-44.2,0.9-88.5,1.7-132.7,2.6C640.4,317.4,504.6,280.9,369,244.3
				c-46.1-0.7-92.1-1.3-138.2-2c-20,2-40.2,4.2-60.3,6.2c-56.8-1.7-113.6-3.3-170.4-5c0,2.7,0,6.6,0,9.4C0,265.3,0,265.1,0,265.3z"
				/>
			<path id="Vector_9" class="st7" d="M176.8,0c2.2,2.7,4.3,5.5,6.5,8.1c2.8,12,5.7,24.1,8.5,36c3.6,7.9,7.3,15.9,10.9,23.8
				c7.6,4.6,15.1,9.1,22.6,13.7c10.4,2.3,20.8,4.6,31.2,6.9c7.9,2,15.8,3.9,23.5,5.9c7.9,11.4,15.8,22.6,23.8,34
				c17.8,24.2,35.5,48.6,53.3,72.8c1.6,1.6,4.4,4,8,6.8c18,12.8,36.9,13.4,63.9,16.9c18,2.3,30.9,4,45.3,7.6
				c41.2,10.2,60.4,27.8,64.4,23.8c4.6-4.5-22.6-24.8-51.3-69c-20.3-31.3-32.2-60.2-60.7-78.8c-4.4-2.9-10.6-8.5-20.8-11.5
				c-8.7-2.6-12.8-1.4-22.1-3.7c0,0-11.7-2.9-23.2-10.8c-15.6-10.7-17.2-23.6-29-45.4c-5-9.1-13.1-22.2-26-36.9
				C262.8,0,219.7,0,176.8,0z"/>
			<path id="Vector_10" class="st6" d="M183,0c7.4,14.1,12.9,25.8,16.4,33.6c9.9,21.8,12.5,30.7,23.3,38.6
				c9.3,6.8,19.6,9.5,19.6,9.5c11.5,3,15,0.1,25.2,3.5c10.4,3.6,16.9,10.1,20.2,13.5c5.4,5.5,5,7.5,12.9,20.3
				c7.7,12.7,9.5,13.1,21.5,31.9c4.9,7.6,5.2,8.5,8.5,13.7c18.6,29.1,29.8,34.7,28.7,40.1c-1.6,8.5-34.2,15.3-170.2,8.1
				c-48.1-2.6-70.4,1.6-117.7-0.4c-29.2-1.2-53.7-3.1-71.4-4.7c0.5-34.1,0.7-68.7,0.7-103.6C0.7,68.9,0.5,34.2,0,0
				C61,0,121.9,0,183,0z"/>
			<path id="Vector_11" class="st9" d="M1328,312.6v52.3c-105.1-1-189.8,0-249.7,1.2c-52.8,1-105.5,2.4-185.5,2.2
				c-88.3-0.4-67.2-2.5-125.6-2.2c-58.5,0.3-72.6,2.3-100.8-3.9c-13.6-3-18.5-5.3-92.3-36.6c-39.3-16.6-59-24.9-86.4-35.6
				c-34.5-13.4-59.8-22.3-93.9-26.1c-9.6-1.2-16.2-1.4-29-1.9c-43.2-1.8-79.2-0.3-96,0.6c-4.9,0.3-8.3,0.5-9.5,0.6
				c-29.1,1.8-98,3.7-259.3,4.7c0-20.8,0-41.5-0.1-62.3c37.7-0.4,75.5-0.9,113.2-1.4c33.1-0.5,66.3-1,99.4-1.7c0,0,36.1-0.6,124,1.7
				c31.2,0.9,48.9,1.6,71.8,5.6c39.1,6.8,67.2,18.3,83.9,25.4c162.9,68,162.8,68,166.3,69.2c33.1,10.5,43.5,8.1,202.9,7.4
				c84.1-0.4,168.2,0.6,252.1,0.6C1163,312,1237,312.2,1328,312.6z"/>
			<path id="Vector_12" class="st10" d="M473.4,162c0-4.6,2.2-8.6,4.9-13.5c3-5.5,4.7-8.4,8-10.8c3.2-2.3,7.7-4,26.2-3.2
				c14.4,0.6,21.5,1,24.6,2.5c12.8,5.9,17.7,20.6,23,37.2c4.9,15,3.6,19.6,10.1,26.1c6,6.1,16.7,11.4,25.1,8.6
				c5.7-1.7,4.6-5.2,11-8.5c2.7-1.3,5.8-2.2,28.7-0.6c12.3,0.9,13.2,1.3,14.5,2c7.9,4.6,5.7,13.4,13.7,17.2c4.4,2,5.7-0.3,12.3,1.6
				c9.3,2.6,14.8,9.5,16.9,12.3c5.2,6.6,2.7,7.8,8.5,15.6c2.4,3.2,9.6,13,16.4,12c2.1-0.3,4.1-1.7,6.2-0.7c0.8,0.4,1.4,1,2.5,3.5
				c2.7,5.8,2.4,7.6,4.6,10.1c1.9,2,3.2,2.2,3.2,2.7c-0.3,2.4-25.1-0.1-55.7-0.1c-19.9,0-45.1,1-60.1,0.6c-0.9,0-4.4-0.1-9-0.1
				c-10.1-0.1-13.7,0.3-16.7,0.3c-9.3-0.1-13.1-4.6-28.1-12.1c-14.4-7.4-15.8-5.8-24.1-10.4c-12.3-6.6-12.6-11.7-44.2-53.9
				c-5.7-7.5-9.6-15.9-15.3-23.3C476.7,171.2,473.5,167.5,473.4,162z"/>
			<path id="Vector_13" class="st4" d="M410,302.4c-0.2,25.2-0.3,50.3-0.3,75.5c-0.6,4.8,1.1,9.2,4.7,11.2c0.6,0.4,3,1.7,6,1.3
				c2.7-0.3,4.3-1.7,5-2.5c4.4-3.9,3.3-9.9,3.2-10.8c0.3-24.9,0.5-49.9,0.8-74.8"/>
			<path id="Vector_14" class="st4" d="M472,317.5c-0.2,14.8-0.3,29.7-0.3,44.5c-0.6,2.9,1.1,5.5,4.6,6.6c0.6,0.3,3,1,6,0.7
				c2.5-0.1,4.3-1,4.9-1.4c4.3-2.3,3.3-5.9,3-6.5c0.3-14.7,0.5-29.4,0.8-44.1"/>
			<path id="Vector_15" class="st4" d="M550.7,409.8c2.6,0,4.7-2.3,4.7-5c0-2.8-2.1-5-4.7-5c-2.6,0-4.7,2.3-4.7,5
				C545.9,407.5,548.1,409.8,550.7,409.8z"/>
			<path id="Vector_16" class="st4" d="M296.7,364.8c2.6,0,4.7-2.3,4.7-5s-2.1-5-4.7-5c-2.6,0-4.7,2.3-4.7,5
				S294.1,364.8,296.7,364.8z"/>
			<path id="Vector_17" class="st4" d="M438.8,440.2c2.2,0,3.9-1.6,3.9-3.6c0-2-1.8-3.6-3.9-3.6s-3.9,1.6-3.9,3.6
				C434.9,438.6,436.6,440.2,438.8,440.2z"/>
			<path id="Vector_18" class="st4" d="M675.6,459.3c2.2,0,3.9-2,3.9-4.5c0-2.5-1.8-4.5-3.9-4.5s-3.9,2-3.9,4.5
				C671.7,457.3,673.4,459.3,675.6,459.3z"/>
			<path id="Vector_19" class="st4" d="M411.4,504.2c2.6,0,4.7-2.3,4.7-5c0-2.8-2.1-5-4.7-5c-2.6,0-4.7,2.3-4.7,5
				C406.6,501.9,408.8,504.2,411.4,504.2z"/>
			<path id="Vector_20" class="st4" d="M570.2,427.3c2.2,0,3.9-2,3.9-4.5c0-2.5-1.8-4.5-3.9-4.5c-2.2,0-3.9,2-3.9,4.5
				C566.3,425.3,568,427.3,570.2,427.3z"/>
			<path id="Vector_21" class="st4" d="M26.3,515.5c2.2,0,3.9-2,3.9-4.5c0-2.5-1.8-4.5-3.9-4.5s-3.9,2-3.9,4.5
				C22.4,513.5,24.2,515.5,26.3,515.5z"/>
			<path id="Vector_22" class="st4" d="M29.8,369.5c3,0,5.5-2.3,5.5-5c0-2.8-2.5-5-5.5-5c-3,0-5.5,2.3-5.5,5
				C24.3,367.3,26.8,369.5,29.8,369.5z"/>
			<path id="Vector_23" class="st4" d="M828.3,444.6c2.2,0,3.9-2,3.9-4.5c0-2.5-1.8-4.5-3.9-4.5c-2.2,0-3.9,2-3.9,4.5
				C824.3,442.6,826.1,444.6,828.3,444.6z"/>
			<path id="Vector_24" class="st4" d="M551.3,421.9c1.8,0,3.3-1.4,3.3-3s-1.5-3-3.3-3c-1.8,0-3.3,1.4-3.3,3
				S549.5,421.9,551.3,421.9z"/>
			<path id="Vector_25" class="st4" d="M824.3,482.4c4.1,0,7.4-3,7.4-6.8s-3.3-6.8-7.4-6.8c-4.1,0-7.4,3-7.4,6.8
				S820.2,482.4,824.3,482.4z"/>
		</g>
		<g id="grassLeft">
			<path id="Vector_26" class="st11" d="M0,547c17.5-1.4,41.6-2.3,70.4-0.1c8,0.6,29.8,2.2,50.8,6.6c28.2,5.9,49.2,15.6,154,77.8
				c34.9,20.8,35.5,21.5,46.2,27.2c43.4,23.5,81.1,38.1,106.5,46.7H0C0,652.5,0,599.7,0,547z"/>
			<g id="Group_2">
				<path id="Vector_27" class="st12" d="M0.9,728.9c52.4-4.8,93.9-2.5,121.1,0.4c47,4.8,128.2,18.9,156.8,23.8
					c37.5,6.5,76.8,13.7,83.3,2.6c3.5-5.9-3.5-15.7-3.8-16c-5-7.1-15.6-12-25.6-12.4c-5.7-0.3-8.8,1-12.3-1.2
					c-4.4-2.7-4.9-8.2-5.2-10.8c-2.4-17.3-20.5-36.2-37.2-42.7c-9.9-3.9-19.9-5.6-19.9-5.6c-7.6-1.3-10.6-0.9-14.7-2.9
					c-7.4-3.6-9.9-10.5-11.5-13.7c-8.2-17.7-35.6-32.1-56.5-35.2c-25.6-4.2-43.5,0.1-43.5,0.1c-3.9,1-14.4,3.9-20-0.6
					c-2.1-1.6-2.7-3.5-3-4.2c-0.7-1.6-20-36.3-58.5-43.7c-23.1-4.4-42.1,3-50.5,6.9C0.3,625.6,0.6,677.2,0.9,728.9z"/>
				<path id="Vector_28" class="st13" d="M0.3,735.5c45.4-4,81.4-2,105.1,0.3c40.9,4,111.2,15.9,136,19.9
					c32.5,5.5,66.6,11.5,72.1,2.2c3-5-3-13.1-3.3-13.5c-4.4-5.9-13.6-10.1-22.1-10.4c-4.9-0.3-7.7,0.9-10.7-1
					c-3.9-2.3-4.3-6.9-4.6-9.1c-2.1-14.6-17.7-30.4-32.3-35.9c-8.7-3.3-17.2-4.6-17.2-4.6c-6.5-1-9.1-0.7-12.8-2.5
					c-6.5-3-8.7-8.9-9.9-11.5c-7.1-14.8-30.9-27-48.9-29.5c-22.2-3.2-37.9,0.4-37.9,0.4c-3.5,0.9-12.5,3.2-17.4-0.4
					c-1.7-1.3-2.4-2.9-2.5-3.5c-2.4-4.2-18.4-30.9-50.8-36.8c-20.3-3.7-36.5,2.7-43.1,5.7C0.1,648.7,0.2,692.1,0.3,735.5z"/>
				<path id="Vector_29" class="st14" d="M55.7,692.7c2.3-2.6,0.8-7.2-3.4-10.2c-4.2-3-9.4-3.4-11.7-0.8c-2.3,2.6-0.8,7.2,3.4,10.2
					C48.2,694.9,53.4,695.3,55.7,692.7z"/>
				<path id="Vector_30" class="st14" d="M220.2,715.3c2.3-2.6,0.8-7.2-3.4-10.2c-4.2-3-9.4-3.4-11.7-0.8c-2.3,2.6-0.8,7.2,3.4,10.2
					C212.7,717.5,218,717.9,220.2,715.3z"/>
				<path id="Vector_31" class="st14" d="M45,630.9c2.9-2.1,4-5.4,2.4-7.2c-1.6-1.9-5.3-1.7-8.3,0.5c-2.9,2.1-4,5.4-2.4,7.2
					S42.1,633,45,630.9z"/>
				<path id="Vector_32" class="st14" d="M160.5,674.2c2.8-2.2,4-5.2,2.7-6.7c-1.4-1.4-4.8-0.8-7.6,1.4c-2.8,2.2-4,5.2-2.7,6.7
					C154.3,677.1,157.7,676.5,160.5,674.2z"/>
			</g>
		</g>
	</g>
</g>
<path id="Vector_177" class="st11" d="M31.2,543.5c-5.3-4.9-7.8-13.1-4.8-15.2c2.7-1.9,11,0.7,14.2,5.6c1.7,2.7,1.3,5.2,3,5.6
	c2.2,0.6,3.7-3,8.8-5.2c4.3-1.8,10.2-2.2,11.2-0.4c1.3,2.1-4,6.5-4.8,7.4c-2.3,2.1-9.3,8.2-18.5,6.5C35.1,547,32.1,544.4,31.2,543.5
	z"/>
</svg>
