<?xml version="1.0" encoding="utf-8"?>
<!-- Generator: Adobe Illustrator 25.2.0, SVG Export Plug-In . SVG Version: 6.00 Build 0)  -->
<svg version="1.1" xmlns="http://www.w3.org/2000/svg" xmlns:xlink="http://www.w3.org/1999/xlink" x="0px" y="0px"
	 viewBox="0 0 1290 900" style="enable-background:new 0 0 1290 900;" xml:space="preserve">
<style type="text/css">
	.st0{fill:#F9F7E5;}
	.st1{fill:#FFFFFF;}
	.st2{fill:#C69F8F;}
	.st3{fill:#BA9183;}
	.st4{fill:#7F425F;}
	.st5{fill:#F6E5AC;}
	.st6{fill:#ECDA9E;}
	.st7{fill:#DEA360;}
	.st8{fill:#EECB75;}
	.st9{fill:#EEEDDD;}
	.st10{fill:#97587D;}
	.st11{fill:#D78536;}
	.st12{fill:#BB651F;}
	.st13{fill:#D7883C;}
	.st14{fill:#D53E51;}
	.st15{fill:#962750;}
	.st16{fill:#A43565;}
</style>
<g id="background">
	<rect x="0" y="0.3" class="st0" width="1290" height="900"/>
	<path class="st1" d="M915,587.3c-3.9,0.4-12.5,0.4-29.4,0.3c-37.5-0.2-153.9-1.4-153.9-1.4c-111.1-1.1-71.7,0.9-107.3-0.1
		c-17-0.4-40.6-1.3-41.3,0.9c-0.4,1.3,8,3.2,21.6,6.2c57.6,12.9,54.1,12.3,57.6,12.9c22.6,3.8,28.6,1.6,85.8,2.5
		c46,0.7,92.1-1.3,138.2-0.8c3.5,0,10.3,0.2,17-2.1c3.8-1.3,5-2.5,15.6-10.6c7.5-5.7,9.8-7.3,8.8-8.3
		C926.5,585.7,921.3,586.6,915,587.3z"/>
	<g>
		<path class="st2" d="M2,771.6c2.4-0.4,6-0.9,10.6-1.5c67.2-7.8,128.1,9.6,175.8,27.9c0,0,78.3,24.2,148.5,41.1
			c108.2,26,292.9,4.1,292.9,4.1c266.8-25.7,653.6-36.6,656.3-66.1c0,0,0,0,0-27.6c0-6.2,0-12.4,0-18.6c0-6.1,0-31.6,0-31.6
			c0-6.2,0-12.3,0-18.5c0.1-12.3,0.2-16.5-0.1-23.5c-0.6-11.3-0.8-17-2.1-18.2c-9.2-8.7-38.5-0.1-118.8,11.1
			c-14.7,2.1-22,3.2-28.2,3.7c-39.7,3-72.4-4.2-192.2-2c-59.5,1.1-145,2.1-250.7,1.4C594.4,626.8,513,612,456.6,603.5
			c-35.5-5.4-58-7.9-71.1-9.2c-24.5-2.5-77.9-7.1-181.8-5.9c-52.3,0.6-121.1,2.8-202,9.1C1.9,655.6,1.9,713.6,2,771.6z"/>
	</g>
	<path class="st3" d="M1.3,592.1c-0.5,2.6,0,5.3-0.1,7.9c0,0.2,0,0.6,0.4,0.9c0.6,0.3,1.6,0.3,5,0.1c0.7,0,1.4-0.1,2.1-0.1
		c4.5-0.4,12-0.1,12-0.1c9.3,0.3,18.6-0.1,28,0c24.6,0.1,78.1-1,116.3-1.2c19.5-0.1,47.5-0.1,81.8,0.7c8.1,0.1,19.1,0.2,32.1,0.3
		c34.3,0.2,46.9-0.1,68.9,0.6c16.6,0.5,32.6,1.5,32.6,1.5s10.4,0.7,19.6,1.5c27.5,2.5,63.6,12.1,85.5,17.8c0,0,32,8.4,78.2,19.8
		c30.6,7.6,45.8,11.4,53.5,13c39.9,8.3,71.3,8.7,159.8,9.4c65.3,0.5,98,0.7,103.2,0.7c66.4-0.8,183.3-1.5,404.6-0.7
		c0.2-4.5,0.4-10.8,0.4-18.2c0-8.5,0-12.7-0.3-13.5c-2.4-6.8-66.9-11-405.2,11.5c-42.7,0.5-85.5,1-128.2,1.5
		c-131.2-22-262.4-44.1-393.6-66.1c-44.5-0.4-89.1-0.8-133.6-1.2c-19.4,1.2-38.9,2.5-58.3,3.7c-54.9-1-109.8-2-164.7-3.1
		c0,1.6,0,4,0,5.7C1.3,592.1,1.3,591.9,1.3,592.1z"/>
	<path class="st4" d="M1290.8,667.8c-30.3-1.5-201.1-9.9-333.3,1.2c-40.2,3.4-78,8.6-116.8,30.2c-18.2,10.2-25.8,20.6-43.6,34.2
		c-6.6,5.1-14.4,10.1-23.8,15.8c-8.6,5.1-36.4,21.5-70.3,29.1c-14.5,3.3-35.6,6.2-64.9,3.2c-94.5-9.6-307.6-83.6-432-107.5
		c-45.2-8.7-115.7-17.9-206-10.8C0.1,685.2,0,707.4,0,729.5c0,44.5,0,89.1,0.1,133.6c429.8,0,859.7,0,1289.5,0
		C1290,798,1290.4,732.9,1290.8,667.8z"/>
	<path class="st5" d="M1214.8,414.4c-2.4,2.5-4.7,5-7.1,7.5c-3.4,11.2-6.8,22.4-10.3,33.6c-4.1,7.4-8.2,14.7-12.3,22.1
		c-8.1,4.1-16.3,8.3-24.4,12.4c-11.1,2-22.1,3.9-33.2,5.9c-8.4,1.7-16.7,3.4-25.1,5.1c-8.8,10.4-17.5,20.9-26.3,31.3
		c-19.6,22.3-39.3,44.7-58.9,67c-1.8,1.5-4.8,3.7-8.8,6.2c-19.4,11.6-39.5,11.8-68.2,14.5c-19.1,1.8-32.8,3.1-48.1,6.2
		c-43.9,8.8-64.8,24.8-69,21c-4.7-4.3,24.7-22.8,56.6-63.5c22.6-28.9,36.2-55.7,66.9-72.6c4.8-2.6,11.5-7.8,22.4-10.4
		c9.3-2.3,13.6-1.2,23.5-3.1c0,0,12.5-2.5,24.9-9.6c16.9-9.7,18.9-21.8,32.3-41.9c5.6-8.5,14.6-20.5,28.8-34
		c59.1-33.9,111.2-48.2,131-37C1213.5,377.1,1225.1,385.3,1214.8,414.4z"/>
	<path class="st6" d="M1139.1,418c-5.9,13-10.3,23.6-13.1,30.8c-8.4,21.4-7.7,29.8-18.7,35.5c-4,2.1-13.7,6-24.7,8.9
		c-6.6,1.8-7.5,1.6-11.1,3c-10.7,4.3-15.8,11.6-18.4,15.4c-2.3,3.5-1.2,2.8-8,15.6c-6.2,11.6-7.5,12-17.1,29.3
		c-3.9,7.1-4.1,7.7-6.8,12.5c-14.8,26.7-23.8,31.9-22.9,36.8c1.3,7.8,27.3,14.1,135.7,7.4c42.4-2.6,59.6,1.5,93.9-0.4
		c25.2-1.4,46.2-3.6,61.4-5.4c0-63,0-126,0-189c1.1-14.9,0.8-27.5,0-37.2c-0.8-10.7-2.1-17.7-9.5-23.5c-1-0.8-5.9-4.5-15.5-6.8
		c-23.8-5.8-49.2,3.5-58.1,6.7C1162.8,373.7,1144.4,407.2,1139.1,418z"/>
	<path class="st7" d="M1.3,579.5c-0.5,2.6,0,5.3-0.1,8c0,0.2,0,0.6,0.4,0.9c0.6,0.3,1.6,0.3,5,0.1c0.7,0,1.4-0.1,2.1-0.1
		c4.5-0.4,12.1-0.1,12.1-0.1c9.3,0.3,18.7-0.1,28.1,0c24.7,0.1,78.4-1,116.7-1.3c19.6-0.1,47.7-0.1,82.1,0.7
		c8.1,0.1,19.1,0.2,32.2,0.3c34.4,0.2,47-0.1,69.1,0.6c16.6,0.5,32.7,1.5,32.7,1.5s10.4,0.7,19.6,1.5c27.6,2.5,63.8,12.1,85.8,17.8
		c0,0,32.1,8.4,78.5,19.9c30.7,7.6,46,11.4,53.7,13c40.1,8.3,71.6,8.8,160.3,9.4c65.5,0.5,98.3,0.7,103.6,0.7
		c66.6-0.8,183.9-1.5,405.9-0.7c0.2-4.6,0.4-10.8,0.4-18.2c0-8.5,0-12.7-0.3-13.5c-2.4-6.9-67.2-11.1-406.5,11.5
		c-42.9,0.5-85.8,1-128.6,1.5c-131.6-22.1-263.2-44.2-394.9-66.2c-44.7-0.4-89.3-0.8-134-1.2c-19.5,1.2-39,2.5-58.5,3.7
		c-55.1-1-110.2-2-165.3-3.1c0,1.6,0,4,0,5.7C1.3,579.4,1.3,579.3,1.3,579.5z"/>
	<path class="st5" d="M115.9,385c3.3,9.2,6.5,18.3,9.8,27.5c4.1,6,8.3,12.1,12.4,18.1c8.6,3.5,17.2,7,25.9,10.4
		c11.9,1.8,23.7,3.5,35.6,5.3c9,1.5,17.9,3,26.9,4.5c9.1,8.6,18.1,17.2,27.2,25.8c20.3,18.5,40.6,36.9,60.9,55.4
		c1.9,1.8,4.8,4.3,9.1,6.9c18.6,11.1,40.6,9.2,73.2,11.1c4.1,0.2,27.7,1.8,51.7,5.8c47,7.8,69,21.2,73.6,18.1
		c5.2-3.4-25.7-18.9-58.6-52.5c-23.3-23.8-36.9-45.8-69.4-60c-5.1-2.2-12.2-6.5-23.7-8.8c-9.9-2-14.6-1.1-25.2-2.9
		c0,0-13.3-2.2-26.5-8.2c-17.8-8.1-19.6-18-33.2-34.6c-5.7-7-15-16.9-29.8-28.1c-66-24.9-120.3-31.4-136.5-16.9
		C115.6,365.2,111.5,371.7,115.9,385z"/>
	<path class="st6" d="M143.5,363.9c25.3,15.8,35.7,30.6,40.4,41.5c0,0,4,19.6,21.6,30.6c8.6,5.4,18,7.6,18,7.6
		c10.6,2.4,13.9,0.1,23.3,2.8c9.7,2.8,15.6,8,18.6,10.7c5,4.4,4.7,5.9,11.9,16.1c7.1,10,8.7,10.4,19.7,25.2
		c4.5,6.1,4.8,6.7,7.8,10.8c17.1,23,27.5,27.5,26.5,31.7c-1.5,6.7-31.6,12.1-157,6.4c-36.2-0.1-72.4-0.2-108.6-0.3
		c-21.5-1.2-43-2.3-64.5-3.5c-0.4-74.3-0.9-148.7-1.3-223c23.8-8.3,42.3-7.2,51.1-6c18.1,2.3,30,9.1,52.2,21.9
		C114.9,342.9,128.9,352,143.5,363.9z"/>
	<path class="st8" d="M1289.4,608v31.6c-102-0.6-184.4,0-242.4,0.7c-51.4,0.6-102.4,1.5-180.2,1.3c-85.7-0.3-65.3-1.5-122-1.3
		c-56.8,0.2-70.5,1.4-97.9-2.4c-13.2-1.8-17.9-3.2-89.6-22.1c-38.1-10-57.4-15.1-83.9-21.5c-33.5-8.1-58-13.5-91.1-15.8
		c-9.3-0.7-15.8-0.8-28.2-1.1c-50.7-1.3-91.3,0.3-100.9,0.7c-0.7,0-1.1,0-1.6,0.1c-33.7,1.4-104.3,2.6-252.3,2.6
		c0-12.6,0-25.1,0-37.7c36.8-0.1,73.6-0.3,110.4-0.6c32.2-0.3,64.4-0.6,96.5-1c0,0,35.1-0.4,120.5,1c30.3,0.5,47.5,1,69.6,3.4
		c37.9,4.1,65.2,11.1,81.5,15.3c158.2,41.1,158.1,41.1,161.5,41.8c32.1,6.4,42.3,4.9,197.1,4.4c81.6-0.2,163.2,0.4,244.9,0.3
		C1129.2,607.7,1200.9,607.7,1289.4,608z"/>
	<path class="st9" d="M450.1,503c0-3.4,2.1-6.2,4.7-9.8c3-4,4.6-6.1,7.7-7.9c3-1.7,7.4-2.9,25.2-2.3c13.8,0.5,20.7,0.7,23.7,1.7
		c12.3,4.3,17,15,22.3,27c4.8,10.8,3.5,14.3,9.8,19c5.8,4.4,16,8.2,24.2,6.3c5.4-1.3,4.3-3.8,10.7-6.1c2.6-0.9,5.7-1.6,27.7-0.4
		c11.8,0.6,12.8,0.9,13.9,1.4c7.6,3.4,5.5,9.7,13.2,12.5c4.3,1.5,5.4-0.2,11.9,1.1c9,1.9,14.3,6.9,16.3,8.9
		c5.1,4.8,2.6,5.7,8.2,11.3c2.2,2.3,9.3,9.4,15.9,8.7c2-0.2,4-1.2,5.9-0.5c0.8,0.3,1.3,0.8,2.4,2.6c2.5,4.2,2.3,5.6,4.5,7.4
		c1.7,1.5,3.1,1.5,3,1.9c-0.4,1.8-24.1-0.1-53.7-0.1c-19.1,0-43.4,0.8-58,0.4c-0.9,0-4.2-0.1-8.6-0.1c-9.7-0.1-13.2,0.2-16.2,0.2
		c-8.9-0.1-12.6-3.3-27-8.8c-13.9-5.3-15.2-4.2-23.3-7.6c-11.8-4.9-12.1-8.5-42.6-39.2c-5.4-5.4-9.3-11.5-14.8-16.9
		C453.2,509.7,450.2,507,450.1,503z"/>
	<path class="st3" d="M418.5,601.8c-0.1,15.2-0.2,30.4-0.4,45.6c-0.6,2.9,1,5.5,4.3,6.8c0.6,0.2,2.7,1,5.5,0.8
		c2.4-0.2,3.9-1.1,4.5-1.5c4-2.3,3-6,2.8-6.6c0.2-15.1,0.5-30.1,0.7-45.2"/>
	<path class="st3" d="M475,610.9c-0.1,9-0.2,17.9-0.3,26.9c-0.6,1.7,1,3.3,4.2,4c0.6,0.1,2.7,0.6,5.4,0.5c2.4-0.1,3.8-0.6,4.5-0.9
		c3.9-1.4,3-3.5,2.8-3.9c0.2-8.9,0.5-17.8,0.7-26.7"/>
	<ellipse class="st3" cx="546.6" cy="663.6" rx="4.3" ry="3.1"/>
	<ellipse class="st3" cx="315.5" cy="636.4" rx="4.3" ry="3.1"/>
	<ellipse class="st3" cx="444.8" cy="682.9" rx="3.6" ry="2.2"/>
	<ellipse class="st3" cx="660.4" cy="693.9" rx="3.5" ry="2.7"/>
	<ellipse class="st3" cx="419.8" cy="720.6" rx="4.3" ry="3.1"/>
	<ellipse class="st3" cx="564.4" cy="674.6" rx="3.5" ry="2.7"/>
	<ellipse class="st3" cx="69.3" cy="727.8" rx="3.5" ry="2.7"/>
	<ellipse class="st3" cx="72.5" cy="639.3" rx="5" ry="3"/>
	<ellipse class="st3" cx="799.3" cy="685.1" rx="3.5" ry="2.7"/>
	<ellipse class="st3" cx="547.1" cy="672.2" rx="3.1" ry="1.9"/>
	<ellipse class="st3" cx="795.7" cy="706.4" rx="6.8" ry="4.1"/>
	<path class="st10" d="M-0.8,575.1c29.9-0.4,47.5-0.1,58.3,0.5c0,0,0.1,0,0.1,0c1.7,0.1,16.1,0.9,28.7,2.6c4.2,0.6,7.8,1.2,10.8,1.7
		c3.7,0.6,7.2,1.4,10.8,2.3c22.7,5.7,109.3,48.9,109.3,48.9c25.2,12.7,34.7,16.5,45.1,20c22,7.3,39.5,9.8,44.9,10.7
		c23.7,4.1,59.4,19.9,110,73.6c-40.4-5.3-81.6-10.4-123.5-15.2c-101.1-11.6-199-20.8-293.4-27.9C0,660.5,0,640.4,0.1,627.5
		c0-3.3,0.1-12-0.1-23.7C-0.2,591.7-0.5,581.7-0.8,575.1z"/>
	<path class="st10" d="M32.5,572.2c-4.1-2.8-5.8-7.7-3.7-8.9c2-1.2,8.3,0.5,10.6,3.3c1.3,1.6,0.9,3,2.2,3.3c1.6,0.3,2.8-1.8,6.6-3.1
		c3.3-1.1,7.6-1.3,8.4-0.3c1,1.2-3,3.9-3.7,4.3c-1.7,1.2-7.1,4.8-13.9,3.8C35.5,574.2,33.3,572.7,32.5,572.2z"/>
</g>
<g id="grassLeft">
	<g>
		<path class="st11" d="M0.6,726.1c40.8-4.3,73.5-2.8,96.1-0.5c28.1,2.8,69.9,9.5,122,18.4c29.1,5,59.7,10.6,64.7,2
			c2.7-4.6-2.7-12.1-2.9-12.5c-4-5.5-12.1-9.2-19.8-9.6c-4.4-0.2-6.9,0.7-9.6-0.9c-3.5-2.1-3.8-6.4-4.1-8.4
			c-1.8-13.4-15.9-28-28.9-33.1c-7.8-3-15.4-4.3-15.4-4.3c-5.8-1-8.2-0.6-11.5-2.2c-5.8-2.8-7.8-8.2-8.9-10.6
			c-6.4-13.7-27.7-24.9-43.9-27.3c-19.9-3-33.9,0.4-33.9,0.4c-3.1,0.7-11.2,3-15.5-0.4c-1.6-1.2-2.1-2.7-2.3-3.2
			c-2.6-6.8-20.8-28.3-45.5-33.9C23.5,595.9,8,601.3,0,605C0.2,645.4,0.4,685.7,0.6,726.1z"/>
		<path class="st12" d="M0.4,730.9c35.1-3.1,63.4-2,83.4-0.2c37.8,3.4,94,13.5,99.1,14.4c3.6,0.6,5.9,1,6.6,1.1
			c25.3,4.2,51.8,8.9,56.1,1.7c2.3-3.9-2.3-10.2-2.5-10.5c-3.4-4.6-10.5-7.8-17.2-8.1c-3.8-0.2-6,0.6-8.3-0.8
			c-3-1.8-3.3-5.4-3.5-7.1c-1.6-11.3-13.8-23.6-25.1-27.8c-6.7-2.6-13.4-3.6-13.4-3.6c-5.1-0.8-7.1-0.5-9.9-1.9
			c-5-2.3-6.7-6.9-7.7-8.9c-5.5-11.5-24.1-20.9-38.1-22.9c-17.3-2.5-29.4,0.4-29.4,0.4c-2.7,0.6-9.7,2.5-13.5-0.4
			c-1.4-1-1.8-2.3-2-2.7c-2.2-5.5-17.6-23.6-39.5-28.5c-4.5-1-17.8-3.3-35.5,2.8C0,643.2,0,658.6,0,674.1
			C0,693.2,0.2,712.1,0.4,730.9z"/>
		
			<ellipse transform="matrix(0.5229 -0.8524 0.8524 0.5229 -572.0183 364.0263)" class="st13" cx="39.2" cy="693" rx="4.9" ry="7.2"/>
		
			<ellipse transform="matrix(0.5229 -0.8524 0.8524 0.5229 -525.8428 481.5886)" class="st13" cx="167.3" cy="710.5" rx="4.9" ry="7.2"/>
		
			<ellipse transform="matrix(0.8535 -0.5212 0.5212 0.8535 -332.0496 112.773)" class="st13" cx="34.5" cy="646.8" rx="5.1" ry="3.5"/>
		
			<ellipse transform="matrix(0.8088 -0.5881 0.5881 0.8088 -376.6757 203.5307)" class="st13" cx="124.7" cy="681" rx="5.1" ry="2.7"/>
	</g>
	<path class="st10" d="M0.4,651"/>
</g>
<g id="grassRight0">
	<g>
		<path class="st14" d="M1289.8,817.9c0-71.6,0-143.2,0-214.7c-7.2-0.1-17.5,0.7-29,4.8c-13.8,4.9-22.5,12.2-27.6,16.6
			c-7,6-10.6,9.1-13.4,14.6c-5.1,10.2-2.4,18.4-7,20.2c-3.2,1.3-5.7-2.1-13.8-4.8c-8-2.7-14.8-2.4-18.7-2.3
			c-4.4,0.1-20.9,0.6-32.9,12.3c-2.5,2.4-7.7,7.5-9.9,15.4c-2.1,7.7,0.6,11.2-2.5,14.6c-3.6,4-9.2,1.4-22.2,2.7
			c-2.2,0.2-14.7,1.5-27.8,7.7c-10,4.7-16.3,10.3-18.3,12.1c-5.8,5.3-15.9,14.6-17.5,27.5c-0.5,3.8,0.2,4.7-1,6.5
			c-3.9,5.9-14.3,2.3-30.9,6.4c-4.9,1.2-11.8,2.9-18.9,7.9c-7.5,5.2-11.6,11.3-13.2,13.7c-2.4,3.6-4.6,7-6,12.1
			c-1,3.9-0.5,5.1-1.9,6.2c-3.3,2.7-9-2.3-19.8-2.7c-3-0.1-9,0.1-15.4,2.9c-2.3,1-7.5,3.4-11.7,8.9c-3.4,4.5-4.5,8.9-4.9,11.4
			H1289.8z"/>
		<path class="st15" d="M1289.4,817.9c0-65.6,0-131.3,0-196.9c-6.3-0.1-15.5,0.7-25.6,4.4c-12.2,4.5-19.8,11.2-24.3,15.2
			c-6.2,5.5-9.4,8.3-11.8,13.4c-4.5,9.3-2.1,16.9-6.2,18.5c-2.8,1.2-5.1-2-12.2-4.4c-7-2.4-13.1-2.2-16.5-2.1
			c-3.9,0.1-18.4,0.6-29.1,11.3c-2.2,2.2-6.8,6.9-8.7,14.1c-1.8,7,0.5,10.3-2.2,13.4c-3.2,3.7-8.2,1.3-19.6,2.5
			c-2,0.2-13,1.4-24.5,7.1c-8.8,4.3-14.4,9.5-16.2,11.1c-5.1,4.8-14,13.3-15.4,25.3c-0.4,3.5,0.2,4.3-0.9,6
			c-3.4,5.4-12.6,2.1-27.3,5.8c-4.3,1.1-10.4,2.7-16.7,7.2c-6.6,4.7-10.3,10.4-11.6,12.5c-2.1,3.3-4.1,6.4-5.3,11.1
			c-0.9,3.6-0.5,4.6-1.6,5.7c-2.9,2.5-7.9-2.1-17.4-2.5c-2.7-0.1-8,0.1-13.6,2.6c-2,0.9-6.7,3.1-10.4,8.1c-3,4.1-4,8.2-4.4,10.4
			H1289.4z"/>
		
			<ellipse transform="matrix(0.9967 -8.131764e-02 8.131764e-02 0.9967 -53.1553 101.7656)" class="st16" cx="1222.8" cy="703.5" rx="7.9" ry="5.2"/>
		
			<ellipse transform="matrix(0.3568 -0.9342 0.9342 0.3568 16.6663 1538.8173)" class="st16" cx="1125.8" cy="757.3" rx="5.2" ry="7.9"/>
		
			<ellipse transform="matrix(0.9967 -8.131764e-02 8.131764e-02 0.9967 -53.0787 105.6943)" class="st16" cx="1271.1" cy="704.5" rx="4" ry="2.6"/>
		
			<ellipse transform="matrix(0.9967 -8.071566e-02 8.071566e-02 0.9967 -56.9431 102.0084)" class="st16" cx="1233.3" cy="755.3" rx="4.4" ry="3"/>
		
			<ellipse transform="matrix(0.9967 -8.131764e-02 8.131764e-02 0.9967 -56.186 98.3489)" class="st16" cx="1179.3" cy="739" rx="4" ry="2.6"/>
	</g>
</g>
</svg>
