<?xml version="1.0" encoding="utf-8"?>
<!-- Generator: Adobe Illustrator 25.2.0, SVG Export Plug-In . SVG Version: 6.00 Build 0)  -->
<svg version="1.1" xmlns="http://www.w3.org/2000/svg" xmlns:xlink="http://www.w3.org/1999/xlink" x="0px" y="0px"
	 viewBox="0 0 841.9 595.3" style="enable-background:new 0 0 841.9 595.3;" xml:space="preserve">
<style type="text/css">
	.st0{fill:#F9F7E5;}
	.st1{fill:#FFFFFF;}
	.st2{fill:#C69F8F;}
	.st3{fill:#BA9183;}
	.st4{fill:#7F425F;}
	.st5{fill:#ECDA9E;}
	.st6{fill:#F6E5AC;}
	.st7{fill:#DEA360;}
	.st8{fill:#EECB75;}
	.st9{fill:#EEEDDD;}
	.st10{fill:#EEDEA7;}
	.st11{fill:#F4B257;}
	.st12{fill:#D04457;}
	.st13{fill:#CA7421;}
	.st14{fill:none;stroke:#000000;stroke-miterlimit:10;}
	.st15{fill:#651226;}
	.st16{fill:#D53E51;}
	.st17{fill:#50224F;}
	.st18{fill:#851C42;}
	.st19{fill:#97587D;}
	.st20{fill:#D78536;}
	.st21{fill:#E2A25D;}
	.st22{fill:#962750;}
	.st23{fill:#BB651F;}
	.st24{fill:#A43565;}
	.st25{fill:#D7883C;}
	.st26{fill:#773657;}
</style>
<g id="圖層_1">
	<image style="overflow:visible;" width="800" height="600" xlink:href="image.gif"  transform="matrix(1.0524 0 0 0.9921 0 0)">
	</image>
</g>
<g id="background">
	<path class="st0" d="M742.8,0c-96.9,134.7-169.7,173.1-202.9,186.1c-5.6,2.2-11.4,4.2-12.4,4.5c-38.3,13.4-143.7,45.1-188.6-3.3
		c-16.5-17.8-18-40.9-51.5-71c-28.5-25.6-45-31.6-61.7-45.7C212.1,59.2,195.5,38.8,186.3,0C371.8,0,557.3,0,742.8,0z"/>
	<path class="st1" d="M605.7,193.1c-2.7,0.5-8.7,0.4-20.5,0.3c-26.1-0.3-107.2-1.6-107.2-1.6c-77.4-1.3-49.9,1-74.7-0.1
		c-11.8-0.5-28.3-1.5-28.8,1c-0.3,1.5,5.6,3.7,15.1,7.2c40.1,14.8,37.7,14.2,40.1,14.9c15.8,4.4,19.9,1.9,59.8,2.9
		c32.1,0.8,64.2-1.5,96.2-0.9c2.4,0,7.2,0.2,11.8-2.4c2.7-1.5,3.5-2.8,10.9-12.1c5.2-6.6,6.8-8.4,6.1-9.5
		C613.7,191.3,610.1,192.3,605.7,193.1z"/>
	<g>
		<path class="st2" d="M0,413.8c1.6-0.4,4-1.1,7-1.7c44.2-9,84.1,11.1,115.5,32c0,0,51.4,27.9,97.6,47.2
			c66.7,28,128.4,15.5,192.4,4.7c270-45.5,412.5-27.8,428.5-88.6c2.3-8.9-1.2-7.5,0-65.8c1.1-56.2,4.7-72.4-5.8-80.9
			c-13.7-11.1-36,3.6-71,13.6c-44.2,12.6-65.3-0.6-144.8,2c-39.1,1.3-95.2,2.4-164.7,1.6c-65.4-30.4-118.8-47.4-155.9-57.2
			c-23.3-6.2-38.1-9-46.7-10.5c-16.1-2.8-51.2-8.2-119.4-6.7c-34.4,0.7-79.5,3.3-132.7,10.5C0,280.5,0,347.1,0,413.8z"/>
	</g>
	<path class="st3" d="M1.8,198.6c-0.3,3,0,6.1-0.1,9.1c0,0.2,0,0.7,0.3,1c0.4,0.4,1,0.3,3.3,0.1c0.5,0,0.9-0.1,1.4-0.1
		c2.9-0.4,7.9-0.1,7.9-0.1c6.1,0.4,12.2-0.1,18.3,0c16.1,0.1,51.2-1.2,76.2-1.4c12.8-0.1,31.1-0.1,53.6,0.8c5.3,0.1,12.5,0.2,21,0.3
		c22.5,0.2,30.7-0.1,45.1,0.6c10.8,0.5,21.4,1.8,21.4,1.8s6.8,0.8,12.8,1.7c18,2.9,41.7,13.9,56,20.4c0,0,21,9.6,51.2,22.8
		c20,8.7,30,13.1,35.1,14.9c26.1,9.5,46.7,10,104.6,10.8c42.8,0.6,64.1,0.9,67.6,0.8c43.5-1,120-1.7,264.9-0.8
		c0.1-5.2,0.2-12.4,0.2-20.9c0-9.7,0-14.6-0.2-15.5c-1.5-7.9-43.8-12.7-265.3,13.2c-28,0.6-56,1.2-84,1.8
		c-85.9-25.3-171.8-50.6-257.7-75.9c-29.2-0.5-58.3-0.9-87.5-1.4c-12.7,1.4-25.5,2.9-38.2,4.3c-36-1.2-71.9-2.3-107.9-3.5
		c0,1.9,0,4.6,0,6.5C1.9,198.6,1.9,198.4,1.8,198.6z"/>
	<path class="st4" d="M841.1,410.5c-19.8-1.1-131-6.9-217.2,0.8c-26.2,2.3-50.8,6-76.1,21.1c-16.1,9.6-19.4,19.6-43.9,34.8
		c-24.6,15.3-41.6,19.4-45.8,20.3c-17.4,3.9-32.3,3.4-42.3,2.2c-138.4-0.8-276.9-1.6-415.3-2.3L0,539.2l841.8,14.6
		C841.6,506.1,841.3,458.3,841.1,410.5z"/>
	<path class="st5" d="M750.2,0c-3.8,14.8-6.5,26.9-8.3,35c-5,22.7-6.3,31.9-11.8,40.3c-4.7,7.1-9.9,10-9.9,10
		c-5.8,3.2-7.6,0.1-12.8,3.7c-5.3,3.7-8.6,10.6-10.2,14.1c-2.7,5.8-2.6,7.7-6.5,21.2c-3.9,13.2-4.8,13.7-10.8,33.3
		c-2.5,8-2.6,8.8-4.3,14.2c-9.4,30.3-15.1,36.2-14.6,41.8c0.8,8.8,17.3,16,86.2,8.4c19.9-0.1,39.7-0.3,59.6-0.4
		c11.8-1.5,23.6-3.1,35.4-4.6c0.2-72.3,0.5-144.6,0.7-216.8C811.9,0,781,0,750.2,0z"/>
	<path class="st6" d="M811.3,0c-1.4,2.7-2.8,5.4-4.2,8.1c-1.8,12-3.7,23.9-5.5,35.9c-2.3,7.9-4.7,15.8-7,23.7
		c-4.9,4.5-9.8,9.1-14.7,13.6c-6.7,2.3-13.5,4.6-20.2,6.9c-5.1,2-10.2,3.9-15.3,5.9c-5.1,11.3-10.3,22.5-15.4,33.8
		c-11.5,24.1-23.1,48.2-34.6,72.4c-1.1,1.6-2.8,4.1-5.2,6.7c-11.6,12.7-24,13.3-41.5,16.8c-11.7,2.3-20,4-29.4,7.6
		c-26.7,10.2-39.2,27.6-41.8,23.7c-3-4.5,14.6-24.7,33.3-68.6c13.2-31.1,20.9-59.9,39.4-78.4c2.9-2.9,6.9-8.5,13.5-11.5
		c5.6-2.6,8.3-1.5,14.3-3.8c0,0,7.6-2.9,15.1-10.7c10.1-10.6,11.1-23.5,18.9-45.2c3.2-9.1,8.5-22.1,16.9-36.7
		C755.5,0,783.4,0,811.3,0z"/>
	<path class="st7" d="M0,184.1c-0.3,3,0,6.1-0.1,9.1c0,0.2,0,0.7,0.3,1c0.4,0.4,1,0.3,3.3,0.1c0.5,0,0.9-0.1,1.4-0.1
		c2.9-0.4,7.9-0.1,7.9-0.1c6.1,0.4,12.2-0.1,18.3,0c16.2,0.1,51.3-1.2,76.3-1.4c12.8-0.1,31.2-0.1,53.7,0.8
		c5.3,0.1,12.5,0.2,21.1,0.3c22.5,0.2,30.8-0.1,45.2,0.6c10.9,0.6,21.4,1.8,21.4,1.8s6.8,0.8,12.8,1.8c18.1,2.9,41.7,13.9,56.1,20.5
		c0,0,21,9.6,51.3,22.8C389,250,399,254.3,404,256.2c26.2,9.5,46.8,10.1,104.8,10.8c42.8,0.6,64.2,0.9,67.7,0.8
		c43.6-1,120.2-1.7,265.4-0.8c0.1-5.2,0.2-12.4,0.2-20.9c0-9.7,0-14.6-0.2-15.6c-1.5-7.9-43.9-12.7-265.8,13.3
		c-28,0.6-56.1,1.2-84.1,1.8c-86-25.4-172.1-50.7-258.1-76.1c-29.2-0.5-58.4-0.9-87.6-1.4c-12.7,1.4-25.5,2.9-38.2,4.3
		c-36-1.2-72-2.3-108-3.5c0,1.9,0,4.6,0,6.5C0,184.1,0,183.9,0,184.1z"/>
	<path class="st6" d="M112.1,0c1.4,1.9,2.7,3.8,4.1,5.6c1.8,8.3,3.6,16.7,5.4,25c2.3,5.5,4.6,11,6.9,16.5c4.8,3.2,9.6,6.3,14.3,9.5
		c6.6,1.6,13.2,3.2,19.8,4.8c5,1.4,10,2.7,14.9,4.1c5,7.9,10,15.7,15.1,23.6c11.3,16.8,22.5,33.7,33.8,50.5c1,1.1,2.8,2.8,5.1,4.7
		c11.4,8.9,23.4,9.3,40.5,11.7c11.4,1.6,19.6,2.8,28.7,5.3c26.1,7.1,38.3,19.3,40.8,16.5c2.9-3.1-14.3-17.2-32.5-47.9
		c-12.9-21.7-20.4-41.8-38.5-54.7c-2.8-2-6.7-5.9-13.2-8c-5.5-1.8-8.1-1-14-2.6c0,0-7.4-2-14.7-7.5c-9.9-7.4-10.9-16.4-18.4-31.5
		c-3.2-6.3-8.3-15.4-16.5-25.6C166.6,0,139.3,0,112.1,0z"/>
	<path class="st5" d="M116,0c4.7,9.8,8.2,17.9,10.4,23.3c6.3,15.1,7.9,21.3,14.8,26.8c5.9,4.7,12.4,6.6,12.4,6.6
		c7.3,2.1,9.5,0.1,16,2.4c6.6,2.5,10.7,7,12.8,9.4c3.4,3.8,3.2,5.2,8.2,14.1c4.9,8.8,6,9.1,13.6,22.1c3.1,5.3,3.3,5.9,5.4,9.5
		c11.8,20.2,18.9,24.1,18.2,27.8c-1,5.9-21.7,10.6-107.9,5.6c-24.9-0.1-49.8-0.2-74.6-0.3c-14.8-1-29.5-2-44.3-3.1
		C0.6,96.2,0.3,48.1,0,0C38.7,0,77.3,0,116,0z"/>
	<path class="st8" d="M841.9,216.9v36.3c-66.6-0.7-120.3,0-158.3,0.8c-33.5,0.7-66.9,1.7-117.6,1.5c-56-0.3-42.6-1.7-79.6-1.5
		c-37.1,0.2-46,1.6-63.9-2.7c-8.6-2.1-11.7-3.7-58.5-25.4c-24.9-11.5-37.4-17.3-54.8-24.7c-21.9-9.3-37.9-15.5-59.5-18.1
		c-6.1-0.8-10.3-1-18.4-1.3c-35.5-1.6-63.4,0.6-66.9,0.8c-21.8,1.7-66.1,3.2-163.5,2.8v-42.6c50.6-0.8,93.8-1.5,133.9-2.3
		c0,0,22.9-0.4,78.6,1.2c19.8,0.6,31,1.1,45.5,3.9c24.8,4.7,42.6,12.7,53.2,17.6c103.3,47.2,103.2,47.2,105.4,48
		c21,7.3,27.6,5.6,128.6,5.1c53.3-0.3,106.6,0.4,159.8,0.4C737.3,216.5,784.2,216.6,841.9,216.9z"/>
	<path class="st9" d="M300.1,112.4c0-3.2,1.4-6,3.1-9.4c1.9-3.8,3-5.8,5.1-7.5c2-1.6,4.9-2.8,16.6-2.2c9.1,0.4,13.6,0.7,15.6,1.7
		c8.1,4.1,11.2,14.3,14.6,25.8c3.1,10.4,2.3,13.6,6.4,18.1c3.8,4.2,10.6,7.9,15.9,6c3.6-1.2,2.9-3.6,7-5.9c1.7-0.9,3.7-1.5,18.2-0.4
		c7.8,0.6,8.4,0.9,9.2,1.4c5,3.2,3.6,9.3,8.7,11.9c2.8,1.4,3.6-0.2,7.8,1.1c5.9,1.8,9.4,6.6,10.7,8.5c3.3,4.6,1.7,5.4,5.4,10.8
		c1.5,2.2,6.1,9,10.4,8.3c1.3-0.2,2.6-1.2,3.9-0.5c0.5,0.3,0.9,0.7,1.6,2.4c1.7,4,1.5,5.3,2.9,7c1.2,1.4,2,1.5,2,1.9
		c-0.2,1.7-15.9-0.1-35.3-0.1c-12.6,0-28.6,0.7-38.1,0.4c-0.6,0-2.8-0.1-5.7-0.1c-6.4-0.1-8.7,0.2-10.6,0.2
		c-5.9-0.1-8.3-3.2-17.8-8.4c-9.1-5.1-10-4-15.3-7.2c-7.8-4.6-8-8.1-28-37.4c-3.6-5.2-6.1-11-9.7-16.2
		C302.2,118.8,300.2,116.2,300.1,112.4z"/>
	<path class="st10" d="M448.4,87.1c-6.3,5.6-13.9,5.8-18.8,6c-4.4,0.1-15.3,0.4-23.1-7.6c-5.1-5.2-6.3-11.4-6.7-14
		c-0.4-2.1-2.7-16.6,6.7-24.7c5.7-5,12.7-4.9,21.2-4.7c7.7,0.1,16.5,0.2,22.7,6.8c4.6,4.9,5.3,10.9,5.7,14.2
		C456.2,65.3,457.8,78.7,448.4,87.1z"/>
	<path class="st3" d="M259.9,209.8c-0.1,17.5-0.2,34.9-0.2,52.4c-0.4,3.3,0.7,6.4,3,7.8c0.4,0.3,1.9,1.2,3.8,0.9
		c1.7-0.2,2.7-1.2,3.2-1.7c2.8-2.7,2.1-6.9,2-7.5c0.2-17.3,0.3-34.6,0.5-51.9"/>
	<path class="st3" d="M299.2,220.3c-0.1,10.3-0.2,20.6-0.2,30.9c-0.4,2,0.7,3.8,2.9,4.6c0.4,0.2,1.9,0.7,3.8,0.5
		c1.6-0.1,2.7-0.7,3.1-1c2.7-1.6,2.1-4.1,1.9-4.5c0.2-10.2,0.3-20.4,0.5-30.6"/>
	<ellipse class="st3" cx="349.1" cy="280.8" rx="3" ry="3.5"/>
	<ellipse class="st3" cx="188.1" cy="249.6" rx="3" ry="3.5"/>
	<circle class="st3" cx="278.2" cy="302.9" r="2.5"/>
	<ellipse class="st3" cx="428.3" cy="315.6" rx="2.5" ry="3.1"/>
	<ellipse class="st3" cx="260.8" cy="346.3" rx="3" ry="3.5"/>
	<ellipse class="st3" cx="361.5" cy="293.4" rx="2.5" ry="3.1"/>
	<ellipse class="st3" cx="16.7" cy="354.6" rx="2.5" ry="3.1"/>
	<circle class="st3" cx="18.9" cy="252.9" r="3.5"/>
	<ellipse class="st3" cx="525.1" cy="305.4" rx="2.5" ry="3.1"/>
	<circle class="st3" cx="349.5" cy="290.6" r="2.1"/>
	<circle class="st3" cx="522.6" cy="330" r="4.7"/>
</g>
<g id="tree1">
	<path class="st11" d="M129.5,354.4c-0.8-1-1.9-2.5-2.9-4.3c-0.8-1.4-3.7-6.6-3.9-14c-0.1-4.2-0.3-11.5,4.5-18
		c3.4-4.5,7.8-6.8,10.1-8c4.2-2.2,5.9-1,8.4-3.1c3.9-3.3,1.7-7.1,5.3-10.5c3.8-3.6,7.7-0.9,10.9-4.3c3.4-3.5,0.1-7.5,3-12.3
		c4.1-6.8,15.4-6.8,17.9-6.8c3.7,0,9.9,0,14.2,4.5c0.9,0.9,4.5,4.7,4.5,9.6c0,1.6-0.4,2.5,0.2,3.7c1.2,2.3,4.7,1.5,7.8,2.7
		c1.4,0.6,11.5,4.6,13.3,11.9c1.3,5.5-3.1,8.4-1,12.1c1.9,3.3,5.8,1.6,10.5,4.9c5.9,4.2,8.2,12.8,7,19.5c-0.3,1.8-1,5.7-4.3,9.2
		c-3,3.2-6.4,4.3-8,4.7C194.6,355.3,162,354.9,129.5,354.4z"/>
	<path class="st12" d="M191.2,411.5c0.1,14.6,0.2,29.1,0.2,43.7l-25-14.8l1.7-64.2c-0.8,0-2-0.1-3.4-0.4c-2.4-0.5-4.5-1.5-7.5-3.8
		c-5-3.8-8.2-6.1-9.9-10.6c-1-2.7-1.2-5.2-1.1-6.8l10.4,0c0,1.5,0.1,3.9,1.4,6.3c2.4,4.7,7.9,7.9,9.7,6.6c0.8-0.5,0.6-1.5,0.8-7.4
		c0.1-2.3,0.2-4.2,0.3-5.5c7.5,0.2,15.1,0.4,22.6,0.6l-0.6,47.7c1,0.1,2.7,0.1,4.6-0.7c0.7-0.3,3.2-1.3,4.6-3.7
		c1.1-1.8,0.6-2.7,1.7-3.6c0.9-0.7,2.1-0.7,4.6-0.6c3,0.1,4.5,0.1,5,0.9c0.8,1.2-0.2,3.1-1.5,5.6c-1.4,2.7-2.6,5-5.3,7
		c-2.9,2.2-5.8,2.8-8,3.2c-2.3,0.5-4.3,0.5-5.7,0.4"/>
	<path class="st11" d="M189.3,394.1c-1.5-1.3-1.6-3.6-1.6-5.4c0-1.8,0-5.4,2.3-7.3c2.7-2.2,6.1,0,8.5-2.4c1.2-1.2,0.6-1.9,2-3.8
		c0.4-0.5,2.3-3.1,5.6-3.8c3.9-0.9,8.2,1.1,9.8,4.1c0.3,0.5,0.4,1,0.4,1c0.4,1.3,0.2,1.8,0.5,2.4c0.5,1,1.9,1.1,2.6,1.3
		c3.2,0.6,6.1,3.2,7.1,4.9c1.9,3.2-0.1,7.7-0.8,9c-10.7,0.7-19.1,0.9-23.6,0.9c-3.8,0-3.1-0.2-6.5-0.2
		C191.7,394.8,190.5,395.1,189.3,394.1z"/>
	<ellipse transform="matrix(0.866 -0.5 0.5 0.866 -121.6898 128.006)" class="st13" cx="178" cy="291.1" rx="8" ry="3.9"/>
	<circle class="st13" cx="148" cy="340.6" r="2.7"/>
	<circle class="st7" cx="203.5" cy="313.2" r="2.7"/>
	<ellipse transform="matrix(0.866 -0.5 0.5 0.866 -144.0471 148.8443)" class="st13" cx="205.7" cy="343.2" rx="6" ry="3.9"/>
	<ellipse transform="matrix(0.866 -0.5 0.5 0.866 -167.6174 153.783)" class="st13" cx="203.2" cy="389.7" rx="3" ry="2"/>
</g>
<g id="tree2">
	<g>
		<path class="st12" d="M92.6,406.1l-24.7-6.3l-0.6-56.2c0,0-0.7-0.5-0.7-0.5c-0.2,0-0.4,0-0.4,0c-0.3,0-6,0.1-14.6-5.6
			c-2.7-1.8-6.5-4.4-10.2-9.1c-2.5-3.1-7.5-9.4-5.6-12.4c1.5-2.2,6.8-2.2,10.2,0c3.2,2.1,2.8,4.9,5.4,9c3.9,6,11.7,10.7,15.3,8.8
			c2.6-1.3,2.4-5.7,2.2-17c-0.3-16.7-0.3-25.1-0.3-25.8c0.6-10.5,0.1-21.1,1.2-31.6c0.1-1.3,0.4-3.3-0.8-4.5
			c-1.9-2-5.4-0.1-11.8-2.8c0,0-0.3-0.1-0.5-0.2c-8.7-3.9-14.2-11.1-14.2-11.1c-1-1.3-4.2-5.7-5-11.5c-0.2-1.1-0.2-2.2,0.4-3.2
			c1.6-2.3,7.1-2.1,9.5,0.4c1.1,1.2,0.8,2,2.2,5.4c0,0,1.1,2.6,2.8,5.2c2.8,4.2,14.2,10.1,17.2,7c0.6-0.6,0.5-1.3,0-8
			c-0.5-6-0.6-9,0-10.3c2.6-5.4,14.9-7.6,19.1-3.1c2.2,2.3,1,5.1,0.8,16.1c-0.1,5.4,0.2,3.4,0.5,14.7c0.4,16.1,0.6,24.2,0.3,31.5
			c-0.3,8.5-1,14.8,1.5,15.7c0.8,0.3,2.2-0.4,4.8-1.8c3.1-1.7,5.7-3.1,8-5.8c1.9-2.2,3.6-4.2,4.7-7.3c0.3-0.9,0.6-2,1.6-2.6
			c0.4-0.3,1.2-0.7,4.8-0.3c2.7,0.3,4,0.5,4.5,1.1c1.6,1.8-1,6.2-1.9,8.1c-3.2,6.7-8.8,10.2-11.6,12.1c-4.3,3-6.4,4.5-9.6,4.8
			c-2.8,0.3-4.9-0.4-6.1,1c-1,1.1-0.5,2.7-0.2,5.2c0.3,2.5-0.2,1-0.1,9.5c0,20.7,0.9,48,0.9,48C91.8,380,92.2,391.5,92.6,406.1z"/>
		<path class="st11" d="M0.2,187.8c2.7-4.3,5.5-5.9,7.6-6.6c2.7-0.9,5.3-0.5,6.4-2.3c0.9-1.4,0.3-3.3,0-4.2c0,0-1.9-6.3-0.5-16.7
			c1-7.4,6.5-12.3,9.5-14.9c3-2.7,8.9-7.9,16.5-7.9c3.9,0,7.4,1.4,9.1-0.6c1.1-1.3,0.7-3.1,0.6-4.5c-0.6-8.4,8.5-16,10-17.1
			c8.8-7.3,19.1-6.5,21.4-6.3c2.3,0.2,13,1.6,19.8,10.5c1.7,2.3,4.8,6.3,5,11.9c0.2,4-1.3,6.1,0,7.6c2,2.4,7-1.1,13.5-0.9
			c9.9,0.3,18.1,9.1,21.8,15.8c4.4,8,4.2,16.4,4.1,18.6c-0.2,4.4-2.7,8.2-0.7,10.5c1.3,1.5,3.1,1,6,1.6c6.8,1.4,11.1,7.3,13,10
			c1.8,2.5,5.4,8.3,5.4,16.4c0,9.2-4.5,15.5-6,17.4c-54.1,0-108.3-0.1-162.4-0.1C0.2,213.3,0.2,200.5,0.2,187.8z"/>
		<path class="st11" d="M73.3,315.8c0.7-1.4,3.1-7,1.2-13.8c-0.2-0.9-3-10-9.8-12c-2.5-0.7-4.8-0.3-6-2c-1.1-1.5-0.4-3-0.5-5
			c-0.3-5.1-5.8-9.6-10.7-11.4c-6.6-2.3-12.3,0.2-14.1,1.2c-1.3,0.7-6.6,3.4-8.4,8.9c-1.1,3.4,0,5.6-1.9,7.2c-1.9,1.7-4,0.3-7.2,1.2
			c-5.2,1.5-7.8,7.4-8.3,8.6c-3.7,8.7,1.9,17.2,2.3,17.9C31,316.2,52.2,316,73.3,315.8z"/>
		<path class="st14" d="M38.2,316.4"/>
		<path class="st11" d="M89.2,280.6c-1.5-3-1.5-6.3-1.5-6.3v0c-0.1-3.2,1.4-6.9,4.2-8.9c4.2-3,8.7-0.6,10.5-3.4
			c1.3-2-0.6-3.5,0.4-6.6c1.6-4.6,7.6-6.3,8.9-6.7c1.6-0.5,7.5-2.1,11.4,0.9c4.1,3.1,2.2,8.2,6.9,11.3c2.1,1.4,2.7,0.4,5.7,1.9
			c1.4,0.7,7.6,4,8.5,10.4c0.6,4.1-1.3,7.5-2.2,8.8c-2.7,0.3-6.4,0.6-10.8,0.9c-8.3,0.5-9.6,0.1-21.9,0.3
			C99.7,283.2,90.7,283.5,89.2,280.6z"/>
	</g>
	<ellipse transform="matrix(0.866 -0.5 0.5 0.866 -77.5535 40.3224)" class="st7" cx="36.5" cy="164.9" rx="7.1" ry="3.5"/>
	<ellipse transform="matrix(0.866 -0.5 0.5 0.866 -102.2298 41.134)" class="st13" cx="25.6" cy="211.3" rx="7.1" ry="3.5"/>
	
		<ellipse transform="matrix(0.5428 -0.8399 0.8399 0.5428 -109.6773 207.3446)" class="st13" cx="135.6" cy="204.4" rx="3.5" ry="7.1"/>
	<ellipse transform="matrix(0.866 -0.5 0.5 0.866 -81.8747 79.1037)" class="st7" cx="106.7" cy="192.3" rx="4.1" ry="3.5"/>
	<ellipse transform="matrix(0.866 -0.5 0.5 0.866 -62.6399 50.9865)" class="st13" cx="63.8" cy="142.4" rx="2.1" ry="1.7"/>
	<ellipse transform="matrix(0.866 -0.5 0.5 0.866 -58.9672 73.0451)" class="st13" cx="106.8" cy="146.6" rx="2.6" ry="2.3"/>
	<ellipse transform="matrix(0.866 -0.5 0.5 0.866 -99.6009 50.945)" class="st7" cx="45.3" cy="211.3" rx="2.1" ry="1.7"/>
	<ellipse transform="matrix(0.866 -0.5 0.5 0.866 -75.8816 90.2715)" class="st13" cx="130.5" cy="186.7" rx="2.1" ry="1.7"/>
	<ellipse transform="matrix(0.866 -0.5 0.5 0.866 -91.6506 40.156)" class="st13" cx="29.1" cy="191.1" rx="2.3" ry="2"/>
	
		<ellipse transform="matrix(0.9962 -8.752650e-02 8.752650e-02 0.9962 -23.31 11.2026)" class="st13" cx="116.1" cy="271.4" rx="3.8" ry="2.8"/>
	<ellipse transform="matrix(0.866 -0.5 0.5 0.866 -111.4694 94.1638)" class="st13" cx="120" cy="255.1" rx="2.1" ry="1.7"/>
	<ellipse transform="matrix(0.866 -0.5 0.5 0.866 -150.3078 52.2893)" class="st13" cx="22.4" cy="306.6" rx="1.6" ry="1.3"/>
	<ellipse transform="matrix(0.866 -0.5 0.5 0.866 -138.0456 63.392)" class="st13" cx="49.3" cy="289.3" rx="2.8" ry="3.8"/>
</g>
<g id="tree3">
	<path class="st15" d="M672,449l42.5-9.1l1-81c0,0,1.2-0.7,1.2-0.7c0.3-0.1,0.6,0,0.7,0c0.5,0.1,10.3,0.1,25.2-8.1
		c4.6-2.6,11.2-6.3,17.7-13.1c4.2-4.4,12.9-13.6,9.6-17.8c-2.5-3.2-11.7-3.2-17.6,0c-5.5,3-4.8,7.1-9.3,13
		c-6.7,8.6-20.2,15.4-26.4,12.6c-4.4-1.9-4.2-8.2-3.9-24.5c0.5-24.1,0.6-36.1,0.5-37.2c-1-15.1-0.2-30.4-2-45.5
		c-0.2-1.8-0.6-4.7,1.5-6.5c3.3-2.9,9.3-0.1,20.4-4c0.1,0,0.5-0.2,0.9-0.3c15-5.6,24.5-16,24.5-16c1.8-1.9,7.2-8.2,8.6-16.5
		c0.3-1.6,0.4-3.2-0.8-4.6c-2.8-3.3-12.2-3.1-16.4,0.5c-1.9,1.7-1.3,2.9-3.8,7.8c0,0-1.8,3.7-4.8,7.5c-4.8,6.1-24.5,14.5-29.6,10.1
		c-1.1-0.9-0.9-1.9,0.1-11.6c0.8-8.6,1.1-13-0.1-14.9c-4.5-7.8-25.7-10.9-32.9-4.4c-3.8,3.4-1.6,7.4-1.4,23.2
		c0.1,7.8-0.4,4.9-0.9,21.2c-0.7,23.2-1,34.8-0.5,45.3c0.6,12.2,1.7,21.3-2.6,22.6c-1.5,0.5-3.7-0.5-8.2-2.6
		c-5.3-2.4-9.8-4.4-13.8-8.4c-3.2-3.2-6.3-6.1-8.1-10.6c-0.5-1.3-1-2.8-2.8-3.8c-0.7-0.4-2.1-1-8.3-0.4c-4.6,0.5-6.9,0.7-7.7,1.5
		c-2.7,2.6,1.6,8.9,3.2,11.7c5.5,9.7,15.1,14.7,19.9,17.5c7.4,4.3,11.1,6.4,16.5,6.9c4.7,0.4,8.5-0.6,10.5,1.4
		c1.6,1.6,0.9,3.9,0.4,7.5c-0.5,3.6,0.3,1.5,0.3,13.7c-0.1,29.8-1.5,69.1-1.5,69.1C673.3,411.4,672.7,428.1,672,449z"/>
	<path class="st16" d="M842.5,130.6c-4.8-6.8-9.8-9.5-13.7-10.6c-4.9-1.4-9.5-0.8-11.6-3.7c-1.6-2.3-0.5-5.3,0-6.7
		c0,0,3.4-10,0.8-26.7c-1.8-11.8-11.8-19.7-17.1-23.9c-5.5-4.3-16-12.7-29.7-12.7c-7,0-13.2,2.2-16.3-0.9c-2-2.1-1.2-5-1.1-7.3
		c1.1-13.4-15.4-25.6-17.9-27.5C720.1-1,701.6,0.3,697.5,0.6C693.4,1,674.1,3.2,662,17.5c-3.1,3.6-8.6,10.1-8.9,19
		c-0.3,6.5,2.3,9.8,0,12.2c-3.7,3.9-12.6-1.7-24.2-1.4c-17.7,0.5-32.6,14.6-39.2,25.3c-7.9,12.8-7.5,26.4-7.4,29.8
		c0.3,7.1,4.9,13.2,1.3,16.9c-2.3,2.4-5.6,1.6-10.8,2.6c-12.3,2.3-19.9,11.7-23.4,16c-3.2,4-9.7,13.3-9.7,26.3
		c-0.1,14.8,8.1,24.9,10.8,27.9c97.4-0.1,194.7-0.2,292.1-0.2C842.5,171.4,842.5,151,842.5,130.6z"/>
	<path class="st16" d="M572.1,280.4c-1-1.8-4.8-8.7-1.8-17.2c0.4-1.1,4.5-12.5,14.8-14.9c3.8-0.9,7.2-0.3,9.2-2.5
		c1.6-1.8,0.6-3.7,0.7-6.2c0.5-6.3,8.8-12,16.3-14.2c10-2.9,18.7,0.3,21.5,1.5c1.9,0.8,10,4.2,12.7,11c1.7,4.3,0.1,7,2.8,9
		c2.8,2.1,6,0.3,11,1.5c7.9,1.8,11.8,9.1,12.6,10.7c5.7,10.8-2.9,21.4-3.6,22.2C636.1,280.9,604.1,280.6,572.1,280.4z"/>
	<path class="st14" d="M765.7,319.8"/>
	<ellipse transform="matrix(0.866 -0.5 0.5 0.866 72.6252 358.6403)" class="st17" cx="705.5" cy="43.8" rx="7.6" ry="5.1"/>
	<ellipse transform="matrix(0.866 -0.5 0.5 0.866 1.6077 314.3394)" class="st18" cx="587.4" cy="154.2" rx="7.1" ry="3.5"/>
	
		<ellipse transform="matrix(0.5428 -0.8399 0.8399 0.5428 225.5348 763.8851)" class="st18" cx="814.3" cy="174.8" rx="3.5" ry="7.1"/>
	<ellipse transform="matrix(0.866 -0.5 0.5 0.866 14.7541 378.918)" class="st18" cx="714.4" cy="161.9" rx="4.1" ry="3.5"/>
	<ellipse transform="matrix(0.866 -0.5 0.5 0.866 61.3521 400.4832)" class="st17" cx="778" cy="85.8" rx="2.1" ry="1.7"/>
	<ellipse transform="matrix(0.866 -0.5 0.5 0.866 54.1615 368.4383)" class="st18" cx="714.6" cy="83.2" rx="2.6" ry="2.3"/>
	<ellipse transform="matrix(0.866 -0.5 0.5 0.866 7.365 323.3382)" class="st18" cx="607" cy="147.9" rx="2.1" ry="1.7"/>
	<ellipse transform="matrix(0.866 -0.5 0.5 0.866 32 348.6476)" class="st15" cx="666.6" cy="114.6" rx="2.1" ry="1.7"/>
	<ellipse transform="matrix(0.6692 -0.7431 0.7431 0.6692 93.4324 546.7614)" class="st17" cx="660.8" cy="168.4" rx="5" ry="9.3"/>
	<ellipse transform="matrix(0.866 -0.5 0.5 0.866 36.8063 321.0216)" class="st18" cx="617.4" cy="91.8" rx="4.1" ry="3.5"/>
	
		<ellipse transform="matrix(0.5428 -0.8399 0.8399 0.5428 281.0137 714.0058)" class="st18" cx="796.3" cy="98.9" rx="4.2" ry="7.8"/>
	<ellipse transform="matrix(0.866 -0.5 0.5 0.866 -51.5764 335.8294)" class="st18" cx="600.9" cy="264.2" rx="4.1" ry="3.5"/>
	<ellipse transform="matrix(0.866 -0.5 0.5 0.866 -35.9153 348.9623)" class="st18" cx="633.2" cy="241.5" rx="2.1" ry="1.7"/>
</g>
<g id="grass">
	<path class="st19" d="M0,392.4c11.1-0.8,26.4-1.4,44.6-0.1c5.1,0.4,18.9,1.4,32.2,4c17.9,3.6,31.2,9.4,97.6,47.3
		c22.1,12.6,22.5,13,29.3,16.5c27.5,14.3,51.4,23.1,67.5,28.4H0C0,456.5,0,424.5,0,392.4z"/>
	<path class="st8" d="M519.1,453.9c-2.9-5.8,2.1-16,6.8-21.5c2.1-2.5,7.3-8.5,14.7-9.2c2.1-0.2,3.5,0.1,4.9-1.1
		c2.8-2.5,0.1-7.2,1-13.1c1-6.6,5.6-10.9,9.5-14.4c2.6-2.4,9.5-8.8,18.8-9.1c3.4-0.1,4.9,0.6,6.4-0.6c3.4-2.8-1.4-9,0.4-17
		c1.8-8.4,10.2-16,18.4-17.8c6.5-1.4,10.1,1.4,12.9-1.3c3-3,0.1-7.5,1.1-14.3c1.7-12,13.8-19.2,15.5-20.2c9.7-5.8,13.7-1.1,28.7-5.1
		c16.1-4.3,13.7-10.3,29.5-14.4c13.8-3.6,19.1,0,32.8-5.9c8.1-3.5,7.5-5.3,13.6-7.6c14.4-5.4,20.9,3.6,40.7,4.7
		c18,1,27.6-5.7,50.4-5.3c6.7,0.1,15.3,0.9,16.5,4.7c0.2,0.5,0.1,1,0.1,1.1c-0.6,10.4,0.7,20.9-0.1,31.3c0,0.4-0.2,10-0.4,29.3
		c-0.2,18-0.3,27.2-0.3,39.1c0,22.9,0.5,21.9,0.1,23.1c-6.7,23.2-62.6,18.2-158.4,32c-33.3,4.8-66.8,7.7-100.1,12.9
		C551.9,458.9,524.2,464,519.1,453.9z"/>
	<path class="st20" d="M0.2,529.5c28.2-3,50.5-1.5,65.2,0.2c25.3,3.1,69,12,84.4,15.1c20.2,4.1,41.3,8.7,44.8,1.6
		c1.8-3.8-1.9-9.9-2-10.2c-2.8-4.5-8.4-7.6-13.7-7.9c-3-0.2-4.8,0.6-6.6-0.8c-2.4-1.7-2.6-5.3-2.8-6.9c-1.3-11-11-23-20-27.2
		c-5.4-2.5-10.7-3.5-10.7-3.5c-4-0.8-5.7-0.5-7.9-1.8c-4-2.3-5.4-6.7-6.2-8.7c-4.4-11.2-19.2-20.4-30.4-22.4
		c-13.8-2.4-23.5,0.3-23.5,0.3c-2.1,0.6-7.7,2.4-10.7-0.3c-1.1-1-1.5-2.2-1.6-2.6c-1.8-5.5-14.4-23.9-31.5-27.8
		c-3.5-0.8-12.9-2.3-25.2,3.9L0.2,529.5z"/>
	<path class="st21" d="M550.3,461.7c-2.6-5.2,1.9-14.3,6.1-19.1c1.9-2.2,6.6-7.6,13.3-8.2c1.9-0.2,3.2,0.1,4.4-1
		c2.5-2.2,0.1-6.4,0.9-11.7c0.9-5.8,5.1-9.7,8.6-12.8c2.4-2.2,8.6-7.8,17-8.1c3.1-0.1,4.5,0.6,5.8-0.6c3-2.5-1.2-8,0.4-15.1
		c1.7-7.5,9.2-14.3,16.7-15.8c5.9-1.2,9.2,1.3,11.7-1.2c2.7-2.6,0.1-6.7,1-12.8c1.6-10.7,12.5-17.2,14-18.1c8.8-5.2,12.4-1,26-4.5
		c14.6-3.8,12.4-9.2,26.7-12.9c12.5-3.2,17.3,0,29.7-5.2c7.3-3.1,6.7-4.7,12.3-6.8c13-4.8,18.9,3.2,36.8,4.2
		c16.3,0.9,25-5.1,45.6-4.7c6,0.1,13.9,0.8,14.9,4.2c0.1,0.5,0.1,0.9,0.1,1c-0.6,9.3,0.7,18.6-0.1,27.9c0,0.4-0.1,9-0.4,26.1
		c-0.2,16.1-0.3,24.3-0.3,34.9c0,20.4,0.4,19.6,0.1,20.6c-6,20.7-56.6,16.2-143.3,28.5c-30.1,4.3-60.5,6.9-90.5,11.5
		C580,466.1,554.9,470.7,550.3,461.7z"/>
	<path class="st16" d="M842.2,534.7c0-59.3,0-118.6,0-177.9c-5.8-0.1-14.1,0.6-23.4,4c-11.1,4.1-18.1,10.1-22.2,13.7
		c-5.7,5-8.5,7.5-10.8,12.1c-4.1,8.4-1.9,15.2-5.6,16.8c-2.6,1-4.6-1.8-11.1-4c-6.4-2.2-11.9-2-15.1-1.9
		c-3.5,0.1-16.8,0.5-26.5,10.2c-2,2-6.2,6.2-8,12.8c-1.7,6.4,0.5,9.3-2,12.1c-2.9,3.3-7.4,1.2-17.9,2.2c-1.8,0.2-11.8,1.3-22.4,6.4
		c-8,3.9-13.2,8.6-14.8,10.1c-4.6,4.4-12.8,12.1-14.1,22.8c-0.4,3.2,0.1,3.9-0.8,5.4c-3.1,4.9-11.5,1.9-24.9,5.3
		c-3.9,1-9.5,2.4-15.3,6.5c-6,4.3-9.4,9.4-10.6,11.3c-1.9,3-3.7,5.8-4.8,10.1c-0.8,3.2-0.4,4.2-1.5,5.1c-2.7,2.3-7.2-1.9-15.9-2.2
		c-2.5-0.1-7.3,0.1-12.4,2.4c-1.8,0.8-6.1,2.8-9.5,7.3c-2.8,3.7-3.7,7.4-4,9.4H842.2z"/>
	<path class="st22" d="M841.9,534.7c0-54.4,0-108.8,0-163.2c-5.1,0-12.5,0.6-20.6,3.7c-9.8,3.7-16,9.3-19.6,12.6
		c-5,4.6-7.5,6.9-9.5,11.1c-3.6,7.7-1.7,14-5,15.4c-2.3,1-4.1-1.6-9.8-3.7c-5.7-2-10.5-1.9-13.3-1.8c-3.1,0.1-14.8,0.5-23.4,9.4
		c-1.8,1.8-5.5,5.7-7,11.7c-1.5,5.8,0.4,8.5-1.8,11.1c-2.6,3-6.6,1.1-15.8,2c-1.6,0.2-10.4,1.2-19.8,5.9c-7.1,3.6-11.6,7.8-13,9.2
		c-4.1,4-11.3,11.1-12.4,20.9c-0.3,2.9,0.1,3.6-0.7,5c-2.8,4.5-10.1,1.8-22,4.8c-3.5,0.9-8.4,2.2-13.5,6c-5.3,3.9-8.3,8.6-9.4,10.4
		c-1.7,2.7-3.3,5.3-4.2,9.2c-0.7,2.9-0.4,3.8-1.3,4.7c-2.3,2.1-6.4-1.8-14-2c-2.2-0.1-6.4,0.1-11,2.2c-1.6,0.8-5.4,2.6-8.3,6.7
		c-2.4,3.4-3.2,6.8-3.5,8.6H841.9z"/>
	<path class="st23" d="M0,533.8c24.5-2.6,43.8-1.3,56.5,0.2c21.9,2.6,59.8,10.1,73.2,12.7c17.5,3.4,35.8,7.3,38.8,1.4
		c1.6-3.2-1.6-8.4-1.8-8.6c-2.4-3.8-7.3-6.4-11.9-6.6c-2.6-0.1-4.1,0.5-5.8-0.6c-2.1-1.5-2.3-4.4-2.4-5.8
		c-1.1-9.2-9.5-19.3-17.4-22.8c-4.7-2.1-9.2-3-9.2-3c-3.5-0.7-4.9-0.4-6.9-1.5c-3.5-1.9-4.7-5.6-5.3-7.3
		c-3.8-9.5-16.6-17.2-26.3-18.8c-12-2-20.3,0.3-20.3,0.3c-1.8,0.5-6.7,2-9.3-0.3c-0.9-0.8-1.3-1.9-1.4-2.2
		c-1.6-4.6-12.5-20.1-27.3-23.4c-3-0.7-11.2-1.9-21.9,3.3L0,533.8z"/>
	
		<ellipse transform="matrix(0.9962 -8.752650e-02 8.752650e-02 0.9962 -35.4738 70.6791)" class="st24" cx="788.2" cy="439.9" rx="6.4" ry="4.3"/>
	
		<ellipse transform="matrix(0.3806 -0.9247 0.9247 0.3806 -8.1633 956.7396)" class="st24" cx="710.1" cy="484.5" rx="4.3" ry="6.4"/>
	
		<ellipse transform="matrix(0.9962 -8.752650e-02 8.752650e-02 0.9962 -35.3988 74.0858)" class="st24" cx="827.1" cy="440.7" rx="3.2" ry="2.2"/>
	
		<ellipse transform="matrix(0.9962 -8.752650e-02 8.752650e-02 0.9962 -39.2027 71.5814)" class="st24" cx="796.7" cy="482.8" rx="3.5" ry="2.5"/>
	
		<ellipse transform="matrix(0.9962 -8.752650e-02 8.752650e-02 0.9962 -38.1831 67.7276)" class="st24" cx="753.2" cy="469.3" rx="3.2" ry="2.2"/>
	
		<ellipse transform="matrix(0.7071 -0.7071 0.7071 0.7071 -348.1756 165.4618)" class="st25" cx="25.6" cy="503" rx="3.8" ry="5.3"/>
	
		<ellipse transform="matrix(0.7071 -0.7071 0.7071 0.7071 -332.3722 232.3631)" class="st25" cx="114.3" cy="517.4" rx="3.8" ry="5.3"/>
	
		<ellipse transform="matrix(0.7071 -0.7071 0.7071 0.7071 -322.3582 152.0897)" class="st25" cx="22.4" cy="465.2" rx="3.8" ry="2.7"/>
	
		<ellipse transform="matrix(0.7071 -0.7071 0.7071 0.7071 -141.2624 550.3452)" class="st8" cx="593.7" cy="445.7" rx="4.3" ry="6.4"/>
	
		<ellipse transform="matrix(0.7071 -0.7071 0.7071 0.7071 -323.9135 204.4234)" class="st25" cx="84.8" cy="493.2" rx="3.8" ry="2.1"/>
	
		<ellipse transform="matrix(0.9962 -8.752650e-02 8.752650e-02 0.9962 -28.5826 63.4046)" class="st8" cx="708.7" cy="357.6" rx="6.4" ry="4.3"/>
	<ellipse transform="matrix(0.6075 -0.7944 0.7944 0.6075 -59.9813 663.0562)" class="st8" cx="640.9" cy="392.2" rx="3.4" ry="5"/>
	<circle class="st8" cx="806.5" cy="329.6" r="3.6"/>
	<circle class="st8" cx="680.1" cy="419.3" r="3.6"/>
	<ellipse transform="matrix(0.843 -0.5379 0.5379 0.843 -79.2675 462.7761)" class="st8" cx="753.2" cy="367.2" rx="5.6" ry="3.6"/>
	<circle class="st8" cx="646.6" cy="378.6" r="2.5"/>
</g>
<g id="圖層_7">
	<path class="st26" d="M841.9,506.4c-17.4-9-78.6-37.9-145.5-15.5c-18.1,6.1-32.9,14.7-44.5,23.1c-12.8,6.7-31.9,14.1-54.7,12.9
		c-7.7-0.4-9.7-1.5-36.4-8.4c-51-13.2-64.1-14.5-76-8c-7.1,3.9-4.6,5.6-14,12.9c-24.2,18.8-60,22.9-86,10.8
		c-11.4-5.3-7.9-7.6-19.6-13.8c-39.8-20.8-77.4,7.9-122.6,1.2c-3.6-0.5-11.5-1.9-21.1,0.6c-11.7,3.1-16.8,9.6-26.3,15.8
		c-1.7,1.1-18.3,11.6-38,12.3c-22.8,0.8-41.5-11.9-56.8-22.2c-14.3-9.7-10.8-10.7-19.9-15.2c-20.2-10-43.1-7.8-63.2-5.9
		C9.9,507.7,4,508.6,0,509.3v85.9h841.9V506.4z"/>
	<path class="st26" d="M966.6,347.2"/>
</g>
</svg>
