<svg width="44" height="50" viewBox="0 0 44 50" fill="none" xmlns="http://www.w3.org/2000/svg">
<path id="Vector" d="M43.0793 30.6286C42.8598 29.2779 42.6111 29.4953 35.3529 19.5903C29.4118 11.4708 26.412 7.34113 25.3437 4.76397C24.4657 2.63705 24.2462 1.56582 23.0756 0.75852C19.5782 -1.66338 13.5054 2.23339 8.91052 5.16762C3.56935 8.58312 0.554866 10.5237 0.0426991 13.9858C-0.264601 16.0351 1.0963 18.752 3.8181 24.2013C4.98877 26.5455 6.32042 29.1848 8.54468 32.6158C11.047 36.4971 13.2127 39.8349 16.6662 43.0331C20.6025 46.6815 24.0267 49.8486 28.3728 49.8176C36.4943 49.771 44.411 38.624 43.0793 30.6286Z" fill="#E68762"/>
</svg>
